<svg xmlns="http://www.w3.org/2000/svg" viewBox="-578.8 -330 2050.6 1355.5" width="2050.6" height="1355.5">
  <rect x="-578.8" y="-330" width="2050.6" height="1355.5" fill="#fffcf6"/>
  <text x="-554.8" y="-294" font-size="18" font-weight="700" fill="#2f241b">JAY.nt</text>
  <line x1="-578.8" y1="390" x2="1471.8" y2="390" stroke="#d8cab7" stroke-dasharray="6 6"/>
  <path d="M 462 398 C 464.53213186831823 523.3257396393502, 421.651648353978 545.70533600352, 493.651648353978 621.7959636416969" fill="none" stroke="#6d6d6d" stroke-width="1.4"/>
<path d="M 438 398 C 435.46786813168177 523.3257396393502, 478.348351646022 545.70533600352, 406.348351646022 621.7959636416969" fill="none" stroke="#6d6d6d" stroke-width="1.4"/>
































<path d="M 294.348351646022 621.7959636416969 L 223.34835164602202 621.7959636416969 L 223.34835164602202 516.7959636416969 L 152.34835164602202 516.7959636416969" fill="none" stroke="#6d6d6d" stroke-width="1.4"/>
<path d="M 294.348351646022 621.7959636416969 L 223.34835164602202 621.7959636416969 L 223.34835164602202 586.7959636416969 L 152.34835164602202 586.7959636416969" fill="none" stroke="#6d6d6d" stroke-width="1.4"/>
<path d="M 294.348351646022 621.7959636416969 L 223.34835164602202 621.7959636416969 L 223.34835164602202 656.7959636416969 L 152.34835164602202 656.7959636416969" fill="none" stroke="#6d6d6d" stroke-width="1.4"/>
<path d="M 294.348351646022 621.7959636416969 L 223.34835164602202 621.7959636416969 L 223.34835164602202 726.7959636416969 L 152.34835164602202 726.7959636416969" fill="none" stroke="#6d6d6d" stroke-width="1.4"/>
<path d="M 605.651648353978 621.7959636416969 L 676.651648353978 621.7959636416969 L 676.651648353978 551.7959636416969 L 747.651648353978 551.7959636416969" fill="none" stroke="#6d6d6d" stroke-width="1.4"/>
<path d="M 605.651648353978 621.7959636416969 L 676.651648353978 621.7959636416969 L 676.651648353978 621.7959636416969 L 747.651648353978 621.7959636416969" fill="none" stroke="#6d6d6d" stroke-width="1.4"/>
<path d="M 605.651648353978 621.7959636416969 L 676.651648353978 621.7959636416969 L 676.651648353978 691.7959636416969 L 747.651648353978 691.7959636416969" fill="none" stroke="#6d6d6d" stroke-width="1.4"/>
<path d="M 439 391 C 419 630.3974513958793, 90.22661110066338 673.1469962880005, -89.77338889933662 818.495448921213" fill="none" stroke="#6d6d6d" stroke-width="1.4"/>
<path d="M -201.77338889933662 818.495448921213 L -272.7733888993366 818.495448921213 L -272.7733888993366 748.495448921213 L -343.7733888993366 748.495448921213" fill="none" stroke="#6d6d6d" stroke-width="1.4"/>
<path d="M -201.77338889933662 818.495448921213 L -272.7733888993366 818.495448921213 L -272.7733888993366 818.495448921213 L -343.7733888993366 818.495448921213" fill="none" stroke="#6d6d6d" stroke-width="1.4"/>
<path d="M -201.77338889933662 818.495448921213 L -272.7733888993366 818.495448921213 L -272.7733888993366 888.495448921213 L -343.7733888993366 888.495448921213" fill="none" stroke="#6d6d6d" stroke-width="1.4"/>
<path d="M 461 391 C 481 630.3974513958793, 809.7733888993366 673.1469962880005, 989.7733888993366 818.495448921213" fill="none" stroke="#6d6d6d" stroke-width="1.4"/>
<path d="M 1101.7733888993366 818.495448921213 L 1172.7733888993366 818.495448921213 L 1172.7733888993366 748.495448921213 L 1243.7733888993366 748.495448921213" fill="none" stroke="#6d6d6d" stroke-width="1.4"/>
<path d="M 1101.7733888993366 818.495448921213 L 1172.7733888993366 818.495448921213 L 1172.7733888993366 818.495448921213 L 1243.7733888993366 818.495448921213" fill="none" stroke="#6d6d6d" stroke-width="1.4"/>
<path d="M 1101.7733888993366 818.495448921213 L 1172.7733888993366 818.495448921213 L 1172.7733888993366 888.495448921213 L 1243.7733888993366 888.495448921213" fill="none" stroke="#6d6d6d" stroke-width="1.4"/>
<path d="M 443 388 C 423 448.04924557304946, 83.2065016746019 458.77232513966544, -96.7934983253981 495.2307956661598" fill="none" stroke="#6d6d6d" stroke-width="1.4"/>
<path d="M -208.7934983253981 495.2307956661598 L -279.7934983253981 495.2307956661598 L -279.7934983253981 468 L -350.7934983253981 468" fill="none" stroke="#6d6d6d" stroke-width="1.4"/>
<path d="M -208.7934983253981 495.2307956661598 L -279.7934983253981 495.2307956661598 L -279.7934983253981 538 L -350.7934983253981 538" fill="none" stroke="#6d6d6d" stroke-width="1.4"/>
<path d="M -208.7934983253981 495.2307956661598 L -279.7934983253981 495.2307956661598 L -279.7934983253981 608 L -350.7934983253981 608" fill="none" stroke="#6d6d6d" stroke-width="1.4"/>
<path d="M 457 388 C 477 448.04924557304946, 816.7934983253981 458.77232513966544, 996.7934983253981 495.2307956661598" fill="none" stroke="#6d6d6d" stroke-width="1.4"/>

  <rect x="438" y="16" width="24" height="386" rx="12" fill="#826f62"/><path d="M 439 381 C 434 390, 426 400, 416 408 C 432 405, 442 405, 450 409 C 458 405, 468 405, 484 408 C 474 400, 466 390, 461 381 Z" fill="#826f62" stroke="rgba(47, 36, 27, 0.24)" stroke-width="0.9"/>
<g transform="translate(551.651648353978 621.7959636416969)"><rect x="-54" y="-17" width="108" height="34" rx="6" fill="#ffffff" stroke="#9a7b4f" stroke-width="1.5"/><text text-anchor="middle" dominant-baseline="middle" font-size="13" font-weight="700" fill="#232323">成长过程主要事件</text></g>
<g transform="translate(348.348351646022 621.7959636416969)"><rect x="-54" y="-17" width="108" height="34" rx="6" fill="#ffffff" stroke="#9a7b4f" stroke-width="1.5"/><text text-anchor="middle" dominant-baseline="middle" font-size="13" font-weight="700" fill="#232323">生平</text></g>
<g transform="translate(212 249)"><rect x="-54" y="-17" width="108" height="34" rx="6" fill="#ffffff" stroke="#d9a441" stroke-width="1.5"/><text text-anchor="middle" dominant-baseline="middle" font-size="13" font-weight="700" fill="#232323">1-JAY</text></g>
<g transform="translate(688 227)"><rect x="-54" y="-17" width="108" height="34" rx="6" fill="#ffffff" stroke="#d9a441" stroke-width="1.5"/><text text-anchor="middle" dominant-baseline="middle" font-size="13" font-weight="700" fill="#232323">2-范特西</text></g>
<g transform="translate(34 207)"><rect x="-54" y="-17" width="108" height="34" rx="6" fill="#ffffff" stroke="#d9a441" stroke-width="1.5"/><text text-anchor="middle" dominant-baseline="middle" font-size="13" font-weight="700" fill="#232323">2000</text></g>
<g transform="translate(34 249)"><rect x="-54" y="-17" width="108" height="34" rx="6" fill="#ffffff" stroke="#d9a441" stroke-width="1.5"/><text text-anchor="middle" dominant-baseline="middle" font-size="13" font-weight="700" fill="#232323">可爱女人</text></g>
<g transform="translate(34 291)"><rect x="-54" y="-17" width="108" height="34" rx="6" fill="#ffffff" stroke="#d9a441" stroke-width="1.5"/><text text-anchor="middle" dominant-baseline="middle" font-size="13" font-weight="700" fill="#232323">完美主义</text></g>
<g transform="translate(866 185)"><rect x="-54" y="-17" width="108" height="34" rx="6" fill="#ffffff" stroke="#d9a441" stroke-width="1.5"/><text text-anchor="middle" dominant-baseline="middle" font-size="13" font-weight="700" fill="#232323">2001</text></g>
<g transform="translate(866 227)"><rect x="-54" y="-17" width="108" height="34" rx="6" fill="#ffffff" stroke="#d9a441" stroke-width="1.5"/><text text-anchor="middle" dominant-baseline="middle" font-size="13" font-weight="700" fill="#232323">爱在西元前</text></g>
<g transform="translate(866 269)"><rect x="-54" y="-17" width="108" height="34" rx="6" fill="#ffffff" stroke="#d9a441" stroke-width="1.5"/><text text-anchor="middle" dominant-baseline="middle" font-size="13" font-weight="700" fill="#232323">爸 我回来了</text></g>
<g transform="translate(212 123)"><rect x="-54" y="-17" width="108" height="34" rx="6" fill="#ffffff" stroke="#d9a441" stroke-width="1.5"/><text text-anchor="middle" dominant-baseline="middle" font-size="13" font-weight="700" fill="#232323">3-八度空间</text></g>
<g transform="translate(34 81)"><rect x="-54" y="-17" width="108" height="34" rx="6" fill="#ffffff" stroke="#d9a441" stroke-width="1.5"/><text text-anchor="middle" dominant-baseline="middle" font-size="13" font-weight="700" fill="#232323">2002</text></g>
<g transform="translate(34 123)"><rect x="-54" y="-17" width="108" height="34" rx="6" fill="#ffffff" stroke="#d9a441" stroke-width="1.5"/><text text-anchor="middle" dominant-baseline="middle" font-size="13" font-weight="700" fill="#232323">半兽人</text></g>
<g transform="translate(34 165)"><rect x="-54" y="-17" width="108" height="34" rx="6" fill="#ffffff" stroke="#d9a441" stroke-width="1.5"/><text text-anchor="middle" dominant-baseline="middle" font-size="13" font-weight="700" fill="#232323">半岛铁盒</text></g>
<g transform="translate(688 101)"><rect x="-54" y="-17" width="108" height="34" rx="6" fill="#ffffff" stroke="#d9a441" stroke-width="1.5"/><text text-anchor="middle" dominant-baseline="middle" font-size="13" font-weight="700" fill="#232323">4-叶惠美</text></g>
<g transform="translate(866 59)"><rect x="-54" y="-17" width="108" height="34" rx="6" fill="#ffffff" stroke="#d9a441" stroke-width="1.5"/><text text-anchor="middle" dominant-baseline="middle" font-size="13" font-weight="700" fill="#232323">2003</text></g>
<g transform="translate(866 101)"><rect x="-54" y="-17" width="108" height="34" rx="6" fill="#ffffff" stroke="#d9a441" stroke-width="1.5"/><text text-anchor="middle" dominant-baseline="middle" font-size="13" font-weight="700" fill="#232323">以父之名</text></g>
<g transform="translate(866 143)"><rect x="-54" y="-17" width="108" height="34" rx="6" fill="#ffffff" stroke="#d9a441" stroke-width="1.5"/><text text-anchor="middle" dominant-baseline="middle" font-size="13" font-weight="700" fill="#232323">懦夫</text></g>
<g transform="translate(212 -3)"><rect x="-54" y="-17" width="108" height="34" rx="6" fill="#ffffff" stroke="#d9a441" stroke-width="1.5"/><text text-anchor="middle" dominant-baseline="middle" font-size="13" font-weight="700" fill="#232323">5-七里香</text></g>
<g transform="translate(34 -45)"><rect x="-54" y="-17" width="108" height="34" rx="6" fill="#ffffff" stroke="#d9a441" stroke-width="1.5"/><text text-anchor="middle" dominant-baseline="middle" font-size="13" font-weight="700" fill="#232323">2004</text></g>
<g transform="translate(34 -3)"><rect x="-54" y="-17" width="108" height="34" rx="6" fill="#ffffff" stroke="#d9a441" stroke-width="1.5"/><text text-anchor="middle" dominant-baseline="middle" font-size="13" font-weight="700" fill="#232323">我的地盘</text></g>
<g transform="translate(34 39)"><rect x="-54" y="-17" width="108" height="34" rx="6" fill="#ffffff" stroke="#d9a441" stroke-width="1.5"/><text text-anchor="middle" dominant-baseline="middle" font-size="13" font-weight="700" fill="#232323">我的地盘</text></g>
<g transform="translate(688 -25)"><rect x="-54" y="-17" width="108" height="34" rx="6" fill="#ffffff" stroke="#d9a441" stroke-width="1.5"/><text text-anchor="middle" dominant-baseline="middle" font-size="13" font-weight="700" fill="#232323">6-十一月的肖邦</text></g>
<g transform="translate(866 -67)"><rect x="-54" y="-17" width="108" height="34" rx="6" fill="#ffffff" stroke="#d9a441" stroke-width="1.5"/><text text-anchor="middle" dominant-baseline="middle" font-size="13" font-weight="700" fill="#232323">2005</text></g>
<g transform="translate(866 -25)"><rect x="-54" y="-17" width="108" height="34" rx="6" fill="#ffffff" stroke="#d9a441" stroke-width="1.5"/><text text-anchor="middle" dominant-baseline="middle" font-size="13" font-weight="700" fill="#232323">夜曲</text></g>
<g transform="translate(866 17)"><rect x="-54" y="-17" width="108" height="34" rx="6" fill="#ffffff" stroke="#d9a441" stroke-width="1.5"/><text text-anchor="middle" dominant-baseline="middle" font-size="13" font-weight="700" fill="#232323">蓝色风暴</text></g>
<g transform="translate(212 -129)"><rect x="-54" y="-17" width="108" height="34" rx="6" fill="#ffffff" stroke="#d9a441" stroke-width="1.5"/><text text-anchor="middle" dominant-baseline="middle" font-size="13" font-weight="700" fill="#232323">7-依然范特西</text></g>
<g transform="translate(34 -171)"><rect x="-54" y="-17" width="108" height="34" rx="6" fill="#ffffff" stroke="#d9a441" stroke-width="1.5"/><text text-anchor="middle" dominant-baseline="middle" font-size="13" font-weight="700" fill="#232323">2006</text></g>
<g transform="translate(34 -129)"><rect x="-54" y="-17" width="108" height="34" rx="6" fill="#ffffff" stroke="#d9a441" stroke-width="1.5"/><text text-anchor="middle" dominant-baseline="middle" font-size="13" font-weight="700" fill="#232323">夜的第七章</text></g>
<g transform="translate(34 -87)"><rect x="-54" y="-17" width="108" height="34" rx="6" fill="#ffffff" stroke="#d9a441" stroke-width="1.5"/><text text-anchor="middle" dominant-baseline="middle" font-size="13" font-weight="700" fill="#232323">听妈妈的话</text></g>
<g transform="translate(688 -151)"><rect x="-54" y="-17" width="108" height="34" rx="6" fill="#ffffff" stroke="#d9a441" stroke-width="1.5"/><text text-anchor="middle" dominant-baseline="middle" font-size="13" font-weight="700" fill="#232323">8-我很忙</text></g>
<g transform="translate(866 -193)"><rect x="-54" y="-17" width="108" height="34" rx="6" fill="#ffffff" stroke="#d9a441" stroke-width="1.5"/><text text-anchor="middle" dominant-baseline="middle" font-size="13" font-weight="700" fill="#232323">2007</text></g>
<g transform="translate(866 -151)"><rect x="-54" y="-17" width="108" height="34" rx="6" fill="#ffffff" stroke="#d9a441" stroke-width="1.5"/><text text-anchor="middle" dominant-baseline="middle" font-size="13" font-weight="700" fill="#232323">牛仔很忙</text></g>
<g transform="translate(866 -109)"><rect x="-54" y="-17" width="108" height="34" rx="6" fill="#ffffff" stroke="#d9a441" stroke-width="1.5"/><text text-anchor="middle" dominant-baseline="middle" font-size="13" font-weight="700" fill="#232323">彩虹</text></g>
<g transform="translate(98.34835164602202 516.7959636416969)"><rect x="-54" y="-17" width="108" height="34" rx="6" fill="#ffffff" stroke="#9a7b4f" stroke-width="1.5"/><text text-anchor="middle" dominant-baseline="middle" font-size="13" font-weight="700" fill="#232323">出生：1979 年 1 月 18 日，出生于台湾台北县林口</text></g>
<g transform="translate(98.34835164602202 586.7959636416969)"><rect x="-54" y="-17" width="108" height="34" rx="6" fill="#ffffff" stroke="#9a7b4f" stroke-width="1.5"/><text text-anchor="middle" dominant-baseline="middle" font-size="13" font-weight="700" fill="#232323">父亲：周耀中，据公开资料，曾任中学教师，后也被资料称为生物医学研究者</text></g>
<g transform="translate(98.34835164602202 656.7959636416969)"><rect x="-54" y="-17" width="108" height="34" rx="6" fill="#ffffff" stroke="#9a7b4f" stroke-width="1.5"/><text text-anchor="middle" dominant-baseline="middle" font-size="13" font-weight="700" fill="#232323">母亲：叶惠美，美术教师。周杰伦 2003 年专辑《叶惠美》即以母亲名字命名</text></g>
<g transform="translate(98.34835164602202 726.7959636416969)"><rect x="-54" y="-17" width="108" height="34" rx="6" fill="#ffffff" stroke="#9a7b4f" stroke-width="1.5"/><text text-anchor="middle" dominant-baseline="middle" font-size="13" font-weight="700" fill="#232323">婚姻：2015 年与昆凌举行婚礼</text></g>
<g transform="translate(801.651648353978 551.7959636416969)"><rect x="-54" y="-17" width="108" height="34" rx="6" fill="#ffffff" stroke="#9a7b4f" stroke-width="1.5"/><text text-anchor="middle" dominant-baseline="middle" font-size="13" font-weight="700" fill="#232323">4 岁：母亲发现他对音乐敏感，带他学钢琴</text></g>
<g transform="translate(801.651648353978 621.7959636416969)"><rect x="-54" y="-17" width="108" height="34" rx="6" fill="#ffffff" stroke="#9a7b4f" stroke-width="1.5"/><text text-anchor="middle" dominant-baseline="middle" font-size="13" font-weight="700" fill="#232323">小学三年级左右：开始接触音乐理论，也学习大提琴</text></g>
<g transform="translate(801.651648353978 691.7959636416969)"><rect x="-54" y="-17" width="108" height="34" rx="6" fill="#ffffff" stroke="#9a7b4f" stroke-width="1.5"/><text text-anchor="middle" dominant-baseline="middle" font-size="13" font-weight="700" fill="#232323">中学时期：就读淡江中学音乐科，主修钢琴、副修大提琴；开始写歌、即兴创作</text></g>
<g transform="translate(-147.77338889933662 818.495448921213)"><rect x="-54" y="-17" width="108" height="34" rx="6" fill="#ffffff" stroke="#9a7b4f" stroke-width="1.5"/><text text-anchor="middle" dominant-baseline="middle" font-size="13" font-weight="700" fill="#232323">主要舆论新闻</text></g>
<g transform="translate(-397.7733888993366 748.495448921213)"><rect x="-54" y="-17" width="108" height="34" rx="6" fill="#ffffff" stroke="#9a7b4f" stroke-width="1.5"/><text text-anchor="middle" dominant-baseline="middle" font-size="13" font-weight="700" fill="#232323">与蔡依林的绯闻/旧情</text></g>
<g transform="translate(-397.7733888993366 818.495448921213)"><rect x="-54" y="-17" width="108" height="34" rx="6" fill="#ffffff" stroke="#9a7b4f" stroke-width="1.5"/><text text-anchor="middle" dominant-baseline="middle" font-size="13" font-weight="700" fill="#232323">与侯佩岑的恋情</text></g>
<g transform="translate(-397.7733888993366 888.495448921213)"><rect x="-54" y="-17" width="108" height="34" rx="6" fill="#ffffff" stroke="#9a7b4f" stroke-width="1.5"/><text text-anchor="middle" dominant-baseline="middle" font-size="13" font-weight="700" fill="#232323">与吴宗宪的恩怨</text></g>
<g transform="translate(1047.7733888993366 818.495448921213)"><rect x="-54" y="-17" width="108" height="34" rx="6" fill="#ffffff" stroke="#9a7b4f" stroke-width="1.5"/><text text-anchor="middle" dominant-baseline="middle" font-size="13" font-weight="700" fill="#232323">关键合作者</text></g>
<g transform="translate(1297.7733888993366 748.495448921213)"><rect x="-54" y="-17" width="108" height="34" rx="6" fill="#ffffff" stroke="#9a7b4f" stroke-width="1.5"/><text text-anchor="middle" dominant-baseline="middle" font-size="13" font-weight="700" fill="#232323">方文山：词作、中国风、叙事歌词</text></g>
<g transform="translate(1297.7733888993366 818.495448921213)"><rect x="-54" y="-17" width="108" height="34" rx="6" fill="#ffffff" stroke="#9a7b4f" stroke-width="1.5"/><text text-anchor="middle" dominant-baseline="middle" font-size="13" font-weight="700" fill="#232323">钟兴民：编曲、弦乐、东方/电影感</text></g>
<g transform="translate(1297.7733888993366 888.495448921213)"><rect x="-54" y="-17" width="108" height="34" rx="6" fill="#ffffff" stroke="#9a7b4f" stroke-width="1.5"/><text text-anchor="middle" dominant-baseline="middle" font-size="13" font-weight="700" fill="#232323">林迈可：编曲、R&amp;B/电子/嘻哈质感</text></g>
<g transform="translate(-154.7934983253981 495.2307956661598)"><rect x="-54" y="-17" width="108" height="34" rx="6" fill="#ffffff" stroke="#9a7b4f" stroke-width="1.5"/><text text-anchor="middle" dominant-baseline="middle" font-size="13" font-weight="700" fill="#232323">音乐养分</text></g>
<g transform="translate(-404.7934983253981 468)"><rect x="-54" y="-17" width="108" height="34" rx="6" fill="#ffffff" stroke="#9a7b4f" stroke-width="1.5"/><text text-anchor="middle" dominant-baseline="middle" font-size="13" font-weight="700" fill="#232323">古典音乐：钢琴、大提琴、音乐科训练</text></g>
<g transform="translate(-404.7934983253981 538)"><rect x="-54" y="-17" width="108" height="34" rx="6" fill="#ffffff" stroke="#9a7b4f" stroke-width="1.5"/><text text-anchor="middle" dominant-baseline="middle" font-size="13" font-weight="700" fill="#232323">R&amp;B / Hip-hop：早期曲风核心</text></g>
<g transform="translate(-404.7934983253981 608)"><rect x="-54" y="-17" width="108" height="34" rx="6" fill="#ffffff" stroke="#9a7b4f" stroke-width="1.5"/><text text-anchor="middle" dominant-baseline="middle" font-size="13" font-weight="700" fill="#232323">中国风：传统意象、五声音阶、戏曲/古典文本感</text></g>
<g transform="translate(1054.793498325398 495.2307956661598)"><rect x="-54" y="-17" width="108" height="34" rx="6" fill="#ffffff" stroke="#9a7b4f" stroke-width="1.5"/><text text-anchor="middle" dominant-baseline="middle" font-size="13" font-weight="700" fill="#232323">商业与产业</text></g>
<g transform="translate(1044 101)"><rect x="-54" y="-17" width="108" height="34" rx="6" fill="#ffffff" stroke="#7fb069" stroke-width="1.5"/><text text-anchor="middle" dominant-baseline="middle" font-size="13" font-weight="700" fill="#232323">最爱</text></g>
</svg>
