<svg xmlns="http://www.w3.org/2000/svg" viewBox="-740.4 -120 1364.4 1097.3" width="1364.4" height="1097.3">
  <rect x="-740.4" y="-120" width="1364.4" height="1097.3" fill="#fffcf6"/>
  <text x="-716.4" y="-84" font-size="18" font-weight="700" fill="#2f241b">root-left-dense.nt</text>
  <line x1="-740.4" y1="390" x2="624.0000000000001" y2="390" stroke="#d8cab7" stroke-dasharray="6 6"/>
  <path d="M 446 407 C 443.28 535.3530854217091, 484 558.2732792470143, 412 636.201938253052" fill="none" stroke="#6d6d6d" stroke-width="1.4"/>
<path d="M 446 407 C 437.79251139326533 594.4404006677448, 415.4063924158169 627.9119007869849, 343.4063924158169 741.7150011924014" fill="none" stroke="#6d6d6d" stroke-width="1.4"/>
<path d="M 442 401 C 422 647.0336279740086, 240.45397447698852 690.9682043979386, 94.50685254653195 840.3457642393009" fill="none" stroke="#6d6d6d" stroke-width="1.4"/>
<path d="M 442 395 C 422 564.4021692298647, 101.66932667740286 594.6525565923405, -78.33067332259714 697.5038736247584" fill="none" stroke="#6d6d6d" stroke-width="1.4"/>
<path d="M 445 390 C 425 486.87021498581043, -133.81880381052633 504.168467661848, -313.81880381052633 562.9825267603758" fill="none" stroke="#6d6d6d" stroke-width="1.4"/>
<path d="M 445 390 C 425 421.36, -328.38534446226765 426.96, -508.38534446226765 446" fill="none" stroke="#6d6d6d" stroke-width="1.4"/>
  <path d="M 450 346 C 449 420, 452 292, 450 420" fill="none" stroke="#705e51" stroke-width="8" stroke-linecap="round" opacity="0.84"/><path d="M 450 410 C 432 417, 408 420, 374 424" fill="none" stroke="#705e51" stroke-width="5.2" stroke-linecap="round" opacity="0.62"/><path d="M 450 410 C 468 417, 492 420, 526 424" fill="none" stroke="#705e51" stroke-width="5.2" stroke-linecap="round" opacity="0.62"/><path d="M 450 399 C 444 408, 442 415, 450 424 C 458 415, 456 408, 450 399" fill="rgba(112, 94, 81, 0.28)" stroke="none"/>
<g transform="translate(354 636.201938253052)"><rect x="-54" y="-17" width="108" height="34" rx="6" fill="#ffffff" stroke="#9a7b4f" stroke-width="1.5"/><text text-anchor="middle" dominant-baseline="middle" font-size="13" font-weight="700" fill="#232323">左主根</text></g>
<g transform="translate(285.4063924158169 741.7150011924014)"><rect x="-54" y="-17" width="108" height="34" rx="6" fill="#ffffff" stroke="#9a7b4f" stroke-width="1.5"/><text text-anchor="middle" dominant-baseline="middle" font-size="13" font-weight="700" fill="#232323">左主根</text></g>
<g transform="translate(36.506852546531945 840.3457642393009)"><rect x="-54" y="-17" width="108" height="34" rx="6" fill="#ffffff" stroke="#9a7b4f" stroke-width="1.5"/><text text-anchor="middle" dominant-baseline="middle" font-size="13" font-weight="700" fill="#232323">左主根</text></g>
<g transform="translate(-136.33067332259714 697.5038736247584)"><rect x="-54" y="-17" width="108" height="34" rx="6" fill="#ffffff" stroke="#9a7b4f" stroke-width="1.5"/><text text-anchor="middle" dominant-baseline="middle" font-size="13" font-weight="700" fill="#232323">左主根</text></g>
<g transform="translate(-371.81880381052633 562.9825267603758)"><rect x="-54" y="-17" width="108" height="34" rx="6" fill="#ffffff" stroke="#9a7b4f" stroke-width="1.5"/><text text-anchor="middle" dominant-baseline="middle" font-size="13" font-weight="700" fill="#232323">左主根</text></g>
<g transform="translate(-566.3853444622677 446)"><rect x="-54" y="-17" width="108" height="34" rx="6" fill="#ffffff" stroke="#9a7b4f" stroke-width="1.5"/><text text-anchor="middle" dominant-baseline="middle" font-size="13" font-weight="700" fill="#232323">左主根</text></g>
</svg>
