<svg xmlns="http://www.w3.org/2000/svg" viewBox="-743.5 -120 2561.5 1480.8" width="2561.5" height="1480.8">
  <rect x="-743.5" y="-120" width="2561.5" height="1480.8" fill="#fffcf6"/>
  <text x="-719.5" y="-84" font-size="18" font-weight="700" fill="#2f241b">root-with-children.nt</text>
  <line x1="-743.5" y1="390" x2="1818" y2="390" stroke="#d8cab7" stroke-dasharray="6 6"/>
  <path d="M 446 407 C 443.28 535.3530854217091, 484 558.2732792470143, 412 636.201938253052" fill="none" stroke="#6d6d6d" stroke-width="1.4"/>
<path d="M 446 407 C 429.39746708018083 726.4294483879478, 325.6316363313111 783.470421314367, 238.4683385022605 977.4097292641924" fill="none" stroke="#6d6d6d" stroke-width="1.4"/>
<path d="M 442 401 C 422 861.7727567439563, -70.76454033463904 944.0536061625198, -250.76454033463904 1223.8084941856362" fill="none" stroke="#6d6d6d" stroke-width="1.4"/>
<path d="M 442 395 C 422 564.4021692298647, 101.66932667740286 594.6525565923405, -78.33067332259714 697.5038736247584" fill="none" stroke="#6d6d6d" stroke-width="1.4"/>
<path d="M 445 390 C 425 486.87021498581043, -133.81880381052633 504.168467661848, -313.81880381052633 562.9825267603758" fill="none" stroke="#6d6d6d" stroke-width="1.4"/>
<path d="M 445 390 C 425 421.36, -328.38534446226765 426.96, -508.38534446226765 446" fill="none" stroke="#6d6d6d" stroke-width="1.4"/>
<path d="M 454 407 C 456.72 536.1175296238199, 416 559.1742313423591, 488 637.5670171853926" fill="none" stroke="#6d6d6d" stroke-width="1.4"/>
<path d="M 454 407 C 460.2142204144306 600.0777290414419, 459.6777551803825 634.5558949416993, 531.6777551803825 751.7816590025748" fill="none" stroke="#6d6d6d" stroke-width="1.4"/>
<path d="M 454 407 C 471.7246413921013 644.4316056007513, 582.5036500927347 686.8301066008854, 675.5580174012666 830.9850100013416" fill="none" stroke="#6d6d6d" stroke-width="1.4"/>
<path d="M 458 401 C 478 672.5024364146718, 770.6703156787491 720.9850143458632, 950.6703156787491 885.825779311914" fill="none" stroke="#6d6d6d" stroke-width="1.4"/>
<path d="M 458 395 C 478 596.445884711967, 967.796646520907 632.4183641248181, 1147.796646520907 754.7247941285124" fill="none" stroke="#6d6d6d" stroke-width="1.4"/>
<path d="M 455 390 C 475 507.47842177966675, 1206.95092914041 528.4567113831787, 1386.95092914041 599.7828960351192" fill="none" stroke="#6d6d6d" stroke-width="1.4"/>
<path d="M 455 390 C 475 421.36, 1406 426.96, 1586 446" fill="none" stroke="#6d6d6d" stroke-width="1.4"/>
<path d="M 300 636.201938253052 L 229 636.201938253052 L 229 531.201938253052 L 158 531.201938253052" fill="none" stroke="#6d6d6d" stroke-width="1.4"/>
<path d="M 300 636.201938253052 L 229 636.201938253052 L 229 601.201938253052 L 158 601.201938253052" fill="none" stroke="#6d6d6d" stroke-width="1.4"/>
<path d="M 300 636.201938253052 L 229 636.201938253052 L 229 671.201938253052 L 158 671.201938253052" fill="none" stroke="#6d6d6d" stroke-width="1.4"/>
<path d="M 300 636.201938253052 L 229 636.201938253052 L 229 741.201938253052 L 158 741.201938253052" fill="none" stroke="#6d6d6d" stroke-width="1.4"/>
<path d="M 126.46833850226051 977.4097292641924 L 55.46833850226051 977.4097292641924 L 55.46833850226051 872.4097292641924 L -15.531661497739492 872.4097292641924" fill="none" stroke="#6d6d6d" stroke-width="1.4"/>
<path d="M 126.46833850226051 977.4097292641924 L 55.46833850226051 977.4097292641924 L 55.46833850226051 942.4097292641924 L -15.531661497739492 942.4097292641924" fill="none" stroke="#6d6d6d" stroke-width="1.4"/>
<path d="M 126.46833850226051 977.4097292641924 L 55.46833850226051 977.4097292641924 L 55.46833850226051 1012.4097292641924 L -15.531661497739492 1012.4097292641924" fill="none" stroke="#6d6d6d" stroke-width="1.4"/>
<path d="M 126.46833850226051 977.4097292641924 L 55.46833850226051 977.4097292641924 L 55.46833850226051 1082.4097292641923 L -15.531661497739492 1082.4097292641923" fill="none" stroke="#6d6d6d" stroke-width="1.4"/>
<path d="M -123.53166149773949 1012.4097292641924 L -194.5316614977395 1012.4097292641924 L -194.5316614977395 1012.4097292641924 L -265.5316614977395 1012.4097292641924" fill="none" stroke="#6d6d6d" stroke-width="1.4"/>
<path d="M -373.5316614977395 1012.4097292641924 L -444.5316614977395 1012.4097292641924 L -444.5316614977395 1012.4097292641924 L -515.5316614977395 1012.4097292641924" fill="none" stroke="#6d6d6d" stroke-width="1.4"/>
  <path d="M 450 346 C 449 420, 452 292, 450 420" fill="none" stroke="#705e51" stroke-width="8" stroke-linecap="round" opacity="0.84"/><path d="M 450 410 C 432 417, 408 420, 374 424" fill="none" stroke="#705e51" stroke-width="5.2" stroke-linecap="round" opacity="0.62"/><path d="M 450 410 C 468 417, 492 420, 526 424" fill="none" stroke="#705e51" stroke-width="5.2" stroke-linecap="round" opacity="0.62"/><path d="M 450 399 C 444 408, 442 415, 450 424 C 458 415, 456 408, 450 399" fill="rgba(112, 94, 81, 0.28)" stroke="none"/>
<g transform="translate(354 636.201938253052)"><rect x="-54" y="-17" width="108" height="34" rx="6" fill="#ffffff" stroke="#9a7b4f" stroke-width="1.5"/><text text-anchor="middle" dominant-baseline="middle" font-size="13" font-weight="700" fill="#232323">左主根</text></g>
<g transform="translate(180.4683385022605 977.4097292641924)"><rect x="-54" y="-17" width="108" height="34" rx="6" fill="#ffffff" stroke="#9a7b4f" stroke-width="1.5"/><text text-anchor="middle" dominant-baseline="middle" font-size="13" font-weight="700" fill="#232323">左主根</text></g>
<g transform="translate(-308.76454033463904 1223.8084941856362)"><rect x="-54" y="-17" width="108" height="34" rx="6" fill="#ffffff" stroke="#9a7b4f" stroke-width="1.5"/><text text-anchor="middle" dominant-baseline="middle" font-size="13" font-weight="700" fill="#232323">左主根</text></g>
<g transform="translate(-136.33067332259714 697.5038736247584)"><rect x="-54" y="-17" width="108" height="34" rx="6" fill="#ffffff" stroke="#9a7b4f" stroke-width="1.5"/><text text-anchor="middle" dominant-baseline="middle" font-size="13" font-weight="700" fill="#232323">左主根</text></g>
<g transform="translate(-371.81880381052633 562.9825267603758)"><rect x="-54" y="-17" width="108" height="34" rx="6" fill="#ffffff" stroke="#9a7b4f" stroke-width="1.5"/><text text-anchor="middle" dominant-baseline="middle" font-size="13" font-weight="700" fill="#232323">左主根</text></g>
<g transform="translate(-566.3853444622677 446)"><rect x="-54" y="-17" width="108" height="34" rx="6" fill="#ffffff" stroke="#9a7b4f" stroke-width="1.5"/><text text-anchor="middle" dominant-baseline="middle" font-size="13" font-weight="700" fill="#232323">左主根</text></g>
<g transform="translate(546 637.5670171853926)"><rect x="-54" y="-17" width="108" height="34" rx="6" fill="#ffffff" stroke="#9a7b4f" stroke-width="1.5"/><text text-anchor="middle" dominant-baseline="middle" font-size="13" font-weight="700" fill="#232323">右主根</text></g>
<g transform="translate(589.6777551803825 751.7816590025748)"><rect x="-54" y="-17" width="108" height="34" rx="6" fill="#ffffff" stroke="#9a7b4f" stroke-width="1.5"/><text text-anchor="middle" dominant-baseline="middle" font-size="13" font-weight="700" fill="#232323">右主根</text></g>
<g transform="translate(733.5580174012666 830.9850100013416)"><rect x="-54" y="-17" width="108" height="34" rx="6" fill="#ffffff" stroke="#9a7b4f" stroke-width="1.5"/><text text-anchor="middle" dominant-baseline="middle" font-size="13" font-weight="700" fill="#232323">右主根</text></g>
<g transform="translate(1008.6703156787491 885.825779311914)"><rect x="-54" y="-17" width="108" height="34" rx="6" fill="#ffffff" stroke="#9a7b4f" stroke-width="1.5"/><text text-anchor="middle" dominant-baseline="middle" font-size="13" font-weight="700" fill="#232323">右主根</text></g>
<g transform="translate(1205.796646520907 754.7247941285124)"><rect x="-54" y="-17" width="108" height="34" rx="6" fill="#ffffff" stroke="#9a7b4f" stroke-width="1.5"/><text text-anchor="middle" dominant-baseline="middle" font-size="13" font-weight="700" fill="#232323">右主根</text></g>
<g transform="translate(1444.95092914041 599.7828960351192)"><rect x="-54" y="-17" width="108" height="34" rx="6" fill="#ffffff" stroke="#9a7b4f" stroke-width="1.5"/><text text-anchor="middle" dominant-baseline="middle" font-size="13" font-weight="700" fill="#232323">右主根</text></g>
<g transform="translate(1644 446)"><rect x="-54" y="-17" width="108" height="34" rx="6" fill="#ffffff" stroke="#9a7b4f" stroke-width="1.5"/><text text-anchor="middle" dominant-baseline="middle" font-size="13" font-weight="700" fill="#232323">右主根</text></g>
<g transform="translate(104 531.201938253052)"><rect x="-54" y="-17" width="108" height="34" rx="6" fill="#ffffff" stroke="#9a7b4f" stroke-width="1.5"/><text text-anchor="middle" dominant-baseline="middle" font-size="13" font-weight="700" fill="#232323">子根系</text></g>
<g transform="translate(104 601.201938253052)"><rect x="-54" y="-17" width="108" height="34" rx="6" fill="#ffffff" stroke="#9a7b4f" stroke-width="1.5"/><text text-anchor="middle" dominant-baseline="middle" font-size="13" font-weight="700" fill="#232323">子根系</text></g>
<g transform="translate(104 671.201938253052)"><rect x="-54" y="-17" width="108" height="34" rx="6" fill="#ffffff" stroke="#9a7b4f" stroke-width="1.5"/><text text-anchor="middle" dominant-baseline="middle" font-size="13" font-weight="700" fill="#232323">子根系</text></g>
<g transform="translate(104 741.201938253052)"><rect x="-54" y="-17" width="108" height="34" rx="6" fill="#ffffff" stroke="#9a7b4f" stroke-width="1.5"/><text text-anchor="middle" dominant-baseline="middle" font-size="13" font-weight="700" fill="#232323">子根系</text></g>
<g transform="translate(-69.53166149773949 872.4097292641924)"><rect x="-54" y="-17" width="108" height="34" rx="6" fill="#ffffff" stroke="#9a7b4f" stroke-width="1.5"/><text text-anchor="middle" dominant-baseline="middle" font-size="13" font-weight="700" fill="#232323">子根系</text></g>
<g transform="translate(-69.53166149773949 942.4097292641924)"><rect x="-54" y="-17" width="108" height="34" rx="6" fill="#ffffff" stroke="#9a7b4f" stroke-width="1.5"/><text text-anchor="middle" dominant-baseline="middle" font-size="13" font-weight="700" fill="#232323">子根系</text></g>
<g transform="translate(-69.53166149773949 1012.4097292641924)"><rect x="-54" y="-17" width="108" height="34" rx="6" fill="#ffffff" stroke="#9a7b4f" stroke-width="1.5"/><text text-anchor="middle" dominant-baseline="middle" font-size="13" font-weight="700" fill="#232323">子根系</text></g>
<g transform="translate(-69.53166149773949 1082.4097292641923)"><rect x="-54" y="-17" width="108" height="34" rx="6" fill="#ffffff" stroke="#9a7b4f" stroke-width="1.5"/><text text-anchor="middle" dominant-baseline="middle" font-size="13" font-weight="700" fill="#232323">子根系</text></g>
<g transform="translate(-319.5316614977395 1012.4097292641924)"><rect x="-54" y="-17" width="108" height="34" rx="6" fill="#ffffff" stroke="#9a7b4f" stroke-width="1.5"/><text text-anchor="middle" dominant-baseline="middle" font-size="13" font-weight="700" fill="#232323">子根系</text></g>
<g transform="translate(-569.5316614977395 1012.4097292641924)"><rect x="-54" y="-17" width="108" height="34" rx="6" fill="#ffffff" stroke="#9a7b4f" stroke-width="1.5"/><text text-anchor="middle" dominant-baseline="middle" font-size="13" font-weight="700" fill="#232323">子根系</text></g>
</svg>
