<svg xmlns="http://www.w3.org/2000/svg" viewBox="-740.4 -120 2558.4 1142.8" width="2558.4" height="1142.8">
  <rect x="-740.4" y="-120" width="2558.4" height="1142.8" fill="#fffcf6"/>
  <text x="-716.4" y="-84" font-size="18" font-weight="700" fill="#2f241b">root-balanced.nt</text>
  <line x1="-740.4" y1="390" x2="1818" y2="390" stroke="#d8cab7" stroke-dasharray="6 6"/>
  <path d="M 446 407 C 443.28 535.3530854217091, 484 558.2732792470143, 412 636.201938253052" fill="none" stroke="#6d6d6d" stroke-width="1.4"/>
<path d="M 446 407 C 437.79251139326533 594.4404006677448, 415.4063924158169 627.9119007869849, 343.4063924158169 741.7150011924014" fill="none" stroke="#6d6d6d" stroke-width="1.4"/>
<path d="M 442 401 C 422 647.0336279740086, 240.45397447698852 690.9682043979386, 94.50685254653195 840.3457642393009" fill="none" stroke="#6d6d6d" stroke-width="1.4"/>
<path d="M 442 395 C 422 564.4021692298647, 101.66932667740286 594.6525565923405, -78.33067332259714 697.5038736247584" fill="none" stroke="#6d6d6d" stroke-width="1.4"/>
<path d="M 445 390 C 425 486.87021498581043, -133.81880381052633 504.168467661848, -313.81880381052633 562.9825267603758" fill="none" stroke="#6d6d6d" stroke-width="1.4"/>
<path d="M 445 390 C 425 421.36, -328.38534446226765 426.96, -508.38534446226765 446" fill="none" stroke="#6d6d6d" stroke-width="1.4"/>
<path d="M 454 407 C 456.72 536.1175296238199, 416 559.1742313423591, 488 637.5670171853926" fill="none" stroke="#6d6d6d" stroke-width="1.4"/>
<path d="M 454 407 C 460.2142204144306 600.0777290414419, 459.6777551803825 634.5558949416993, 531.6777551803825 751.7816590025748" fill="none" stroke="#6d6d6d" stroke-width="1.4"/>
<path d="M 454 407 C 471.7246413921013 644.4316056007513, 582.5036500927347 686.8301066008854, 675.5580174012666 830.9850100013416" fill="none" stroke="#6d6d6d" stroke-width="1.4"/>
<path d="M 458 401 C 478 672.5024364146718, 770.6703156787491 720.9850143458632, 950.6703156787491 885.825779311914" fill="none" stroke="#6d6d6d" stroke-width="1.4"/>
<path d="M 458 395 C 478 596.445884711967, 967.796646520907 632.4183641248181, 1147.796646520907 754.7247941285124" fill="none" stroke="#6d6d6d" stroke-width="1.4"/>
<path d="M 455 390 C 475 507.47842177966675, 1206.95092914041 528.4567113831787, 1386.95092914041 599.7828960351192" fill="none" stroke="#6d6d6d" stroke-width="1.4"/>
<path d="M 455 390 C 475 421.36, 1406 426.96, 1586 446" fill="none" stroke="#6d6d6d" stroke-width="1.4"/>
  <path d="M 450 346 C 449 420, 452 292, 450 420" fill="none" stroke="#705e51" stroke-width="8" stroke-linecap="round" opacity="0.84"/><path d="M 450 410 C 432 417, 408 420, 374 424" fill="none" stroke="#705e51" stroke-width="5.2" stroke-linecap="round" opacity="0.62"/><path d="M 450 410 C 468 417, 492 420, 526 424" fill="none" stroke="#705e51" stroke-width="5.2" stroke-linecap="round" opacity="0.62"/><path d="M 450 399 C 444 408, 442 415, 450 424 C 458 415, 456 408, 450 399" fill="rgba(112, 94, 81, 0.28)" stroke="none"/>
<g transform="translate(354 636.201938253052)"><rect x="-54" y="-17" width="108" height="34" rx="6" fill="#ffffff" stroke="#9a7b4f" stroke-width="1.5"/><text text-anchor="middle" dominant-baseline="middle" font-size="13" font-weight="700" fill="#232323">左主根</text></g>
<g transform="translate(285.4063924158169 741.7150011924014)"><rect x="-54" y="-17" width="108" height="34" rx="6" fill="#ffffff" stroke="#9a7b4f" stroke-width="1.5"/><text text-anchor="middle" dominant-baseline="middle" font-size="13" font-weight="700" fill="#232323">左主根</text></g>
<g transform="translate(36.506852546531945 840.3457642393009)"><rect x="-54" y="-17" width="108" height="34" rx="6" fill="#ffffff" stroke="#9a7b4f" stroke-width="1.5"/><text text-anchor="middle" dominant-baseline="middle" font-size="13" font-weight="700" fill="#232323">左主根</text></g>
<g transform="translate(-136.33067332259714 697.5038736247584)"><rect x="-54" y="-17" width="108" height="34" rx="6" fill="#ffffff" stroke="#9a7b4f" stroke-width="1.5"/><text text-anchor="middle" dominant-baseline="middle" font-size="13" font-weight="700" fill="#232323">左主根</text></g>
<g transform="translate(-371.81880381052633 562.9825267603758)"><rect x="-54" y="-17" width="108" height="34" rx="6" fill="#ffffff" stroke="#9a7b4f" stroke-width="1.5"/><text text-anchor="middle" dominant-baseline="middle" font-size="13" font-weight="700" fill="#232323">左主根</text></g>
<g transform="translate(-566.3853444622677 446)"><rect x="-54" y="-17" width="108" height="34" rx="6" fill="#ffffff" stroke="#9a7b4f" stroke-width="1.5"/><text text-anchor="middle" dominant-baseline="middle" font-size="13" font-weight="700" fill="#232323">左主根</text></g>
<g transform="translate(546 637.5670171853926)"><rect x="-54" y="-17" width="108" height="34" rx="6" fill="#ffffff" stroke="#9a7b4f" stroke-width="1.5"/><text text-anchor="middle" dominant-baseline="middle" font-size="13" font-weight="700" fill="#232323">右主根</text></g>
<g transform="translate(589.6777551803825 751.7816590025748)"><rect x="-54" y="-17" width="108" height="34" rx="6" fill="#ffffff" stroke="#9a7b4f" stroke-width="1.5"/><text text-anchor="middle" dominant-baseline="middle" font-size="13" font-weight="700" fill="#232323">右主根</text></g>
<g transform="translate(733.5580174012666 830.9850100013416)"><rect x="-54" y="-17" width="108" height="34" rx="6" fill="#ffffff" stroke="#9a7b4f" stroke-width="1.5"/><text text-anchor="middle" dominant-baseline="middle" font-size="13" font-weight="700" fill="#232323">右主根</text></g>
<g transform="translate(1008.6703156787491 885.825779311914)"><rect x="-54" y="-17" width="108" height="34" rx="6" fill="#ffffff" stroke="#9a7b4f" stroke-width="1.5"/><text text-anchor="middle" dominant-baseline="middle" font-size="13" font-weight="700" fill="#232323">右主根</text></g>
<g transform="translate(1205.796646520907 754.7247941285124)"><rect x="-54" y="-17" width="108" height="34" rx="6" fill="#ffffff" stroke="#9a7b4f" stroke-width="1.5"/><text text-anchor="middle" dominant-baseline="middle" font-size="13" font-weight="700" fill="#232323">右主根</text></g>
<g transform="translate(1444.95092914041 599.7828960351192)"><rect x="-54" y="-17" width="108" height="34" rx="6" fill="#ffffff" stroke="#9a7b4f" stroke-width="1.5"/><text text-anchor="middle" dominant-baseline="middle" font-size="13" font-weight="700" fill="#232323">右主根</text></g>
<g transform="translate(1644 446)"><rect x="-54" y="-17" width="108" height="34" rx="6" fill="#ffffff" stroke="#9a7b4f" stroke-width="1.5"/><text text-anchor="middle" dominant-baseline="middle" font-size="13" font-weight="700" fill="#232323">右主根</text></g>
</svg>
