<svg xmlns="http://www.w3.org/2000/svg" viewBox="-740.4 -120 2558.4 1353" width="2558.4" height="1353">
  <rect x="-740.4" y="-120" width="2558.4" height="1353" fill="#fffcf6"/>
  <text x="-716.4" y="-84" font-size="18" font-weight="700" fill="#2f241b">root-with-children.nt</text>
  <line x1="-740.4" y1="390" x2="1818" y2="390" stroke="#d8cab7" stroke-dasharray="6 6"/>
  <path d="M 446 407 C 443.28 535.3530854217091, 484 558.2732792470143, 412 636.201938253052" fill="none" stroke="#6d6d6d" stroke-width="1.4"/>
<path d="M 446 407 C 432.19581518454237 682.4330991478801, 345.919660087932 731.617581138573, 273.4476898067793 898.8448199069287" fill="none" stroke="#6d6d6d" stroke-width="1.4"/>
<path d="M 442 401 C 422 790.1930471539738, 44.32592395908466 859.691805574326, -135.67407604091534 1095.9875842035244" fill="none" stroke="#6d6d6d" stroke-width="1.4"/>
<path d="M 442 395 C 422 564.4021692298647, 101.66932667740286 594.6525565923405, -78.33067332259714 697.5038736247584" fill="none" stroke="#6d6d6d" stroke-width="1.4"/>
<path d="M 445 390 C 425 486.87021498581043, -133.81880381052633 504.168467661848, -313.81880381052633 562.9825267603758" fill="none" stroke="#6d6d6d" stroke-width="1.4"/>
<path d="M 445 390 C 425 421.36, -328.38534446226765 426.96, -508.38534446226765 446" fill="none" stroke="#6d6d6d" stroke-width="1.4"/>
<path d="M 454 407 C 456.72 536.1175296238199, 416 559.1742313423591, 488 637.5670171853926" fill="none" stroke="#6d6d6d" stroke-width="1.4"/>
<path d="M 454 407 C 460.2142204144306 600.0777290414419, 459.6777551803825 634.5558949416993, 531.6777551803825 751.7816590025748" fill="none" stroke="#6d6d6d" stroke-width="1.4"/>
<path d="M 454 407 C 471.7246413921013 644.4316056007513, 582.5036500927347 686.8301066008854, 675.5580174012666 830.9850100013416" fill="none" stroke="#6d6d6d" stroke-width="1.4"/>
<path d="M 458 401 C 478 672.5024364146718, 770.6703156787491 720.9850143458632, 950.6703156787491 885.825779311914" fill="none" stroke="#6d6d6d" stroke-width="1.4"/>
<path d="M 458 395 C 478 596.445884711967, 967.796646520907 632.4183641248181, 1147.796646520907 754.7247941285124" fill="none" stroke="#6d6d6d" stroke-width="1.4"/>
<path d="M 455 390 C 475 507.47842177966675, 1206.95092914041 528.4567113831787, 1386.95092914041 599.7828960351192" fill="none" stroke="#6d6d6d" stroke-width="1.4"/>
<path d="M 455 390 C 475 421.36, 1406 426.96, 1586 446" fill="none" stroke="#6d6d6d" stroke-width="1.4"/>
<path d="M 300 636.201938253052 L 229 636.201938253052 L 229 555.201938253052 L 158 555.201938253052" fill="none" stroke="#6d6d6d" stroke-width="1.4"/>
<path d="M 300 636.201938253052 L 229 636.201938253052 L 229 609.201938253052 L 158 609.201938253052" fill="none" stroke="#6d6d6d" stroke-width="1.4"/>
<path d="M 300 636.201938253052 L 229 636.201938253052 L 229 663.201938253052 L 158 663.201938253052" fill="none" stroke="#6d6d6d" stroke-width="1.4"/>
<path d="M 300 636.201938253052 L 229 636.201938253052 L 229 717.201938253052 L 158 717.201938253052" fill="none" stroke="#6d6d6d" stroke-width="1.4"/>
<path d="M 161.4476898067793 898.8448199069287 L 90.4476898067793 898.8448199069287 L 90.4476898067793 817.8448199069287 L 19.447689806779294 817.8448199069287" fill="none" stroke="#6d6d6d" stroke-width="1.4"/>
<path d="M 161.4476898067793 898.8448199069287 L 90.4476898067793 898.8448199069287 L 90.4476898067793 871.8448199069287 L 19.447689806779294 871.8448199069287" fill="none" stroke="#6d6d6d" stroke-width="1.4"/>
<path d="M 161.4476898067793 898.8448199069287 L 90.4476898067793 898.8448199069287 L 90.4476898067793 925.8448199069287 L 19.447689806779294 925.8448199069287" fill="none" stroke="#6d6d6d" stroke-width="1.4"/>
<path d="M 161.4476898067793 898.8448199069287 L 90.4476898067793 898.8448199069287 L 90.4476898067793 979.8448199069287 L 19.447689806779294 979.8448199069287" fill="none" stroke="#6d6d6d" stroke-width="1.4"/>
<path d="M -88.5523101932207 925.8448199069287 L -159.5523101932207 925.8448199069287 L -159.5523101932207 925.8448199069287 L -230.5523101932207 925.8448199069287" fill="none" stroke="#6d6d6d" stroke-width="1.4"/>
<path d="M -338.5523101932207 925.8448199069287 L -409.5523101932207 925.8448199069287 L -409.5523101932207 925.8448199069287 L -480.5523101932207 925.8448199069287" fill="none" stroke="#6d6d6d" stroke-width="1.4"/>
  <path d="M 450 346 C 449 420, 452 292, 450 420" fill="none" stroke="#705e51" stroke-width="8" stroke-linecap="round" opacity="0.84"/><path d="M 450 410 C 432 417, 408 420, 374 424" fill="none" stroke="#705e51" stroke-width="5.2" stroke-linecap="round" opacity="0.62"/><path d="M 450 410 C 468 417, 492 420, 526 424" fill="none" stroke="#705e51" stroke-width="5.2" stroke-linecap="round" opacity="0.62"/><path d="M 450 399 C 444 408, 442 415, 450 424 C 458 415, 456 408, 450 399" fill="rgba(112, 94, 81, 0.28)" stroke="none"/>
<g transform="translate(354 636.201938253052)"><rect x="-54" y="-17" width="108" height="34" rx="6" fill="#ffffff" stroke="#9a7b4f" stroke-width="1.5"/><text text-anchor="middle" dominant-baseline="middle" font-size="13" font-weight="700" fill="#232323">左主根</text></g>
<g transform="translate(215.4476898067793 898.8448199069287)"><rect x="-54" y="-17" width="108" height="34" rx="6" fill="#ffffff" stroke="#9a7b4f" stroke-width="1.5"/><text text-anchor="middle" dominant-baseline="middle" font-size="13" font-weight="700" fill="#232323">左主根</text></g>
<g transform="translate(-193.67407604091534 1095.9875842035244)"><rect x="-54" y="-17" width="108" height="34" rx="6" fill="#ffffff" stroke="#9a7b4f" stroke-width="1.5"/><text text-anchor="middle" dominant-baseline="middle" font-size="13" font-weight="700" fill="#232323">左主根</text></g>
<g transform="translate(-136.33067332259714 697.5038736247584)"><rect x="-54" y="-17" width="108" height="34" rx="6" fill="#ffffff" stroke="#9a7b4f" stroke-width="1.5"/><text text-anchor="middle" dominant-baseline="middle" font-size="13" font-weight="700" fill="#232323">左主根</text></g>
<g transform="translate(-371.81880381052633 562.9825267603758)"><rect x="-54" y="-17" width="108" height="34" rx="6" fill="#ffffff" stroke="#9a7b4f" stroke-width="1.5"/><text text-anchor="middle" dominant-baseline="middle" font-size="13" font-weight="700" fill="#232323">左主根</text></g>
<g transform="translate(-566.3853444622677 446)"><rect x="-54" y="-17" width="108" height="34" rx="6" fill="#ffffff" stroke="#9a7b4f" stroke-width="1.5"/><text text-anchor="middle" dominant-baseline="middle" font-size="13" font-weight="700" fill="#232323">左主根</text></g>
<g transform="translate(546 637.5670171853926)"><rect x="-54" y="-17" width="108" height="34" rx="6" fill="#ffffff" stroke="#9a7b4f" stroke-width="1.5"/><text text-anchor="middle" dominant-baseline="middle" font-size="13" font-weight="700" fill="#232323">右主根</text></g>
<g transform="translate(589.6777551803825 751.7816590025748)"><rect x="-54" y="-17" width="108" height="34" rx="6" fill="#ffffff" stroke="#9a7b4f" stroke-width="1.5"/><text text-anchor="middle" dominant-baseline="middle" font-size="13" font-weight="700" fill="#232323">右主根</text></g>
<g transform="translate(733.5580174012666 830.9850100013416)"><rect x="-54" y="-17" width="108" height="34" rx="6" fill="#ffffff" stroke="#9a7b4f" stroke-width="1.5"/><text text-anchor="middle" dominant-baseline="middle" font-size="13" font-weight="700" fill="#232323">右主根</text></g>
<g transform="translate(1008.6703156787491 885.825779311914)"><rect x="-54" y="-17" width="108" height="34" rx="6" fill="#ffffff" stroke="#9a7b4f" stroke-width="1.5"/><text text-anchor="middle" dominant-baseline="middle" font-size="13" font-weight="700" fill="#232323">右主根</text></g>
<g transform="translate(1205.796646520907 754.7247941285124)"><rect x="-54" y="-17" width="108" height="34" rx="6" fill="#ffffff" stroke="#9a7b4f" stroke-width="1.5"/><text text-anchor="middle" dominant-baseline="middle" font-size="13" font-weight="700" fill="#232323">右主根</text></g>
<g transform="translate(1444.95092914041 599.7828960351192)"><rect x="-54" y="-17" width="108" height="34" rx="6" fill="#ffffff" stroke="#9a7b4f" stroke-width="1.5"/><text text-anchor="middle" dominant-baseline="middle" font-size="13" font-weight="700" fill="#232323">右主根</text></g>
<g transform="translate(1644 446)"><rect x="-54" y="-17" width="108" height="34" rx="6" fill="#ffffff" stroke="#9a7b4f" stroke-width="1.5"/><text text-anchor="middle" dominant-baseline="middle" font-size="13" font-weight="700" fill="#232323">右主根</text></g>
<g transform="translate(104 555.201938253052)"><rect x="-54" y="-17" width="108" height="34" rx="6" fill="#ffffff" stroke="#9a7b4f" stroke-width="1.5"/><text text-anchor="middle" dominant-baseline="middle" font-size="13" font-weight="700" fill="#232323">子根系</text></g>
<g transform="translate(104 609.201938253052)"><rect x="-54" y="-17" width="108" height="34" rx="6" fill="#ffffff" stroke="#9a7b4f" stroke-width="1.5"/><text text-anchor="middle" dominant-baseline="middle" font-size="13" font-weight="700" fill="#232323">子根系</text></g>
<g transform="translate(104 663.201938253052)"><rect x="-54" y="-17" width="108" height="34" rx="6" fill="#ffffff" stroke="#9a7b4f" stroke-width="1.5"/><text text-anchor="middle" dominant-baseline="middle" font-size="13" font-weight="700" fill="#232323">子根系</text></g>
<g transform="translate(104 717.201938253052)"><rect x="-54" y="-17" width="108" height="34" rx="6" fill="#ffffff" stroke="#9a7b4f" stroke-width="1.5"/><text text-anchor="middle" dominant-baseline="middle" font-size="13" font-weight="700" fill="#232323">子根系</text></g>
<g transform="translate(-34.552310193220706 817.8448199069287)"><rect x="-54" y="-17" width="108" height="34" rx="6" fill="#ffffff" stroke="#9a7b4f" stroke-width="1.5"/><text text-anchor="middle" dominant-baseline="middle" font-size="13" font-weight="700" fill="#232323">子根系</text></g>
<g transform="translate(-34.552310193220706 871.8448199069287)"><rect x="-54" y="-17" width="108" height="34" rx="6" fill="#ffffff" stroke="#9a7b4f" stroke-width="1.5"/><text text-anchor="middle" dominant-baseline="middle" font-size="13" font-weight="700" fill="#232323">子根系</text></g>
<g transform="translate(-34.552310193220706 925.8448199069287)"><rect x="-54" y="-17" width="108" height="34" rx="6" fill="#ffffff" stroke="#9a7b4f" stroke-width="1.5"/><text text-anchor="middle" dominant-baseline="middle" font-size="13" font-weight="700" fill="#232323">子根系</text></g>
<g transform="translate(-34.552310193220706 979.8448199069287)"><rect x="-54" y="-17" width="108" height="34" rx="6" fill="#ffffff" stroke="#9a7b4f" stroke-width="1.5"/><text text-anchor="middle" dominant-baseline="middle" font-size="13" font-weight="700" fill="#232323">子根系</text></g>
<g transform="translate(-284.5523101932207 925.8448199069287)"><rect x="-54" y="-17" width="108" height="34" rx="6" fill="#ffffff" stroke="#9a7b4f" stroke-width="1.5"/><text text-anchor="middle" dominant-baseline="middle" font-size="13" font-weight="700" fill="#232323">子根系</text></g>
<g transform="translate(-534.5523101932207 925.8448199069287)"><rect x="-54" y="-17" width="108" height="34" rx="6" fill="#ffffff" stroke="#9a7b4f" stroke-width="1.5"/><text text-anchor="middle" dominant-baseline="middle" font-size="13" font-weight="700" fill="#232323">子根系</text></g>
</svg>
