<svg xmlns="http://www.w3.org/2000/svg" viewBox="-582.0590453496648 -712 1959.7209056049142 1615.667231094482" width="1959.7209056049142" height="1615.667231094482">
  <rect x="-582.0590453496648" y="-712" width="1959.7209056049142" height="1615.667231094482" fill="#ffffff"/>
  <rect x="-582.0590453496648" y="390" width="1959.7209056049142" height="513.6672310944821" fill="#dedfdd"/>
  <text x="-556.0590453496648" y="-678" font-size="18" font-weight="800" fill="#1f2937">方向2C：有机树干-根线出口</text>
  <text x="-556.0590453496648" y="-654" font-size="13" font-weight="600" fill="#68707d">保留一体树干，同时强调根线从底部出口长出。</text>
  <path d="M 441 -482
    C 441 -489, 445 -492, 450 -492
    C 455 -492, 459 -489, 459 -482
    L 459 373
    C 465 388, 480 399, 506 414
    C 480 412, 465 410, 450 418
    C 435 410, 420 412, 394 414
    C 420 399, 435 388, 441 373
    Z" fill="#806b5d" stroke="rgba(47,36,27,0.22)" stroke-width="1"/>
      <path d="M 445 395 C 435 403, 422 408, 408 411" fill="none" stroke="#5f5045" stroke-width="4.5" stroke-linecap="round" opacity="0.55"/>
      <path d="M 455 395 C 465 403, 478 408, 492 411" fill="none" stroke="#5f5045" stroke-width="4.5" stroke-linecap="round" opacity="0.55"/>
  












































































  <path d="M 460 227 L 634 185" fill="none" stroke="#555" stroke-width="1.3"/>
<path d="M 742 185 L 777 185 L 777 101 L 812 101" fill="none" stroke="#555" stroke-width="1.3"/>
<path d="M 742 185 L 777 185 L 777 143 L 812 143" fill="none" stroke="#555" stroke-width="1.3"/>
<path d="M 742 185 L 777 185 L 777 185 L 812 185" fill="none" stroke="#555" stroke-width="1.3"/>
<path d="M 742 185 L 777 185 L 777 227 L 812 227" fill="none" stroke="#555" stroke-width="1.3"/>
<path d="M 742 185 L 777 185 L 777 269 L 812 269" fill="none" stroke="#555" stroke-width="1.3"/>
<path d="M 440 228 L 266 186" fill="none" stroke="#555" stroke-width="1.3"/>
<path d="M 158 186 L 123 186 L 123 81 L 88 81" fill="none" stroke="#555" stroke-width="1.3"/>
<path d="M 158 186 L 123 186 L 123 123 L 88 123" fill="none" stroke="#555" stroke-width="1.3"/>
<path d="M 158 186 L 123 186 L 123 165 L 88 165" fill="none" stroke="#555" stroke-width="1.3"/>
<path d="M 158 186 L 123 186 L 123 207 L 88 207" fill="none" stroke="#555" stroke-width="1.3"/>
<path d="M 158 186 L 123 186 L 123 249 L 88 249" fill="none" stroke="#555" stroke-width="1.3"/>
<path d="M 158 186 L 123 186 L 123 291 L 88 291" fill="none" stroke="#555" stroke-width="1.3"/>
<path d="M 460 38 L 634 -4" fill="none" stroke="#555" stroke-width="1.3"/>
<path d="M 742 -4 L 777 -4 L 777 -67 L 812 -67" fill="none" stroke="#555" stroke-width="1.3"/>
<path d="M 742 -4 L 777 -4 L 777 -25 L 812 -25" fill="none" stroke="#555" stroke-width="1.3"/>
<path d="M 742 -4 L 777 -4 L 777 17 L 812 17" fill="none" stroke="#555" stroke-width="1.3"/>
<path d="M 742 -4 L 777 -4 L 777 59 L 812 59" fill="none" stroke="#555" stroke-width="1.3"/>
<path d="M 440 -3 L 266 -45" fill="none" stroke="#555" stroke-width="1.3"/>
<path d="M 158 -45 L 123 -45 L 123 -129 L 88 -129" fill="none" stroke="#555" stroke-width="1.3"/>
<path d="M 158 -45 L 123 -45 L 123 -87 L 88 -87" fill="none" stroke="#555" stroke-width="1.3"/>
<path d="M 158 -45 L 123 -45 L 123 -45 L 88 -45" fill="none" stroke="#555" stroke-width="1.3"/>
<path d="M 158 -45 L 123 -45 L 123 -3 L 88 -3" fill="none" stroke="#555" stroke-width="1.3"/>
<path d="M 158 -45 L 123 -45 L 123 39 L 88 39" fill="none" stroke="#555" stroke-width="1.3"/>
<path d="M 460 -130 L 634 -172" fill="none" stroke="#555" stroke-width="1.3"/>
<path d="M 742 -172 L 777 -172 L 777 -235 L 812 -235" fill="none" stroke="#555" stroke-width="1.3"/>
<path d="M 742 -172 L 777 -172 L 777 -193 L 812 -193" fill="none" stroke="#555" stroke-width="1.3"/>
<path d="M 742 -172 L 777 -172 L 777 -151 L 812 -151" fill="none" stroke="#555" stroke-width="1.3"/>
<path d="M 742 -172 L 777 -172 L 777 -109 L 812 -109" fill="none" stroke="#555" stroke-width="1.3"/>
<path d="M 440 -220 L 266 -262" fill="none" stroke="#555" stroke-width="1.3"/>
<path d="M 158 -262 L 123 -262 L 123 -353 L 88 -353" fill="none" stroke="#555" stroke-width="1.3"/>
<path d="M 158 -262 L 123 -262 L 123 -311 L 88 -311" fill="none" stroke="#555" stroke-width="1.3"/>
<path d="M 158 -262 L 123 -262 L 123 -262 L 88 -262" fill="none" stroke="#555" stroke-width="1.3"/>
<path d="M 158 -262 L 123 -262 L 123 -213 L 88 -213" fill="none" stroke="#555" stroke-width="1.3"/>
<path d="M 158 -262 L 123 -262 L 123 -171 L 88 -171" fill="none" stroke="#555" stroke-width="1.3"/>
<path d="M 460 -347 L 634 -389" fill="none" stroke="#555" stroke-width="1.3"/>
<path d="M 742 -389 L 777 -389 L 777 -494 L 812 -494" fill="none" stroke="#555" stroke-width="1.3"/>
<path d="M 742 -389 L 777 -389 L 777 -445 L 812 -445" fill="none" stroke="#555" stroke-width="1.3"/>
<path d="M 742 -389 L 777 -389 L 777 -403 L 812 -403" fill="none" stroke="#555" stroke-width="1.3"/>
<path d="M 742 -389 L 777 -389 L 777 -361 L 812 -361" fill="none" stroke="#555" stroke-width="1.3"/>
<path d="M 742 -389 L 777 -389 L 777 -319 L 812 -319" fill="none" stroke="#555" stroke-width="1.3"/>
<path d="M 440 -458 L 266 -500" fill="none" stroke="#555" stroke-width="1.3"/>
<path d="M 158 -500 L 123 -500 L 123 -605 L 88 -605" fill="none" stroke="#555" stroke-width="1.3"/>
<path d="M 158 -500 L 123 -500 L 123 -521 L 88 -521" fill="none" stroke="#555" stroke-width="1.3"/>
<path d="M 158 -500 L 123 -500 L 123 -437 L 88 -437" fill="none" stroke="#555" stroke-width="1.3"/>
<path d="M 158 -500 L 123 -500 L 123 -395 L 88 -395" fill="none" stroke="#555" stroke-width="1.3"/>
<path d="M 469 407 C 473.398547852221 528.5546291203143, 429.65456543517485 545.3207848610473, 505.65456543517485 616.5769467591625" fill="none" stroke="#696969" stroke-width="1.45" stroke-linecap="round"/>
<path d="M 617.6545654351748 616.5769467591625 L 652.6545654351748 616.5769467591625 L 652.6545654351748 553.5769467591625 L 687.6545654351748 553.5769467591625" fill="none" stroke="#696969" stroke-width="1.45" stroke-linecap="round"/>
<path d="M 617.6545654351748 616.5769467591625 L 652.6545654351748 616.5769467591625 L 652.6545654351748 595.5769467591625 L 687.6545654351748 595.5769467591625" fill="none" stroke="#696969" stroke-width="1.45" stroke-linecap="round"/>
<path d="M 617.6545654351748 616.5769467591625 L 652.6545654351748 616.5769467591625 L 652.6545654351748 637.5769467591625 L 687.6545654351748 637.5769467591625" fill="none" stroke="#696969" stroke-width="1.45" stroke-linecap="round"/>
<path d="M 617.6545654351748 616.5769467591625 L 652.6545654351748 616.5769467591625 L 652.6545654351748 679.5769467591625 L 687.6545654351748 679.5769467591625" fill="none" stroke="#696969" stroke-width="1.45" stroke-linecap="round"/>
<path d="M 426 395 C 408.6414087858181 462.39739493571886, 357.34507321515105 471.6935873406456, 281.34507321515105 511.2024050615843" fill="none" stroke="#696969" stroke-width="1.45" stroke-linecap="round"/>
<path d="M 169.34507321515107 511.2024050615843 L 134.34507321515107 511.2024050615843 L 134.34507321515107 463 L 99.34507321515107 463" fill="none" stroke="#696969" stroke-width="1.45" stroke-linecap="round"/>
<path d="M 169.34507321515107 511.2024050615843 L 134.34507321515107 511.2024050615843 L 134.34507321515107 505 L 99.34507321515107 505" fill="none" stroke="#696969" stroke-width="1.45" stroke-linecap="round"/>
<path d="M 169.34507321515107 511.2024050615843 L 134.34507321515107 511.2024050615843 L 134.34507321515107 547 L 99.34507321515107 547" fill="none" stroke="#696969" stroke-width="1.45" stroke-linecap="round"/>
<path d="M 169.34507321515107 511.2024050615843 L 134.34507321515107 511.2024050615843 L 134.34507321515107 589 L 99.34507321515107 589" fill="none" stroke="#696969" stroke-width="1.45" stroke-linecap="round"/>
<path d="M 474 395 C 508 591.4269940347996, 749.2011283735626 618.5203725223581, 929.2011283735626 733.6672310944821" fill="none" stroke="#696969" stroke-width="1.45" stroke-linecap="round"/>
<path d="M 1041.2011283735626 733.6672310944821 L 1076.2011283735626 733.6672310944821 L 1076.2011283735626 670.6672310944821 L 1111.2011283735626 670.6672310944821" fill="none" stroke="#696969" stroke-width="1.45" stroke-linecap="round"/>
<path d="M 1041.2011283735626 733.6672310944821 L 1076.2011283735626 733.6672310944821 L 1076.2011283735626 712.6672310944821 L 1111.2011283735626 712.6672310944821" fill="none" stroke="#696969" stroke-width="1.45" stroke-linecap="round"/>
<path d="M 1041.2011283735626 733.6672310944821 L 1076.2011283735626 733.6672310944821 L 1076.2011283735626 754.6672310944821 L 1111.2011283735626 754.6672310944821" fill="none" stroke="#696969" stroke-width="1.45" stroke-linecap="round"/>
<path d="M 1041.2011283735626 733.6672310944821 L 1076.2011283735626 733.6672310944821 L 1076.2011283735626 796.6672310944821 L 1111.2011283735626 796.6672310944821" fill="none" stroke="#696969" stroke-width="1.45" stroke-linecap="round"/>
<path d="M 432 390 C 398 481.33012806360915, -2.059045349664757 493.9273871068656, -182.05904534966476 547.4657380407054" fill="none" stroke="#696969" stroke-width="1.45" stroke-linecap="round"/>
<path d="M -294.05904534966476 547.4657380407054 L -329.05904534966476 547.4657380407054 L -329.05904534966476 463.46573804070545 L -364.0590453496648 463.46573804070545" fill="none" stroke="#696969" stroke-width="1.45" stroke-linecap="round"/>
<path d="M -294.05904534966476 547.4657380407054 L -329.05904534966476 547.4657380407054 L -329.05904534966476 505.46573804070545 L -364.0590453496648 505.46573804070545" fill="none" stroke="#696969" stroke-width="1.45" stroke-linecap="round"/>
<path d="M -294.05904534966476 547.4657380407054 L -329.05904534966476 547.4657380407054 L -329.05904534966476 547.4657380407054 L -364.0590453496648 547.4657380407054" fill="none" stroke="#696969" stroke-width="1.45" stroke-linecap="round"/>
<path d="M -294.05904534966476 547.4657380407054 L -329.05904534966476 547.4657380407054 L -329.05904534966476 589.4657380407054 L -364.0590453496648 589.4657380407054" fill="none" stroke="#696969" stroke-width="1.45" stroke-linecap="round"/>
<path d="M 468 390 C 502 431.13821555984157, 797.6618602552494 436.81245218878524, 977.6618602552494 460.92795786179585" fill="none" stroke="#696969" stroke-width="1.45" stroke-linecap="round"/>
<path d="M 1089.6618602552494 460.92795786179585 L 1124.6618602552494 460.92795786179585 L 1124.6618602552494 463 L 1159.6618602552494 463" fill="none" stroke="#696969" stroke-width="1.45" stroke-linecap="round"/>
<path d="M 1089.6618602552494 460.92795786179585 L 1124.6618602552494 460.92795786179585 L 1124.6618602552494 505 L 1159.6618602552494 505" fill="none" stroke="#696969" stroke-width="1.45" stroke-linecap="round"/>
<path d="M 1089.6618602552494 460.92795786179585 L 1124.6618602552494 460.92795786179585 L 1124.6618602552494 547 L 1159.6618602552494 547" fill="none" stroke="#696969" stroke-width="1.45" stroke-linecap="round"/>
<path d="M 1089.6618602552494 460.92795786179585 L 1124.6618602552494 460.92795786179585 L 1124.6618602552494 589 L 1159.6618602552494 589" fill="none" stroke="#696969" stroke-width="1.45" stroke-linecap="round"/>
<path d="M 1089.6618602552494 460.92795786179585 L 1124.6618602552494 460.92795786179585 L 1124.6618602552494 631 L 1159.6618602552494 631" fill="none" stroke="#696969" stroke-width="1.45" stroke-linecap="round"/>
<path d="M -294.05904534966476 547.4657380407054 L -329.05904534966476 547.4657380407054 L -329.05904534966476 631.4657380407054 L -364.0590453496648 631.4657380407054" fill="none" stroke="#696969" stroke-width="1.45" stroke-linecap="round"/>
<path d="M 742 -389 L 777 -389 L 777 -277 L 812 -277" fill="none" stroke="#555" stroke-width="1.3"/>
<path d="M -20 -521 L -55 -521 L -55 -563 L -90 -563" fill="none" stroke="#555" stroke-width="1.3"/>
<path d="M -20 -521 L -55 -521 L -55 -521 L -90 -521" fill="none" stroke="#555" stroke-width="1.3"/>
<path d="M -20 -521 L -55 -521 L -55 -479 L -90 -479" fill="none" stroke="#555" stroke-width="1.3"/>
  <g transform="translate(688 185)"><rect x="-54" y="-17" width="108" height="34" rx="6" fill="#f8fbf4" stroke="#7a9a6d" stroke-width="1.4"/><text text-anchor="middle" dominant-baseline="middle" font-size="13" font-weight="700" fill="#2d2d2d">相遇</text></g>
<g transform="translate(866 101)"><rect x="-54" y="-17" width="108" height="34" rx="6" fill="#f8fbf4" stroke="#7a9a6d" stroke-width="1.4"/><text text-anchor="middle" dominant-baseline="middle" font-size="13" font-weight="700" fill="#2d2d2d">派派</text></g>
<g transform="translate(866 143)"><rect x="-54" y="-17" width="108" height="34" rx="6" fill="#f8fbf4" stroke="#7a9a6d" stroke-width="1.4"/><text text-anchor="middle" dominant-baseline="middle" font-size="13" font-weight="700" fill="#2d2d2d">友谊之舟</text></g>
<g transform="translate(866 185)"><rect x="-54" y="-17" width="108" height="34" rx="6" fill="#f8fbf4" stroke="#7a9a6d" stroke-width="1.4"/><text text-anchor="middle" dominant-baseline="middle" font-size="13" font-weight="700" fill="#2d2d2d">神秘人</text></g>
<g transform="translate(866 227)"><rect x="-54" y="-17" width="108" height="34" rx="6" fill="#f8fbf4" stroke="#7a9a6d" stroke-width="1.4"/><text text-anchor="middle" dominant-baseline="middle" font-size="13" font-weight="700" fill="#2d2d2d">加好友声讨</text></g>
<g transform="translate(866 269)"><rect x="-54" y="-17" width="108" height="34" rx="6" fill="#f8fbf4" stroke="#7a9a6d" stroke-width="1.4"/><text text-anchor="middle" dominant-baseline="middle" font-size="13" font-weight="700" fill="#2d2d2d">没有争吵的开场</text></g>
<g transform="translate(212 186)"><rect x="-54" y="-17" width="108" height="34" rx="6" fill="#f8fbf4" stroke="#7a9a6d" stroke-width="1.4"/><text text-anchor="middle" dominant-baseline="middle" font-size="13" font-weight="700" fill="#2d2d2d">靠近</text></g>
<g transform="translate(34 81)"><rect x="-54" y="-17" width="108" height="34" rx="6" fill="#f8fbf4" stroke="#7a9a6d" stroke-width="1.4"/><text text-anchor="middle" dominant-baseline="middle" font-size="13" font-weight="700" fill="#2d2d2d">讲清规则</text></g>
<g transform="translate(34 123)"><rect x="-54" y="-17" width="108" height="34" rx="6" fill="#f8fbf4" stroke="#7a9a6d" stroke-width="1.4"/><text text-anchor="middle" dominant-baseline="middle" font-size="13" font-weight="700" fill="#2d2d2d">越聊越多</text></g>
<g transform="translate(34 165)"><rect x="-54" y="-17" width="108" height="34" rx="6" fill="#f8fbf4" stroke="#7a9a6d" stroke-width="1.4"/><text text-anchor="middle" dominant-baseline="middle" font-size="13" font-weight="700" fill="#2d2d2d">加微信</text></g>
<g transform="translate(34 207)"><rect x="-54" y="-17" width="108" height="34" rx="6" fill="#f8fbf4" stroke="#7a9a6d" stroke-width="1.4"/><text text-anchor="middle" dominant-baseline="middle" font-size="13" font-weight="700" fill="#2d2d2d">吵吵闹闹</text></g>
<g transform="translate(34 249)"><rect x="-54" y="-17" width="108" height="34" rx="6" fill="#f8fbf4" stroke="#7a9a6d" stroke-width="1.4"/><text text-anchor="middle" dominant-baseline="middle" font-size="13" font-weight="700" fill="#2d2d2d">像百灵鸟</text></g>
<g transform="translate(34 291)"><rect x="-54" y="-17" width="108" height="34" rx="6" fill="#f8fbf4" stroke="#7a9a6d" stroke-width="1.4"/><text text-anchor="middle" dominant-baseline="middle" font-size="13" font-weight="700" fill="#2d2d2d">分享越来越多</text></g>
<g transform="translate(688 -4)"><rect x="-54" y="-17" width="108" height="34" rx="6" fill="#f8fbf4" stroke="#7a9a6d" stroke-width="1.4"/><text text-anchor="middle" dominant-baseline="middle" font-size="13" font-weight="700" fill="#2d2d2d">心动</text></g>
<g transform="translate(866 -67)"><rect x="-54" y="-17" width="108" height="34" rx="6" fill="#f8fbf4" stroke="#7a9a6d" stroke-width="1.4"/><text text-anchor="middle" dominant-baseline="middle" font-size="13" font-weight="700" fill="#2d2d2d">慢慢喜欢</text></g>
<g transform="translate(866 -25)"><rect x="-54" y="-17" width="108" height="34" rx="6" fill="#f8fbf4" stroke="#7a9a6d" stroke-width="1.4"/><text text-anchor="middle" dominant-baseline="middle" font-size="13" font-weight="700" fill="#2d2d2d">想一起玩</text></g>
<g transform="translate(866 17)"><rect x="-54" y="-17" width="108" height="34" rx="6" fill="#f8fbf4" stroke="#7a9a6d" stroke-width="1.4"/><text text-anchor="middle" dominant-baseline="middle" font-size="13" font-weight="700" fill="#2d2d2d">东盟与西盟</text></g>
<g transform="translate(866 59)"><rect x="-54" y="-17" width="108" height="34" rx="6" fill="#f8fbf4" stroke="#7a9a6d" stroke-width="1.4"/><text text-anchor="middle" dominant-baseline="middle" font-size="13" font-weight="700" fill="#2d2d2d">期待她来到身边</text></g>
<g transform="translate(212 -45)"><rect x="-54" y="-17" width="108" height="34" rx="6" fill="#f8fbf4" stroke="#7a9a6d" stroke-width="1.4"/><text text-anchor="middle" dominant-baseline="middle" font-size="13" font-weight="700" fill="#2d2d2d">命名</text></g>
<g transform="translate(34 -129)"><rect x="-54" y="-17" width="108" height="34" rx="6" fill="#f8fbf4" stroke="#7a9a6d" stroke-width="1.4"/><text text-anchor="middle" dominant-baseline="middle" font-size="13" font-weight="700" fill="#2d2d2d">盛夏</text></g>
<g transform="translate(34 -87)"><rect x="-54" y="-17" width="108" height="34" rx="6" fill="#f8fbf4" stroke="#7a9a6d" stroke-width="1.4"/><text text-anchor="middle" dominant-baseline="middle" font-size="13" font-weight="700" fill="#2d2d2d">芬德拉</text></g>
<g transform="translate(34 -45)"><rect x="-54" y="-17" width="108" height="34" rx="6" fill="#f8fbf4" stroke="#7a9a6d" stroke-width="1.4"/><text text-anchor="middle" dominant-baseline="middle" font-size="13" font-weight="700" fill="#2d2d2d">短剧里的名字</text></g>
<g transform="translate(34 -3)"><rect x="-54" y="-17" width="108" height="34" rx="6" fill="#f8fbf4" stroke="#7a9a6d" stroke-width="1.4"/><text text-anchor="middle" dominant-baseline="middle" font-size="13" font-weight="700" fill="#2d2d2d">真诚相爱</text></g>
<g transform="translate(34 39)"><rect x="-54" y="-17" width="108" height="34" rx="6" fill="#f8fbf4" stroke="#7a9a6d" stroke-width="1.4"/><text text-anchor="middle" dominant-baseline="middle" font-size="13" font-weight="700" fill="#2d2d2d">彼此独立</text></g>
<g transform="translate(688 -172)"><rect x="-54" y="-17" width="108" height="34" rx="6" fill="#f8fbf4" stroke="#7a9a6d" stroke-width="1.4"/><text text-anchor="middle" dominant-baseline="middle" font-size="13" font-weight="700" fill="#2d2d2d">思念</text></g>
<g transform="translate(866 -235)"><rect x="-54" y="-17" width="108" height="34" rx="6" fill="#f8fbf4" stroke="#7a9a6d" stroke-width="1.4"/><text text-anchor="middle" dominant-baseline="middle" font-size="13" font-weight="700" fill="#2d2d2d">春节旅行</text></g>
<g transform="translate(866 -193)"><rect x="-54" y="-17" width="108" height="34" rx="6" fill="#f8fbf4" stroke="#7a9a6d" stroke-width="1.4"/><text text-anchor="middle" dominant-baseline="middle" font-size="13" font-weight="700" fill="#2d2d2d">旅游间歇</text></g>
<g transform="translate(866 -151)"><rect x="-54" y="-17" width="108" height="34" rx="6" fill="#f8fbf4" stroke="#7a9a6d" stroke-width="1.4"/><text text-anchor="middle" dominant-baseline="middle" font-size="13" font-weight="700" fill="#2d2d2d">豆蔻年华</text></g>
<g transform="translate(866 -109)"><rect x="-54" y="-17" width="108" height="34" rx="6" fill="#f8fbf4" stroke="#7a9a6d" stroke-width="1.4"/><text text-anchor="middle" dominant-baseline="middle" font-size="13" font-weight="700" fill="#2d2d2d">三百多遍</text></g>
<g transform="translate(212 -262)"><rect x="-54" y="-17" width="108" height="34" rx="6" fill="#f8fbf4" stroke="#7a9a6d" stroke-width="1.4"/><text text-anchor="middle" dominant-baseline="middle" font-size="13" font-weight="700" fill="#2d2d2d">告白</text></g>
<g transform="translate(34 -353)"><rect x="-54" y="-17" width="108" height="34" rx="6" fill="#f8fbf4" stroke="#7a9a6d" stroke-width="1.4"/><text text-anchor="middle" dominant-baseline="middle" font-size="13" font-weight="700" fill="#2d2d2d">因前 CP 争吵</text></g>
<g transform="translate(34 -311)"><rect x="-54" y="-17" width="108" height="34" rx="6" fill="#f8fbf4" stroke="#7a9a6d" stroke-width="1.4"/><text text-anchor="middle" dominant-baseline="middle" font-size="13" font-weight="700" fill="#2d2d2d">说出想法</text></g>
<g transform="translate(34 -262)"><rect x="-54" y="-17" width="108" height="34" rx="6" fill="#f8fbf4" stroke="#7a9a6d" stroke-width="1.4"/><text text-anchor="middle" dominant-baseline="middle" font-size="13" font-weight="700" fill="#2d2d2d">计划让她成为芬德拉</text></g>
<g transform="translate(34 -213)"><rect x="-54" y="-17" width="108" height="34" rx="6" fill="#f8fbf4" stroke="#7a9a6d" stroke-width="1.4"/><text text-anchor="middle" dominant-baseline="middle" font-size="13" font-weight="700" fill="#2d2d2d">和好</text></g>
<g transform="translate(34 -171)"><rect x="-54" y="-17" width="108" height="34" rx="6" fill="#f8fbf4" stroke="#7a9a6d" stroke-width="1.4"/><text text-anchor="middle" dominant-baseline="middle" font-size="13" font-weight="700" fill="#2d2d2d">唱豆蔻年华</text></g>
<g transform="translate(688 -389)"><rect x="-54" y="-17" width="108" height="34" rx="6" fill="#f8fbf4" stroke="#7a9a6d" stroke-width="1.4"/><text text-anchor="middle" dominant-baseline="middle" font-size="13" font-weight="700" fill="#2d2d2d">赠予</text></g>
<g transform="translate(866 -494)"><rect x="-54" y="-17" width="108" height="34" rx="6" fill="#f8fbf4" stroke="#7a9a6d" stroke-width="1.4"/><text text-anchor="middle" dominant-baseline="middle" font-size="13" font-weight="700" fill="#2d2d2d">海风中失落的血色馈赠</text></g>
<g transform="translate(866 -445)"><rect x="-54" y="-17" width="108" height="34" rx="6" fill="#f8fbf4" stroke="#7a9a6d" stroke-width="1.4"/><text text-anchor="middle" dominant-baseline="middle" font-size="13" font-weight="700" fill="#2d2d2d">秋</text></g>
<g transform="translate(866 -403)"><rect x="-54" y="-17" width="108" height="34" rx="6" fill="#f8fbf4" stroke="#7a9a6d" stroke-width="1.4"/><text text-anchor="middle" dominant-baseline="middle" font-size="13" font-weight="700" fill="#2d2d2d">来自我心</text></g>
<g transform="translate(866 -361)"><rect x="-54" y="-17" width="108" height="34" rx="6" fill="#f8fbf4" stroke="#7a9a6d" stroke-width="1.4"/><text text-anchor="middle" dominant-baseline="middle" font-size="13" font-weight="700" fill="#2d2d2d">一首首歌</text></g>
<g transform="translate(866 -319)"><rect x="-54" y="-17" width="108" height="34" rx="6" fill="#f8fbf4" stroke="#7a9a6d" stroke-width="1.4"/><text text-anchor="middle" dominant-baseline="middle" font-size="13" font-weight="700" fill="#2d2d2d">一段段朗读</text></g>
<g transform="translate(212 -500)"><rect x="-54" y="-17" width="108" height="34" rx="6" fill="#f8fbf4" stroke="#7a9a6d" stroke-width="1.4"/><text text-anchor="middle" dominant-baseline="middle" font-size="13" font-weight="700" fill="#2d2d2d">现在</text></g>
<g transform="translate(34 -605)"><rect x="-54" y="-17" width="108" height="34" rx="6" fill="#f8fbf4" stroke="#7a9a6d" stroke-width="1.4"/><text text-anchor="middle" dominant-baseline="middle" font-size="13" font-weight="700" fill="#2d2d2d">吵过很多架</text></g>
<g transform="translate(34 -521)"><rect x="-54" y="-17" width="108" height="34" rx="6" fill="#f8fbf4" stroke="#7a9a6d" stroke-width="1.4"/><text text-anchor="middle" dominant-baseline="middle" font-size="13" font-weight="700" fill="#2d2d2d">依然特别爱她</text></g>
<g transform="translate(34 -437)"><rect x="-54" y="-17" width="108" height="34" rx="6" fill="#f8fbf4" stroke="#7a9a6d" stroke-width="1.4"/><text text-anchor="middle" dominant-baseline="middle" font-size="13" font-weight="700" fill="#2d2d2d">她满心都是我</text></g>
<g transform="translate(34 -395)"><rect x="-54" y="-17" width="108" height="34" rx="6" fill="#f8fbf4" stroke="#7a9a6d" stroke-width="1.4"/><text text-anchor="middle" dominant-baseline="middle" font-size="13" font-weight="700" fill="#2d2d2d">我们还在一起生长</text></g>
<g transform="translate(563.6545654351748 616.5769467591625)"><rect x="-54" y="-17" width="108" height="34" rx="6" fill="#f8fbf4" stroke="#7a9a6d" stroke-width="1.4"/><text text-anchor="middle" dominant-baseline="middle" font-size="13" font-weight="700" fill="#2d2d2d">游戏缘起</text></g>
<g transform="translate(741.6545654351748 553.5769467591625)"><rect x="-54" y="-17" width="108" height="34" rx="6" fill="#f8fbf4" stroke="#7a9a6d" stroke-width="1.4"/><text text-anchor="middle" dominant-baseline="middle" font-size="13" font-weight="700" fill="#2d2d2d">派派</text></g>
<g transform="translate(741.6545654351748 595.5769467591625)"><rect x="-54" y="-17" width="108" height="34" rx="6" fill="#f8fbf4" stroke="#7a9a6d" stroke-width="1.4"/><text text-anchor="middle" dominant-baseline="middle" font-size="13" font-weight="700" fill="#2d2d2d">友谊之舟机制</text></g>
<g transform="translate(741.6545654351748 637.5769467591625)"><rect x="-54" y="-17" width="108" height="34" rx="6" fill="#f8fbf4" stroke="#7a9a6d" stroke-width="1.4"/><text text-anchor="middle" dominant-baseline="middle" font-size="13" font-weight="700" fill="#2d2d2d">神秘人事件</text></g>
<g transform="translate(741.6545654351748 679.5769467591625)"><rect x="-54" y="-17" width="108" height="34" rx="6" fill="#f8fbf4" stroke="#7a9a6d" stroke-width="1.4"/><text text-anchor="middle" dominant-baseline="middle" font-size="13" font-weight="700" fill="#2d2d2d">不同联盟</text></g>
<g transform="translate(223.34507321515107 511.2024050615843)"><rect x="-54" y="-17" width="108" height="34" rx="6" fill="#f8fbf4" stroke="#7a9a6d" stroke-width="1.4"/><text text-anchor="middle" dominant-baseline="middle" font-size="13" font-weight="700" fill="#2d2d2d">她的样子</text></g>
<g transform="translate(45.345073215151075 463)"><rect x="-54" y="-17" width="108" height="34" rx="6" fill="#f8fbf4" stroke="#7a9a6d" stroke-width="1.4"/><text text-anchor="middle" dominant-baseline="middle" font-size="13" font-weight="700" fill="#2d2d2d">活泼</text></g>
<g transform="translate(45.345073215151075 505)"><rect x="-54" y="-17" width="108" height="34" rx="6" fill="#f8fbf4" stroke="#7a9a6d" stroke-width="1.4"/><text text-anchor="middle" dominant-baseline="middle" font-size="13" font-weight="700" fill="#2d2d2d">吵吵闹闹</text></g>
<g transform="translate(45.345073215151075 547)"><rect x="-54" y="-17" width="108" height="34" rx="6" fill="#f8fbf4" stroke="#7a9a6d" stroke-width="1.4"/><text text-anchor="middle" dominant-baseline="middle" font-size="13" font-weight="700" fill="#2d2d2d">像百灵鸟</text></g>
<g transform="translate(45.345073215151075 589)"><rect x="-54" y="-17" width="108" height="34" rx="6" fill="#f8fbf4" stroke="#7a9a6d" stroke-width="1.4"/><text text-anchor="middle" dominant-baseline="middle" font-size="13" font-weight="700" fill="#2d2d2d">愿意分享</text></g>
<g transform="translate(987.2011283735626 733.6672310944821)"><rect x="-54" y="-17" width="108" height="34" rx="6" fill="#f8fbf4" stroke="#7a9a6d" stroke-width="1.4"/><text text-anchor="middle" dominant-baseline="middle" font-size="13" font-weight="700" fill="#2d2d2d">我的感受</text></g>
<g transform="translate(1165.2011283735626 670.6672310944821)"><rect x="-54" y="-17" width="108" height="34" rx="6" fill="#f8fbf4" stroke="#7a9a6d" stroke-width="1.4"/><text text-anchor="middle" dominant-baseline="middle" font-size="13" font-weight="700" fill="#2d2d2d">耐心解释</text></g>
<g transform="translate(1165.2011283735626 712.6672310944821)"><rect x="-54" y="-17" width="108" height="34" rx="6" fill="#f8fbf4" stroke="#7a9a6d" stroke-width="1.4"/><text text-anchor="middle" dominant-baseline="middle" font-size="13" font-weight="700" fill="#2d2d2d">慢慢喜欢</text></g>
<g transform="translate(1165.2011283735626 754.6672310944821)"><rect x="-54" y="-17" width="108" height="34" rx="6" fill="#f8fbf4" stroke="#7a9a6d" stroke-width="1.4"/><text text-anchor="middle" dominant-baseline="middle" font-size="13" font-weight="700" fill="#2d2d2d">旅游途中想她</text></g>
<g transform="translate(1165.2011283735626 796.6672310944821)"><rect x="-54" y="-17" width="108" height="34" rx="6" fill="#f8fbf4" stroke="#7a9a6d" stroke-width="1.4"/><text text-anchor="middle" dominant-baseline="middle" font-size="13" font-weight="700" fill="#2d2d2d">想和她一起玩</text></g>
<g transform="translate(-240.05904534966476 547.4657380407054)"><rect x="-54" y="-17" width="108" height="34" rx="6" fill="#f8fbf4" stroke="#7a9a6d" stroke-width="1.4"/><text text-anchor="middle" dominant-baseline="middle" font-size="13" font-weight="700" fill="#2d2d2d">我们的象征</text></g>
<g transform="translate(-418.0590453496648 463.46573804070545)"><rect x="-54" y="-17" width="108" height="34" rx="6" fill="#f8fbf4" stroke="#7a9a6d" stroke-width="1.4"/><text text-anchor="middle" dominant-baseline="middle" font-size="13" font-weight="700" fill="#2d2d2d">盛夏</text></g>
<g transform="translate(-418.0590453496648 505.46573804070545)"><rect x="-54" y="-17" width="108" height="34" rx="6" fill="#f8fbf4" stroke="#7a9a6d" stroke-width="1.4"/><text text-anchor="middle" dominant-baseline="middle" font-size="13" font-weight="700" fill="#2d2d2d">芬德拉</text></g>
<g transform="translate(-418.0590453496648 547.4657380407054)"><rect x="-54" y="-17" width="108" height="34" rx="6" fill="#f8fbf4" stroke="#7a9a6d" stroke-width="1.4"/><text text-anchor="middle" dominant-baseline="middle" font-size="13" font-weight="700" fill="#2d2d2d">豆蔻年华</text></g>
<g transform="translate(-418.0590453496648 589.4657380407054)"><rect x="-54" y="-17" width="108" height="34" rx="6" fill="#f8fbf4" stroke="#7a9a6d" stroke-width="1.4"/><text text-anchor="middle" dominant-baseline="middle" font-size="13" font-weight="700" fill="#2d2d2d">来自我心</text></g>
<g transform="translate(1035.6618602552494 460.92795786179585)"><rect x="-54" y="-17" width="108" height="34" rx="6" fill="#f8fbf4" stroke="#7a9a6d" stroke-width="1.4"/><text text-anchor="middle" dominant-baseline="middle" font-size="13" font-weight="700" fill="#2d2d2d">冲突与确认</text></g>
<g transform="translate(1213.6618602552494 463)"><rect x="-54" y="-17" width="108" height="34" rx="6" fill="#f8fbf4" stroke="#7a9a6d" stroke-width="1.4"/><text text-anchor="middle" dominant-baseline="middle" font-size="13" font-weight="700" fill="#2d2d2d">前 CP</text></g>
<g transform="translate(1213.6618602552494 505)"><rect x="-54" y="-17" width="108" height="34" rx="6" fill="#f8fbf4" stroke="#7a9a6d" stroke-width="1.4"/><text text-anchor="middle" dominant-baseline="middle" font-size="13" font-weight="700" fill="#2d2d2d">争吵</text></g>
<g transform="translate(1213.6618602552494 547)"><rect x="-54" y="-17" width="108" height="34" rx="6" fill="#f8fbf4" stroke="#7a9a6d" stroke-width="1.4"/><text text-anchor="middle" dominant-baseline="middle" font-size="13" font-weight="700" fill="#2d2d2d">和好</text></g>
<g transform="translate(1213.6618602552494 589)"><rect x="-54" y="-17" width="108" height="34" rx="6" fill="#f8fbf4" stroke="#7a9a6d" stroke-width="1.4"/><text text-anchor="middle" dominant-baseline="middle" font-size="13" font-weight="700" fill="#2d2d2d">说出计划</text></g>
<g transform="translate(1213.6618602552494 631)"><rect x="-54" y="-17" width="108" height="34" rx="6" fill="#f8fbf4" stroke="#7a9a6d" stroke-width="1.4"/><text text-anchor="middle" dominant-baseline="middle" font-size="13" font-weight="700" fill="#2d2d2d">更确定彼此</text></g>
<g transform="translate(-418.0590453496648 631.4657380407054)"><rect x="-54" y="-17" width="108" height="34" rx="6" fill="#fff" stroke="#7a9a6d" stroke-width="1.4"/><text text-anchor="middle" dominant-baseline="middle" font-size="13" font-weight="700" fill="#2d2d2d">神秘嘉宾</text></g>
<g transform="translate(866 -277)"><rect x="-54" y="-17" width="108" height="34" rx="6" fill="#fff" stroke="#7a9a6d" stroke-width="1.4"/><text text-anchor="middle" dominant-baseline="middle" font-size="13" font-weight="700" fill="#2d2d2d">分享照片</text></g>
<g transform="translate(-144 -563)"><rect x="-54" y="-17" width="108" height="34" rx="6" fill="#94e3fe" stroke="#7a9a6d" stroke-width="1.4"/><text text-anchor="middle" dominant-baseline="middle" font-size="13" font-weight="700" fill="#2d2d2d">盛夏</text></g>
<g transform="translate(-144 -521)"><rect x="-54" y="-17" width="108" height="34" rx="6" fill="#e392fe" stroke="#ffa57d" stroke-width="1.4"/><text text-anchor="middle" dominant-baseline="middle" font-size="13" font-weight="700" fill="#2d2d2d">❤️</text></g>
<g transform="translate(-144 -479)"><rect x="-54" y="-17" width="108" height="34" rx="6" fill="#94e3fe" stroke="#7a9a6d" stroke-width="1.4"/><text text-anchor="middle" dominant-baseline="middle" font-size="13" font-weight="700" fill="#2d2d2d">芬德拉</text></g>
</svg>
