<svg xmlns="http://www.w3.org/2000/svg" viewBox="-738.6 -742 2217.4 1802.5" width="2217.4" height="1802.5">
  <rect x="-738.6" y="-742" width="2217.4" height="1802.5" fill="#fffcf6"/>
  <text x="-714.6" y="-706" font-size="18" font-weight="700" fill="#2f241b">sxfdl.nt</text>
  <line x1="-738.6" y1="390" x2="1478.8000000000002" y2="390" stroke="#d8cab7" stroke-dasharray="6 6"/>
  













































<path d="M 462 398 C 464.53213186831823 523.3257396393502, 421.651648353978 545.70533600352, 493.651648353978 621.7959636416969" fill="none" stroke="#6d6d6d" stroke-width="1.4"/>
<path d="M 605.651648353978 621.7959636416969 L 676.651648353978 621.7959636416969 L 676.651648353978 516.7959636416969 L 747.651648353978 516.7959636416969" fill="none" stroke="#6d6d6d" stroke-width="1.4"/>
<path d="M 605.651648353978 621.7959636416969 L 676.651648353978 621.7959636416969 L 676.651648353978 586.7959636416969 L 747.651648353978 586.7959636416969" fill="none" stroke="#6d6d6d" stroke-width="1.4"/>
<path d="M 605.651648353978 621.7959636416969 L 676.651648353978 621.7959636416969 L 676.651648353978 656.7959636416969 L 747.651648353978 656.7959636416969" fill="none" stroke="#6d6d6d" stroke-width="1.4"/>
<path d="M 605.651648353978 621.7959636416969 L 676.651648353978 621.7959636416969 L 676.651648353978 726.7959636416969 L 747.651648353978 726.7959636416969" fill="none" stroke="#6d6d6d" stroke-width="1.4"/>
<path d="M 439 391 C 425.60909084714797 447.38313003061205, 343.61363558934977 457.45154610750706, 271.61363558934977 491.68416076895005" fill="none" stroke="#6d6d6d" stroke-width="1.4"/>
<path d="M 159.61363558934977 491.68416076895005 L 88.61363558934977 491.68416076895005 L 88.61363558934977 468 L 17.61363558934977 468" fill="none" stroke="#6d6d6d" stroke-width="1.4"/>
<path d="M 159.61363558934977 491.68416076895005 L 88.61363558934977 491.68416076895005 L 88.61363558934977 538 L 17.61363558934977 538" fill="none" stroke="#6d6d6d" stroke-width="1.4"/>
<path d="M 159.61363558934977 491.68416076895005 L 88.61363558934977 491.68416076895005 L 88.61363558934977 608 L 17.61363558934977 608" fill="none" stroke="#6d6d6d" stroke-width="1.4"/>
<path d="M 159.61363558934977 491.68416076895005 L 88.61363558934977 491.68416076895005 L 88.61363558934977 678 L 17.61363558934977 678" fill="none" stroke="#6d6d6d" stroke-width="1.4"/>
<path d="M 461 391 C 481 630.3974513958793, 809.7733888993366 673.1469962880005, 989.7733888993366 818.495448921213" fill="none" stroke="#6d6d6d" stroke-width="1.4"/>
<path d="M 1101.7733888993366 818.495448921213 L 1172.7733888993366 818.495448921213 L 1172.7733888993366 713.495448921213 L 1243.7733888993366 713.495448921213" fill="none" stroke="#6d6d6d" stroke-width="1.4"/>
<path d="M 1101.7733888993366 818.495448921213 L 1172.7733888993366 818.495448921213 L 1172.7733888993366 783.495448921213 L 1243.7733888993366 783.495448921213" fill="none" stroke="#6d6d6d" stroke-width="1.4"/>
<path d="M 1101.7733888993366 818.495448921213 L 1172.7733888993366 818.495448921213 L 1172.7733888993366 853.495448921213 L 1243.7733888993366 853.495448921213" fill="none" stroke="#6d6d6d" stroke-width="1.4"/>
<path d="M 1101.7733888993366 818.495448921213 L 1172.7733888993366 818.495448921213 L 1172.7733888993366 923.495448921213 L 1243.7733888993366 923.495448921213" fill="none" stroke="#6d6d6d" stroke-width="1.4"/>
<path d="M 443 388 C 423 448.6638195147544, -76.56480451855964 459.49664442810337, -256.56480451855964 496.32824913349" fill="none" stroke="#6d6d6d" stroke-width="1.4"/>
<path d="M -368.56480451855964 496.32824913349 L -439.56480451855964 496.32824913349 L -439.56480451855964 468 L -510.56480451855964 468" fill="none" stroke="#6d6d6d" stroke-width="1.4"/>
<path d="M -368.56480451855964 496.32824913349 L -439.56480451855964 496.32824913349 L -439.56480451855964 538 L -510.56480451855964 538" fill="none" stroke="#6d6d6d" stroke-width="1.4"/>
<path d="M -368.56480451855964 496.32824913349 L -439.56480451855964 496.32824913349 L -439.56480451855964 608 L -510.56480451855964 608" fill="none" stroke="#6d6d6d" stroke-width="1.4"/>
<path d="M -368.56480451855964 496.32824913349 L -439.56480451855964 496.32824913349 L -439.56480451855964 678 L -510.56480451855964 678" fill="none" stroke="#6d6d6d" stroke-width="1.4"/>
<path d="M 457 388 C 477 448.04924557304946, 816.7934983253981 458.77232513966544, 996.7934983253981 495.2307956661598" fill="none" stroke="#6d6d6d" stroke-width="1.4"/>
<path d="M 1108.793498325398 495.2307956661598 L 1179.793498325398 495.2307956661598 L 1179.793498325398 468 L 1250.793498325398 468" fill="none" stroke="#6d6d6d" stroke-width="1.4"/>
<path d="M 1108.793498325398 495.2307956661598 L 1179.793498325398 495.2307956661598 L 1179.793498325398 538 L 1250.793498325398 538" fill="none" stroke="#6d6d6d" stroke-width="1.4"/>
<path d="M 1108.793498325398 495.2307956661598 L 1179.793498325398 495.2307956661598 L 1179.793498325398 608 L 1250.793498325398 608" fill="none" stroke="#6d6d6d" stroke-width="1.4"/>
<path d="M 1108.793498325398 495.2307956661598 L 1179.793498325398 495.2307956661598 L 1179.793498325398 678 L 1250.793498325398 678" fill="none" stroke="#6d6d6d" stroke-width="1.4"/>
<path d="M 1108.793498325398 495.2307956661598 L 1179.793498325398 495.2307956661598 L 1179.793498325398 748 L 1250.793498325398 748" fill="none" stroke="#6d6d6d" stroke-width="1.4"/>
<path d="M -368.56480451855964 496.32824913349 L -439.56480451855964 496.32824913349 L -439.56480451855964 748 L -510.56480451855964 748" fill="none" stroke="#6d6d6d" stroke-width="1.4"/>




  <rect x="438" y="16" width="24" height="386" rx="12" fill="#826f62"/><path d="M 439 381 C 434 390, 426 400, 416 408 C 432 405, 442 405, 450 409 C 458 405, 468 405, 484 408 C 474 400, 466 390, 461 381 Z" fill="#826f62" stroke="rgba(47, 36, 27, 0.24)" stroke-width="0.9"/>
<g transform="translate(688 185)"><rect x="-54" y="-17" width="108" height="34" rx="6" fill="#f8fbf4" stroke="#7a9a6d" stroke-width="1.5"/><text text-anchor="middle" dominant-baseline="middle" font-size="13" font-weight="700" fill="#232323">相遇</text></g>
<g transform="translate(866 101)"><rect x="-54" y="-17" width="108" height="34" rx="6" fill="#f8fbf4" stroke="#7a9a6d" stroke-width="1.5"/><text text-anchor="middle" dominant-baseline="middle" font-size="13" font-weight="700" fill="#232323">派派</text></g>
<g transform="translate(866 143)"><rect x="-54" y="-17" width="108" height="34" rx="6" fill="#f8fbf4" stroke="#7a9a6d" stroke-width="1.5"/><text text-anchor="middle" dominant-baseline="middle" font-size="13" font-weight="700" fill="#232323">友谊之舟</text></g>
<g transform="translate(866 185)"><rect x="-54" y="-17" width="108" height="34" rx="6" fill="#f8fbf4" stroke="#7a9a6d" stroke-width="1.5"/><text text-anchor="middle" dominant-baseline="middle" font-size="13" font-weight="700" fill="#232323">神秘人</text></g>
<g transform="translate(866 227)"><rect x="-54" y="-17" width="108" height="34" rx="6" fill="#f8fbf4" stroke="#7a9a6d" stroke-width="1.5"/><text text-anchor="middle" dominant-baseline="middle" font-size="13" font-weight="700" fill="#232323">加好友声讨</text></g>
<g transform="translate(866 269)"><rect x="-54" y="-17" width="108" height="34" rx="6" fill="#f8fbf4" stroke="#7a9a6d" stroke-width="1.5"/><text text-anchor="middle" dominant-baseline="middle" font-size="13" font-weight="700" fill="#232323">没有争吵的开场</text></g>
<g transform="translate(212 186)"><rect x="-54" y="-17" width="108" height="34" rx="6" fill="#f8fbf4" stroke="#7a9a6d" stroke-width="1.5"/><text text-anchor="middle" dominant-baseline="middle" font-size="13" font-weight="700" fill="#232323">靠近</text></g>
<g transform="translate(34 81)"><rect x="-54" y="-17" width="108" height="34" rx="6" fill="#f8fbf4" stroke="#7a9a6d" stroke-width="1.5"/><text text-anchor="middle" dominant-baseline="middle" font-size="13" font-weight="700" fill="#232323">讲清规则</text></g>
<g transform="translate(34 123)"><rect x="-54" y="-17" width="108" height="34" rx="6" fill="#f8fbf4" stroke="#7a9a6d" stroke-width="1.5"/><text text-anchor="middle" dominant-baseline="middle" font-size="13" font-weight="700" fill="#232323">越聊越多</text></g>
<g transform="translate(34 165)"><rect x="-54" y="-17" width="108" height="34" rx="6" fill="#f8fbf4" stroke="#7a9a6d" stroke-width="1.5"/><text text-anchor="middle" dominant-baseline="middle" font-size="13" font-weight="700" fill="#232323">加微信</text></g>
<g transform="translate(34 207)"><rect x="-54" y="-17" width="108" height="34" rx="6" fill="#f8fbf4" stroke="#7a9a6d" stroke-width="1.5"/><text text-anchor="middle" dominant-baseline="middle" font-size="13" font-weight="700" fill="#232323">吵吵闹闹</text></g>
<g transform="translate(34 249)"><rect x="-54" y="-17" width="108" height="34" rx="6" fill="#f8fbf4" stroke="#7a9a6d" stroke-width="1.5"/><text text-anchor="middle" dominant-baseline="middle" font-size="13" font-weight="700" fill="#232323">像百灵鸟</text></g>
<g transform="translate(34 291)"><rect x="-54" y="-17" width="108" height="34" rx="6" fill="#f8fbf4" stroke="#7a9a6d" stroke-width="1.5"/><text text-anchor="middle" dominant-baseline="middle" font-size="13" font-weight="700" fill="#232323">分享越来越多</text></g>
<g transform="translate(688 -4)"><rect x="-54" y="-17" width="108" height="34" rx="6" fill="#f8fbf4" stroke="#7a9a6d" stroke-width="1.5"/><text text-anchor="middle" dominant-baseline="middle" font-size="13" font-weight="700" fill="#232323">心动</text></g>
<g transform="translate(866 -67)"><rect x="-54" y="-17" width="108" height="34" rx="6" fill="#f8fbf4" stroke="#7a9a6d" stroke-width="1.5"/><text text-anchor="middle" dominant-baseline="middle" font-size="13" font-weight="700" fill="#232323">慢慢喜欢</text></g>
<g transform="translate(866 -25)"><rect x="-54" y="-17" width="108" height="34" rx="6" fill="#f8fbf4" stroke="#7a9a6d" stroke-width="1.5"/><text text-anchor="middle" dominant-baseline="middle" font-size="13" font-weight="700" fill="#232323">想一起玩</text></g>
<g transform="translate(866 17)"><rect x="-54" y="-17" width="108" height="34" rx="6" fill="#f8fbf4" stroke="#7a9a6d" stroke-width="1.5"/><text text-anchor="middle" dominant-baseline="middle" font-size="13" font-weight="700" fill="#232323">东盟与西盟</text></g>
<g transform="translate(866 59)"><rect x="-54" y="-17" width="108" height="34" rx="6" fill="#f8fbf4" stroke="#7a9a6d" stroke-width="1.5"/><text text-anchor="middle" dominant-baseline="middle" font-size="13" font-weight="700" fill="#232323">期待她来到身边</text></g>
<g transform="translate(212 -45)"><rect x="-54" y="-17" width="108" height="34" rx="6" fill="#f8fbf4" stroke="#7a9a6d" stroke-width="1.5"/><text text-anchor="middle" dominant-baseline="middle" font-size="13" font-weight="700" fill="#232323">命名</text></g>
<g transform="translate(34 -129)"><rect x="-54" y="-17" width="108" height="34" rx="6" fill="#f8fbf4" stroke="#7a9a6d" stroke-width="1.5"/><text text-anchor="middle" dominant-baseline="middle" font-size="13" font-weight="700" fill="#232323">盛夏</text></g>
<g transform="translate(34 -87)"><rect x="-54" y="-17" width="108" height="34" rx="6" fill="#f8fbf4" stroke="#7a9a6d" stroke-width="1.5"/><text text-anchor="middle" dominant-baseline="middle" font-size="13" font-weight="700" fill="#232323">芬德拉</text></g>
<g transform="translate(34 -45)"><rect x="-54" y="-17" width="108" height="34" rx="6" fill="#f8fbf4" stroke="#7a9a6d" stroke-width="1.5"/><text text-anchor="middle" dominant-baseline="middle" font-size="13" font-weight="700" fill="#232323">短剧里的名字</text></g>
<g transform="translate(34 -3)"><rect x="-54" y="-17" width="108" height="34" rx="6" fill="#f8fbf4" stroke="#7a9a6d" stroke-width="1.5"/><text text-anchor="middle" dominant-baseline="middle" font-size="13" font-weight="700" fill="#232323">真诚相爱</text></g>
<g transform="translate(34 39)"><rect x="-54" y="-17" width="108" height="34" rx="6" fill="#f8fbf4" stroke="#7a9a6d" stroke-width="1.5"/><text text-anchor="middle" dominant-baseline="middle" font-size="13" font-weight="700" fill="#232323">彼此独立</text></g>
<g transform="translate(688 -172)"><rect x="-54" y="-17" width="108" height="34" rx="6" fill="#f8fbf4" stroke="#7a9a6d" stroke-width="1.5"/><text text-anchor="middle" dominant-baseline="middle" font-size="13" font-weight="700" fill="#232323">思念</text></g>
<g transform="translate(866 -235)"><rect x="-54" y="-17" width="108" height="34" rx="6" fill="#f8fbf4" stroke="#7a9a6d" stroke-width="1.5"/><text text-anchor="middle" dominant-baseline="middle" font-size="13" font-weight="700" fill="#232323">春节旅行</text></g>
<g transform="translate(866 -193)"><rect x="-54" y="-17" width="108" height="34" rx="6" fill="#f8fbf4" stroke="#7a9a6d" stroke-width="1.5"/><text text-anchor="middle" dominant-baseline="middle" font-size="13" font-weight="700" fill="#232323">旅游间歇</text></g>
<g transform="translate(866 -151)"><rect x="-54" y="-17" width="108" height="34" rx="6" fill="#f8fbf4" stroke="#7a9a6d" stroke-width="1.5"/><text text-anchor="middle" dominant-baseline="middle" font-size="13" font-weight="700" fill="#232323">豆蔻年华</text></g>
<g transform="translate(866 -109)"><rect x="-54" y="-17" width="108" height="34" rx="6" fill="#f8fbf4" stroke="#7a9a6d" stroke-width="1.5"/><text text-anchor="middle" dominant-baseline="middle" font-size="13" font-weight="700" fill="#232323">三百多遍</text></g>
<g transform="translate(212 -262)"><rect x="-54" y="-17" width="108" height="34" rx="6" fill="#f8fbf4" stroke="#7a9a6d" stroke-width="1.5"/><text text-anchor="middle" dominant-baseline="middle" font-size="13" font-weight="700" fill="#232323">告白</text></g>
<g transform="translate(34 -353)"><rect x="-54" y="-17" width="108" height="34" rx="6" fill="#f8fbf4" stroke="#7a9a6d" stroke-width="1.5"/><text text-anchor="middle" dominant-baseline="middle" font-size="13" font-weight="700" fill="#232323">因前 CP 争吵</text></g>
<g transform="translate(34 -311)"><rect x="-54" y="-17" width="108" height="34" rx="6" fill="#f8fbf4" stroke="#7a9a6d" stroke-width="1.5"/><text text-anchor="middle" dominant-baseline="middle" font-size="13" font-weight="700" fill="#232323">说出想法</text></g>
<g transform="translate(34 -262)"><rect x="-54" y="-17" width="108" height="34" rx="6" fill="#f8fbf4" stroke="#7a9a6d" stroke-width="1.5"/><text text-anchor="middle" dominant-baseline="middle" font-size="13" font-weight="700" fill="#232323">计划让她成为芬德拉</text></g>
<g transform="translate(34 -213)"><rect x="-54" y="-17" width="108" height="34" rx="6" fill="#f8fbf4" stroke="#7a9a6d" stroke-width="1.5"/><text text-anchor="middle" dominant-baseline="middle" font-size="13" font-weight="700" fill="#232323">和好</text></g>
<g transform="translate(34 -171)"><rect x="-54" y="-17" width="108" height="34" rx="6" fill="#f8fbf4" stroke="#7a9a6d" stroke-width="1.5"/><text text-anchor="middle" dominant-baseline="middle" font-size="13" font-weight="700" fill="#232323">唱豆蔻年华</text></g>
<g transform="translate(688 -389)"><rect x="-54" y="-17" width="108" height="34" rx="6" fill="#f8fbf4" stroke="#7a9a6d" stroke-width="1.5"/><text text-anchor="middle" dominant-baseline="middle" font-size="13" font-weight="700" fill="#232323">赠予</text></g>
<g transform="translate(866 -494)"><rect x="-54" y="-17" width="108" height="34" rx="6" fill="#f8fbf4" stroke="#7a9a6d" stroke-width="1.5"/><text text-anchor="middle" dominant-baseline="middle" font-size="13" font-weight="700" fill="#232323">海风中失落的血色馈赠</text></g>
<g transform="translate(866 -445)"><rect x="-54" y="-17" width="108" height="34" rx="6" fill="#f8fbf4" stroke="#7a9a6d" stroke-width="1.5"/><text text-anchor="middle" dominant-baseline="middle" font-size="13" font-weight="700" fill="#232323">秋</text></g>
<g transform="translate(866 -403)"><rect x="-54" y="-17" width="108" height="34" rx="6" fill="#f8fbf4" stroke="#7a9a6d" stroke-width="1.5"/><text text-anchor="middle" dominant-baseline="middle" font-size="13" font-weight="700" fill="#232323">来自我心</text></g>
<g transform="translate(866 -361)"><rect x="-54" y="-17" width="108" height="34" rx="6" fill="#f8fbf4" stroke="#7a9a6d" stroke-width="1.5"/><text text-anchor="middle" dominant-baseline="middle" font-size="13" font-weight="700" fill="#232323">一首首歌</text></g>
<g transform="translate(866 -319)"><rect x="-54" y="-17" width="108" height="34" rx="6" fill="#f8fbf4" stroke="#7a9a6d" stroke-width="1.5"/><text text-anchor="middle" dominant-baseline="middle" font-size="13" font-weight="700" fill="#232323">一段段朗读</text></g>
<g transform="translate(212 -500)"><rect x="-54" y="-17" width="108" height="34" rx="6" fill="#f8fbf4" stroke="#7a9a6d" stroke-width="1.5"/><text text-anchor="middle" dominant-baseline="middle" font-size="13" font-weight="700" fill="#232323">现在</text></g>
<g transform="translate(34 -605)"><rect x="-54" y="-17" width="108" height="34" rx="6" fill="#f8fbf4" stroke="#7a9a6d" stroke-width="1.5"/><text text-anchor="middle" dominant-baseline="middle" font-size="13" font-weight="700" fill="#232323">吵过很多架</text></g>
<g transform="translate(34 -521)"><rect x="-54" y="-17" width="108" height="34" rx="6" fill="#f8fbf4" stroke="#7a9a6d" stroke-width="1.5"/><text text-anchor="middle" dominant-baseline="middle" font-size="13" font-weight="700" fill="#232323">依然特别爱她</text></g>
<g transform="translate(34 -437)"><rect x="-54" y="-17" width="108" height="34" rx="6" fill="#f8fbf4" stroke="#7a9a6d" stroke-width="1.5"/><text text-anchor="middle" dominant-baseline="middle" font-size="13" font-weight="700" fill="#232323">她满心都是我</text></g>
<g transform="translate(34 -395)"><rect x="-54" y="-17" width="108" height="34" rx="6" fill="#f8fbf4" stroke="#7a9a6d" stroke-width="1.5"/><text text-anchor="middle" dominant-baseline="middle" font-size="13" font-weight="700" fill="#232323">我们还在一起生长</text></g>
<g transform="translate(551.651648353978 621.7959636416969)"><rect x="-54" y="-17" width="108" height="34" rx="6" fill="#f8fbf4" stroke="#7a9a6d" stroke-width="1.5"/><text text-anchor="middle" dominant-baseline="middle" font-size="13" font-weight="700" fill="#232323">游戏缘起</text></g>
<g transform="translate(801.651648353978 516.7959636416969)"><rect x="-54" y="-17" width="108" height="34" rx="6" fill="#f8fbf4" stroke="#7a9a6d" stroke-width="1.5"/><text text-anchor="middle" dominant-baseline="middle" font-size="13" font-weight="700" fill="#232323">派派</text></g>
<g transform="translate(801.651648353978 586.7959636416969)"><rect x="-54" y="-17" width="108" height="34" rx="6" fill="#f8fbf4" stroke="#7a9a6d" stroke-width="1.5"/><text text-anchor="middle" dominant-baseline="middle" font-size="13" font-weight="700" fill="#232323">友谊之舟机制</text></g>
<g transform="translate(801.651648353978 656.7959636416969)"><rect x="-54" y="-17" width="108" height="34" rx="6" fill="#f8fbf4" stroke="#7a9a6d" stroke-width="1.5"/><text text-anchor="middle" dominant-baseline="middle" font-size="13" font-weight="700" fill="#232323">神秘人事件</text></g>
<g transform="translate(801.651648353978 726.7959636416969)"><rect x="-54" y="-17" width="108" height="34" rx="6" fill="#f8fbf4" stroke="#7a9a6d" stroke-width="1.5"/><text text-anchor="middle" dominant-baseline="middle" font-size="13" font-weight="700" fill="#232323">不同联盟</text></g>
<g transform="translate(213.61363558934977 491.68416076895005)"><rect x="-54" y="-17" width="108" height="34" rx="6" fill="#f8fbf4" stroke="#7a9a6d" stroke-width="1.5"/><text text-anchor="middle" dominant-baseline="middle" font-size="13" font-weight="700" fill="#232323">她的样子</text></g>
<g transform="translate(-36.38636441065023 468)"><rect x="-54" y="-17" width="108" height="34" rx="6" fill="#f8fbf4" stroke="#7a9a6d" stroke-width="1.5"/><text text-anchor="middle" dominant-baseline="middle" font-size="13" font-weight="700" fill="#232323">活泼</text></g>
<g transform="translate(-36.38636441065023 538)"><rect x="-54" y="-17" width="108" height="34" rx="6" fill="#f8fbf4" stroke="#7a9a6d" stroke-width="1.5"/><text text-anchor="middle" dominant-baseline="middle" font-size="13" font-weight="700" fill="#232323">吵吵闹闹</text></g>
<g transform="translate(-36.38636441065023 608)"><rect x="-54" y="-17" width="108" height="34" rx="6" fill="#f8fbf4" stroke="#7a9a6d" stroke-width="1.5"/><text text-anchor="middle" dominant-baseline="middle" font-size="13" font-weight="700" fill="#232323">像百灵鸟</text></g>
<g transform="translate(-36.38636441065023 678)"><rect x="-54" y="-17" width="108" height="34" rx="6" fill="#f8fbf4" stroke="#7a9a6d" stroke-width="1.5"/><text text-anchor="middle" dominant-baseline="middle" font-size="13" font-weight="700" fill="#232323">愿意分享</text></g>
<g transform="translate(1047.7733888993366 818.495448921213)"><rect x="-54" y="-17" width="108" height="34" rx="6" fill="#f8fbf4" stroke="#7a9a6d" stroke-width="1.5"/><text text-anchor="middle" dominant-baseline="middle" font-size="13" font-weight="700" fill="#232323">我的感受</text></g>
<g transform="translate(1297.7733888993366 713.495448921213)"><rect x="-54" y="-17" width="108" height="34" rx="6" fill="#f8fbf4" stroke="#7a9a6d" stroke-width="1.5"/><text text-anchor="middle" dominant-baseline="middle" font-size="13" font-weight="700" fill="#232323">耐心解释</text></g>
<g transform="translate(1297.7733888993366 783.495448921213)"><rect x="-54" y="-17" width="108" height="34" rx="6" fill="#f8fbf4" stroke="#7a9a6d" stroke-width="1.5"/><text text-anchor="middle" dominant-baseline="middle" font-size="13" font-weight="700" fill="#232323">慢慢喜欢</text></g>
<g transform="translate(1297.7733888993366 853.495448921213)"><rect x="-54" y="-17" width="108" height="34" rx="6" fill="#f8fbf4" stroke="#7a9a6d" stroke-width="1.5"/><text text-anchor="middle" dominant-baseline="middle" font-size="13" font-weight="700" fill="#232323">旅游途中想她</text></g>
<g transform="translate(1297.7733888993366 923.495448921213)"><rect x="-54" y="-17" width="108" height="34" rx="6" fill="#f8fbf4" stroke="#7a9a6d" stroke-width="1.5"/><text text-anchor="middle" dominant-baseline="middle" font-size="13" font-weight="700" fill="#232323">想和她一起玩</text></g>
<g transform="translate(-314.56480451855964 496.32824913349)"><rect x="-54" y="-17" width="108" height="34" rx="6" fill="#f8fbf4" stroke="#7a9a6d" stroke-width="1.5"/><text text-anchor="middle" dominant-baseline="middle" font-size="13" font-weight="700" fill="#232323">我们的象征</text></g>
<g transform="translate(-564.5648045185596 468)"><rect x="-54" y="-17" width="108" height="34" rx="6" fill="#f8fbf4" stroke="#7a9a6d" stroke-width="1.5"/><text text-anchor="middle" dominant-baseline="middle" font-size="13" font-weight="700" fill="#232323">盛夏</text></g>
<g transform="translate(-564.5648045185596 538)"><rect x="-54" y="-17" width="108" height="34" rx="6" fill="#f8fbf4" stroke="#7a9a6d" stroke-width="1.5"/><text text-anchor="middle" dominant-baseline="middle" font-size="13" font-weight="700" fill="#232323">芬德拉</text></g>
<g transform="translate(-564.5648045185596 608)"><rect x="-54" y="-17" width="108" height="34" rx="6" fill="#f8fbf4" stroke="#7a9a6d" stroke-width="1.5"/><text text-anchor="middle" dominant-baseline="middle" font-size="13" font-weight="700" fill="#232323">豆蔻年华</text></g>
<g transform="translate(-564.5648045185596 678)"><rect x="-54" y="-17" width="108" height="34" rx="6" fill="#f8fbf4" stroke="#7a9a6d" stroke-width="1.5"/><text text-anchor="middle" dominant-baseline="middle" font-size="13" font-weight="700" fill="#232323">来自我心</text></g>
<g transform="translate(1054.793498325398 495.2307956661598)"><rect x="-54" y="-17" width="108" height="34" rx="6" fill="#f8fbf4" stroke="#7a9a6d" stroke-width="1.5"/><text text-anchor="middle" dominant-baseline="middle" font-size="13" font-weight="700" fill="#232323">冲突与确认</text></g>
<g transform="translate(1304.793498325398 468)"><rect x="-54" y="-17" width="108" height="34" rx="6" fill="#f8fbf4" stroke="#7a9a6d" stroke-width="1.5"/><text text-anchor="middle" dominant-baseline="middle" font-size="13" font-weight="700" fill="#232323">前 CP</text></g>
<g transform="translate(1304.793498325398 538)"><rect x="-54" y="-17" width="108" height="34" rx="6" fill="#f8fbf4" stroke="#7a9a6d" stroke-width="1.5"/><text text-anchor="middle" dominant-baseline="middle" font-size="13" font-weight="700" fill="#232323">争吵</text></g>
<g transform="translate(1304.793498325398 608)"><rect x="-54" y="-17" width="108" height="34" rx="6" fill="#f8fbf4" stroke="#7a9a6d" stroke-width="1.5"/><text text-anchor="middle" dominant-baseline="middle" font-size="13" font-weight="700" fill="#232323">和好</text></g>
<g transform="translate(1304.793498325398 678)"><rect x="-54" y="-17" width="108" height="34" rx="6" fill="#f8fbf4" stroke="#7a9a6d" stroke-width="1.5"/><text text-anchor="middle" dominant-baseline="middle" font-size="13" font-weight="700" fill="#232323">说出计划</text></g>
<g transform="translate(1304.793498325398 748)"><rect x="-54" y="-17" width="108" height="34" rx="6" fill="#f8fbf4" stroke="#7a9a6d" stroke-width="1.5"/><text text-anchor="middle" dominant-baseline="middle" font-size="13" font-weight="700" fill="#232323">更确定彼此</text></g>
<g transform="translate(-564.5648045185596 748)"><rect x="-54" y="-17" width="108" height="34" rx="6" fill="#ffffff" stroke="#7a9a6d" stroke-width="1.5"/><text text-anchor="middle" dominant-baseline="middle" font-size="13" font-weight="700" fill="#232323">神秘嘉宾</text></g>
<g transform="translate(866 -277)"><rect x="-54" y="-17" width="108" height="34" rx="6" fill="#ffffff" stroke="#7a9a6d" stroke-width="1.5"/><text text-anchor="middle" dominant-baseline="middle" font-size="13" font-weight="700" fill="#232323">分享照片</text></g>
<g transform="translate(-144 -563)"><rect x="-54" y="-17" width="108" height="34" rx="6" fill="#94e3fe" stroke="#7a9a6d" stroke-width="1.5"/><text text-anchor="middle" dominant-baseline="middle" font-size="13" font-weight="700" fill="#232323">盛夏</text></g>
<g transform="translate(-144 -521)"><rect x="-54" y="-17" width="108" height="34" rx="6" fill="#e392fe" stroke="#ffa57d" stroke-width="1.5"/><text text-anchor="middle" dominant-baseline="middle" font-size="13" font-weight="700" fill="#232323">❤️</text></g>
<g transform="translate(-144 -479)"><rect x="-54" y="-17" width="108" height="34" rx="6" fill="#94e3fe" stroke="#7a9a6d" stroke-width="1.5"/><text text-anchor="middle" dominant-baseline="middle" font-size="13" font-weight="700" fill="#232323">芬德拉</text></g>
</svg>
