<svg xmlns="http://www.w3.org/2000/svg" viewBox="-738.6 -742 2217.4 1778.5" width="2217.4" height="1778.5">
  <rect x="-738.6" y="-742" width="2217.4" height="1778.5" fill="#fffcf6"/>
  <text x="-714.6" y="-706" font-size="18" font-weight="700" fill="#2f241b">sxfdl copy.nt</text>
  <line x1="-738.6" y1="390" x2="1478.8000000000002" y2="390" stroke="#d8cab7" stroke-dasharray="6 6"/>
  <path d="M 450 227 L 611 185" fill="none" stroke="#6d6d6d" stroke-width="1.4"/>
<path d="M 719 185 L 754 185 L 754 101 L 789 101" fill="none" stroke="#6d6d6d" stroke-width="1.4"/>
<path d="M 719 185 L 754 185 L 754 143 L 789 143" fill="none" stroke="#6d6d6d" stroke-width="1.4"/>
<path d="M 719 185 L 754 185 L 754 185 L 789 185" fill="none" stroke="#6d6d6d" stroke-width="1.4"/>
<path d="M 719 185 L 754 185 L 754 227 L 789 227" fill="none" stroke="#6d6d6d" stroke-width="1.4"/>
<path d="M 719 185 L 754 185 L 754 269 L 789 269" fill="none" stroke="#6d6d6d" stroke-width="1.4"/>
<path d="M 450 228 L 291 186" fill="none" stroke="#6d6d6d" stroke-width="1.4"/>
<path d="M 183 186 L 148 186 L 148 81 L 113 81" fill="none" stroke="#6d6d6d" stroke-width="1.4"/>
<path d="M 183 186 L 148 186 L 148 123 L 113 123" fill="none" stroke="#6d6d6d" stroke-width="1.4"/>
<path d="M 183 186 L 148 186 L 148 165 L 113 165" fill="none" stroke="#6d6d6d" stroke-width="1.4"/>
<path d="M 183 186 L 148 186 L 148 207 L 113 207" fill="none" stroke="#6d6d6d" stroke-width="1.4"/>
<path d="M 183 186 L 148 186 L 148 249 L 113 249" fill="none" stroke="#6d6d6d" stroke-width="1.4"/>
<path d="M 183 186 L 148 186 L 148 291 L 113 291" fill="none" stroke="#6d6d6d" stroke-width="1.4"/>
<path d="M 450 38 L 673 -4" fill="none" stroke="#6d6d6d" stroke-width="1.4"/>
<path d="M 781 -4 L 816 -4 L 816 -67 L 851 -67" fill="none" stroke="#6d6d6d" stroke-width="1.4"/>
<path d="M 781 -4 L 816 -4 L 816 -25 L 851 -25" fill="none" stroke="#6d6d6d" stroke-width="1.4"/>
<path d="M 781 -4 L 816 -4 L 816 17 L 851 17" fill="none" stroke="#6d6d6d" stroke-width="1.4"/>
<path d="M 781 -4 L 816 -4 L 816 59 L 851 59" fill="none" stroke="#6d6d6d" stroke-width="1.4"/>
<path d="M 450 -3 L 217 -45" fill="none" stroke="#6d6d6d" stroke-width="1.4"/>
<path d="M 109 -45 L 74 -45 L 74 -129 L 39 -129" fill="none" stroke="#6d6d6d" stroke-width="1.4"/>
<path d="M 109 -45 L 74 -45 L 74 -87 L 39 -87" fill="none" stroke="#6d6d6d" stroke-width="1.4"/>
<path d="M 109 -45 L 74 -45 L 74 -45 L 39 -45" fill="none" stroke="#6d6d6d" stroke-width="1.4"/>
<path d="M 109 -45 L 74 -45 L 74 -3 L 39 -3" fill="none" stroke="#6d6d6d" stroke-width="1.4"/>
<path d="M 109 -45 L 74 -45 L 74 39 L 39 39" fill="none" stroke="#6d6d6d" stroke-width="1.4"/>
<path d="M 450 -130 L 699 -172" fill="none" stroke="#6d6d6d" stroke-width="1.4"/>
<path d="M 807 -172 L 842 -172 L 842 -235 L 877 -235" fill="none" stroke="#6d6d6d" stroke-width="1.4"/>
<path d="M 807 -172 L 842 -172 L 842 -193 L 877 -193" fill="none" stroke="#6d6d6d" stroke-width="1.4"/>
<path d="M 807 -172 L 842 -172 L 842 -151 L 877 -151" fill="none" stroke="#6d6d6d" stroke-width="1.4"/>
<path d="M 807 -172 L 842 -172 L 842 -109 L 877 -109" fill="none" stroke="#6d6d6d" stroke-width="1.4"/>
<path d="M 450 -220 L 217 -262" fill="none" stroke="#6d6d6d" stroke-width="1.4"/>
<path d="M 109 -262 L 74 -262 L 74 -353 L 39 -353" fill="none" stroke="#6d6d6d" stroke-width="1.4"/>
<path d="M 109 -262 L 74 -262 L 74 -311 L 39 -311" fill="none" stroke="#6d6d6d" stroke-width="1.4"/>
<path d="M 109 -262 L 74 -262 L 74 -262 L 39 -262" fill="none" stroke="#6d6d6d" stroke-width="1.4"/>
<path d="M 109 -262 L 74 -262 L 74 -213 L 39 -213" fill="none" stroke="#6d6d6d" stroke-width="1.4"/>
<path d="M 109 -262 L 74 -262 L 74 -171 L 39 -171" fill="none" stroke="#6d6d6d" stroke-width="1.4"/>
<path d="M 450 -347 L 673 -389" fill="none" stroke="#6d6d6d" stroke-width="1.4"/>
<path d="M 781 -389 L 816 -389 L 816 -494 L 851 -494" fill="none" stroke="#6d6d6d" stroke-width="1.4"/>
<path d="M 781 -389 L 816 -389 L 816 -445 L 851 -445" fill="none" stroke="#6d6d6d" stroke-width="1.4"/>
<path d="M 781 -389 L 816 -389 L 816 -403 L 851 -403" fill="none" stroke="#6d6d6d" stroke-width="1.4"/>
<path d="M 781 -389 L 816 -389 L 816 -361 L 851 -361" fill="none" stroke="#6d6d6d" stroke-width="1.4"/>
<path d="M 781 -389 L 816 -389 L 816 -319 L 851 -319" fill="none" stroke="#6d6d6d" stroke-width="1.4"/>
<path d="M 450 -458 L 291 -500" fill="none" stroke="#6d6d6d" stroke-width="1.4"/>
<path d="M 183 -500 L 148 -500 L 148 -605 L 113 -605" fill="none" stroke="#6d6d6d" stroke-width="1.4"/>
<path d="M 183 -500 L 148 -500 L 148 -521 L 113 -521" fill="none" stroke="#6d6d6d" stroke-width="1.4"/>
<path d="M 183 -500 L 148 -500 L 148 -437 L 113 -437" fill="none" stroke="#6d6d6d" stroke-width="1.4"/>
<path d="M 183 -500 L 148 -500 L 148 -395 L 113 -395" fill="none" stroke="#6d6d6d" stroke-width="1.4"/>
<path d="M 454 407 C 457.1721318683182 527.2857396393503, 421.651648353978 548.7653360035199, 493.651648353978 621.7959636416969" fill="none" stroke="#6d6d6d" stroke-width="1.4"/>
<path d="M 605.651648353978 621.7959636416969 L 676.651648353978 621.7959636416969 L 676.651648353978 540.7959636416969 L 747.651648353978 540.7959636416969" fill="none" stroke="#6d6d6d" stroke-width="1.4"/>
<path d="M 605.651648353978 621.7959636416969 L 676.651648353978 621.7959636416969 L 676.651648353978 594.7959636416969 L 747.651648353978 594.7959636416969" fill="none" stroke="#6d6d6d" stroke-width="1.4"/>
<path d="M 605.651648353978 621.7959636416969 L 676.651648353978 621.7959636416969 L 676.651648353978 648.7959636416969 L 747.651648353978 648.7959636416969" fill="none" stroke="#6d6d6d" stroke-width="1.4"/>
<path d="M 605.651648353978 621.7959636416969 L 676.651648353978 621.7959636416969 L 676.651648353978 702.7959636416969 L 747.651648353978 702.7959636416969" fill="none" stroke="#6d6d6d" stroke-width="1.4"/>
<path d="M 442 395 C 428.36909084714796 449.14313003061204, 343.61363558934977 458.811546107507, 271.61363558934977 491.68416076895005" fill="none" stroke="#6d6d6d" stroke-width="1.4"/>
<path d="M 159.61363558934977 491.68416076895005 L 88.61363558934977 491.68416076895005 L 88.61363558934977 463 L 17.61363558934977 463" fill="none" stroke="#6d6d6d" stroke-width="1.4"/>
<path d="M 159.61363558934977 491.68416076895005 L 88.61363558934977 491.68416076895005 L 88.61363558934977 517 L 17.61363558934977 517" fill="none" stroke="#6d6d6d" stroke-width="1.4"/>
<path d="M 159.61363558934977 491.68416076895005 L 88.61363558934977 491.68416076895005 L 88.61363558934977 571 L 17.61363558934977 571" fill="none" stroke="#6d6d6d" stroke-width="1.4"/>
<path d="M 159.61363558934977 491.68416076895005 L 88.61363558934977 491.68416076895005 L 88.61363558934977 625 L 17.61363558934977 625" fill="none" stroke="#6d6d6d" stroke-width="1.4"/>
<path d="M 458 395 C 478 632.1574513958793, 809.7733888993366 674.5069962880006, 989.7733888993366 818.495448921213" fill="none" stroke="#6d6d6d" stroke-width="1.4"/>
<path d="M 1101.7733888993366 818.495448921213 L 1172.7733888993366 818.495448921213 L 1172.7733888993366 737.495448921213 L 1243.7733888993366 737.495448921213" fill="none" stroke="#6d6d6d" stroke-width="1.4"/>
<path d="M 1101.7733888993366 818.495448921213 L 1172.7733888993366 818.495448921213 L 1172.7733888993366 791.495448921213 L 1243.7733888993366 791.495448921213" fill="none" stroke="#6d6d6d" stroke-width="1.4"/>
<path d="M 1101.7733888993366 818.495448921213 L 1172.7733888993366 818.495448921213 L 1172.7733888993366 845.495448921213 L 1243.7733888993366 845.495448921213" fill="none" stroke="#6d6d6d" stroke-width="1.4"/>
<path d="M 1101.7733888993366 818.495448921213 L 1172.7733888993366 818.495448921213 L 1172.7733888993366 899.495448921213 L 1243.7733888993366 899.495448921213" fill="none" stroke="#6d6d6d" stroke-width="1.4"/>
<path d="M 445 390 C 425 449.5438195147544, -76.56480451855964 460.1766444281034, -256.56480451855964 496.32824913349" fill="none" stroke="#6d6d6d" stroke-width="1.4"/>
<path d="M -368.56480451855964 496.32824913349 L -439.56480451855964 496.32824913349 L -439.56480451855964 463 L -510.56480451855964 463" fill="none" stroke="#6d6d6d" stroke-width="1.4"/>
<path d="M -368.56480451855964 496.32824913349 L -439.56480451855964 496.32824913349 L -439.56480451855964 517 L -510.56480451855964 517" fill="none" stroke="#6d6d6d" stroke-width="1.4"/>
<path d="M -368.56480451855964 496.32824913349 L -439.56480451855964 496.32824913349 L -439.56480451855964 571 L -510.56480451855964 571" fill="none" stroke="#6d6d6d" stroke-width="1.4"/>
<path d="M -368.56480451855964 496.32824913349 L -439.56480451855964 496.32824913349 L -439.56480451855964 625 L -510.56480451855964 625" fill="none" stroke="#6d6d6d" stroke-width="1.4"/>
<path d="M 455 390 C 475 448.9292455730495, 816.7934983253981 459.45232513966545, 996.7934983253981 495.2307956661598" fill="none" stroke="#6d6d6d" stroke-width="1.4"/>
<path d="M 1108.793498325398 495.2307956661598 L 1179.793498325398 495.2307956661598 L 1179.793498325398 463 L 1250.793498325398 463" fill="none" stroke="#6d6d6d" stroke-width="1.4"/>
<path d="M 1108.793498325398 495.2307956661598 L 1179.793498325398 495.2307956661598 L 1179.793498325398 517 L 1250.793498325398 517" fill="none" stroke="#6d6d6d" stroke-width="1.4"/>
<path d="M 1108.793498325398 495.2307956661598 L 1179.793498325398 495.2307956661598 L 1179.793498325398 571 L 1250.793498325398 571" fill="none" stroke="#6d6d6d" stroke-width="1.4"/>
<path d="M 1108.793498325398 495.2307956661598 L 1179.793498325398 495.2307956661598 L 1179.793498325398 625 L 1250.793498325398 625" fill="none" stroke="#6d6d6d" stroke-width="1.4"/>
<path d="M 1108.793498325398 495.2307956661598 L 1179.793498325398 495.2307956661598 L 1179.793498325398 679 L 1250.793498325398 679" fill="none" stroke="#6d6d6d" stroke-width="1.4"/>
<path d="M -368.56480451855964 496.32824913349 L -439.56480451855964 496.32824913349 L -439.56480451855964 679 L -510.56480451855964 679" fill="none" stroke="#6d6d6d" stroke-width="1.4"/>
<path d="M 781 -389 L 816 -389 L 816 -277 L 851 -277" fill="none" stroke="#6d6d6d" stroke-width="1.4"/>
<path d="M 5 -521 L -30 -521 L -30 -563 L -65 -563" fill="none" stroke="#6d6d6d" stroke-width="1.4"/>
<path d="M 5 -521 L -30 -521 L -30 -521 L -65 -521" fill="none" stroke="#6d6d6d" stroke-width="1.4"/>
<path d="M 5 -521 L -30 -521 L -30 -479 L -65 -479" fill="none" stroke="#6d6d6d" stroke-width="1.4"/>
<path d="M 450 -508 L 611 -550" fill="none" stroke="#6d6d6d" stroke-width="1.4"/>
<path d="M 719 -550 L 754 -550 L 754 -550 L 789 -550" fill="none" stroke="#6d6d6d" stroke-width="1.4"/>
  <path d="M 450 -536 C 449 -462, 452 292, 450 420" fill="none" stroke="#705e51" stroke-width="8" stroke-linecap="round" opacity="0.84"/><path d="M 450 410 C 432 417, 408 420, 374 424" fill="none" stroke="#705e51" stroke-width="5.2" stroke-linecap="round" opacity="0.62"/><path d="M 450 410 C 468 417, 492 420, 526 424" fill="none" stroke="#705e51" stroke-width="5.2" stroke-linecap="round" opacity="0.62"/><path d="M 450 399 C 444 408, 442 415, 450 424 C 458 415, 456 408, 450 399" fill="rgba(112, 94, 81, 0.28)" stroke="none"/>
<g transform="translate(665 185)"><rect x="-54" y="-17" width="108" height="34" rx="6" fill="#f8fbf4" stroke="#7a9a6d" stroke-width="1.5"/><text text-anchor="middle" dominant-baseline="middle" font-size="13" font-weight="700" fill="#232323">相遇</text></g>
<g transform="translate(843 101)"><rect x="-54" y="-17" width="108" height="34" rx="6" fill="#f8fbf4" stroke="#7a9a6d" stroke-width="1.5"/><text text-anchor="middle" dominant-baseline="middle" font-size="13" font-weight="700" fill="#232323">派派</text></g>
<g transform="translate(843 143)"><rect x="-54" y="-17" width="108" height="34" rx="6" fill="#f8fbf4" stroke="#7a9a6d" stroke-width="1.5"/><text text-anchor="middle" dominant-baseline="middle" font-size="13" font-weight="700" fill="#232323">友谊之舟</text></g>
<g transform="translate(843 185)"><rect x="-54" y="-17" width="108" height="34" rx="6" fill="#f8fbf4" stroke="#7a9a6d" stroke-width="1.5"/><text text-anchor="middle" dominant-baseline="middle" font-size="13" font-weight="700" fill="#232323">神秘人</text></g>
<g transform="translate(843 227)"><rect x="-54" y="-17" width="108" height="34" rx="6" fill="#f8fbf4" stroke="#7a9a6d" stroke-width="1.5"/><text text-anchor="middle" dominant-baseline="middle" font-size="13" font-weight="700" fill="#232323">加好友声讨</text></g>
<g transform="translate(843 269)"><rect x="-54" y="-17" width="108" height="34" rx="6" fill="#f8fbf4" stroke="#7a9a6d" stroke-width="1.5"/><text text-anchor="middle" dominant-baseline="middle" font-size="13" font-weight="700" fill="#232323">没有争吵的开场</text></g>
<g transform="translate(237 186)"><rect x="-54" y="-17" width="108" height="34" rx="6" fill="#f8fbf4" stroke="#7a9a6d" stroke-width="1.5"/><text text-anchor="middle" dominant-baseline="middle" font-size="13" font-weight="700" fill="#232323">靠近</text></g>
<g transform="translate(59 81)"><rect x="-54" y="-17" width="108" height="34" rx="6" fill="#f8fbf4" stroke="#7a9a6d" stroke-width="1.5"/><text text-anchor="middle" dominant-baseline="middle" font-size="13" font-weight="700" fill="#232323">讲清规则</text></g>
<g transform="translate(59 123)"><rect x="-54" y="-17" width="108" height="34" rx="6" fill="#f8fbf4" stroke="#7a9a6d" stroke-width="1.5"/><text text-anchor="middle" dominant-baseline="middle" font-size="13" font-weight="700" fill="#232323">越聊越多</text></g>
<g transform="translate(59 165)"><rect x="-54" y="-17" width="108" height="34" rx="6" fill="#f8fbf4" stroke="#7a9a6d" stroke-width="1.5"/><text text-anchor="middle" dominant-baseline="middle" font-size="13" font-weight="700" fill="#232323">加微信</text></g>
<g transform="translate(59 207)"><rect x="-54" y="-17" width="108" height="34" rx="6" fill="#f8fbf4" stroke="#7a9a6d" stroke-width="1.5"/><text text-anchor="middle" dominant-baseline="middle" font-size="13" font-weight="700" fill="#232323">吵吵闹闹</text></g>
<g transform="translate(59 249)"><rect x="-54" y="-17" width="108" height="34" rx="6" fill="#f8fbf4" stroke="#7a9a6d" stroke-width="1.5"/><text text-anchor="middle" dominant-baseline="middle" font-size="13" font-weight="700" fill="#232323">像百灵鸟</text></g>
<g transform="translate(59 291)"><rect x="-54" y="-17" width="108" height="34" rx="6" fill="#f8fbf4" stroke="#7a9a6d" stroke-width="1.5"/><text text-anchor="middle" dominant-baseline="middle" font-size="13" font-weight="700" fill="#232323">分享越来越多</text></g>
<g transform="translate(727 -4)"><rect x="-54" y="-17" width="108" height="34" rx="6" fill="#f8fbf4" stroke="#7a9a6d" stroke-width="1.5"/><text text-anchor="middle" dominant-baseline="middle" font-size="13" font-weight="700" fill="#232323">心动</text></g>
<g transform="translate(905 -67)"><rect x="-54" y="-17" width="108" height="34" rx="6" fill="#f8fbf4" stroke="#7a9a6d" stroke-width="1.5"/><text text-anchor="middle" dominant-baseline="middle" font-size="13" font-weight="700" fill="#232323">慢慢喜欢</text></g>
<g transform="translate(905 -25)"><rect x="-54" y="-17" width="108" height="34" rx="6" fill="#f8fbf4" stroke="#7a9a6d" stroke-width="1.5"/><text text-anchor="middle" dominant-baseline="middle" font-size="13" font-weight="700" fill="#232323">想一起玩</text></g>
<g transform="translate(905 17)"><rect x="-54" y="-17" width="108" height="34" rx="6" fill="#f8fbf4" stroke="#7a9a6d" stroke-width="1.5"/><text text-anchor="middle" dominant-baseline="middle" font-size="13" font-weight="700" fill="#232323">东盟与西盟</text></g>
<g transform="translate(905 59)"><rect x="-54" y="-17" width="108" height="34" rx="6" fill="#f8fbf4" stroke="#7a9a6d" stroke-width="1.5"/><text text-anchor="middle" dominant-baseline="middle" font-size="13" font-weight="700" fill="#232323">期待她来到身边</text></g>
<g transform="translate(163 -45)"><rect x="-54" y="-17" width="108" height="34" rx="6" fill="#f8fbf4" stroke="#7a9a6d" stroke-width="1.5"/><text text-anchor="middle" dominant-baseline="middle" font-size="13" font-weight="700" fill="#232323">命名</text></g>
<g transform="translate(-15 -129)"><rect x="-54" y="-17" width="108" height="34" rx="6" fill="#f8fbf4" stroke="#7a9a6d" stroke-width="1.5"/><text text-anchor="middle" dominant-baseline="middle" font-size="13" font-weight="700" fill="#232323">盛夏</text></g>
<g transform="translate(-15 -87)"><rect x="-54" y="-17" width="108" height="34" rx="6" fill="#f8fbf4" stroke="#7a9a6d" stroke-width="1.5"/><text text-anchor="middle" dominant-baseline="middle" font-size="13" font-weight="700" fill="#232323">芬德拉</text></g>
<g transform="translate(-15 -45)"><rect x="-54" y="-17" width="108" height="34" rx="6" fill="#f8fbf4" stroke="#7a9a6d" stroke-width="1.5"/><text text-anchor="middle" dominant-baseline="middle" font-size="13" font-weight="700" fill="#232323">短剧里的名字</text></g>
<g transform="translate(-15 -3)"><rect x="-54" y="-17" width="108" height="34" rx="6" fill="#f8fbf4" stroke="#7a9a6d" stroke-width="1.5"/><text text-anchor="middle" dominant-baseline="middle" font-size="13" font-weight="700" fill="#232323">真诚相爱</text></g>
<g transform="translate(-15 39)"><rect x="-54" y="-17" width="108" height="34" rx="6" fill="#f8fbf4" stroke="#7a9a6d" stroke-width="1.5"/><text text-anchor="middle" dominant-baseline="middle" font-size="13" font-weight="700" fill="#232323">彼此独立</text></g>
<g transform="translate(753 -172)"><rect x="-54" y="-17" width="108" height="34" rx="6" fill="#f8fbf4" stroke="#7a9a6d" stroke-width="1.5"/><text text-anchor="middle" dominant-baseline="middle" font-size="13" font-weight="700" fill="#232323">思念</text></g>
<g transform="translate(931 -235)"><rect x="-54" y="-17" width="108" height="34" rx="6" fill="#f8fbf4" stroke="#7a9a6d" stroke-width="1.5"/><text text-anchor="middle" dominant-baseline="middle" font-size="13" font-weight="700" fill="#232323">春节旅行</text></g>
<g transform="translate(931 -193)"><rect x="-54" y="-17" width="108" height="34" rx="6" fill="#f8fbf4" stroke="#7a9a6d" stroke-width="1.5"/><text text-anchor="middle" dominant-baseline="middle" font-size="13" font-weight="700" fill="#232323">旅游间歇</text></g>
<g transform="translate(931 -151)"><rect x="-54" y="-17" width="108" height="34" rx="6" fill="#f8fbf4" stroke="#7a9a6d" stroke-width="1.5"/><text text-anchor="middle" dominant-baseline="middle" font-size="13" font-weight="700" fill="#232323">豆蔻年华</text></g>
<g transform="translate(931 -109)"><rect x="-54" y="-17" width="108" height="34" rx="6" fill="#f8fbf4" stroke="#7a9a6d" stroke-width="1.5"/><text text-anchor="middle" dominant-baseline="middle" font-size="13" font-weight="700" fill="#232323">三百多遍</text></g>
<g transform="translate(163 -262)"><rect x="-54" y="-17" width="108" height="34" rx="6" fill="#f8fbf4" stroke="#7a9a6d" stroke-width="1.5"/><text text-anchor="middle" dominant-baseline="middle" font-size="13" font-weight="700" fill="#232323">告白</text></g>
<g transform="translate(-15 -353)"><rect x="-54" y="-17" width="108" height="34" rx="6" fill="#f8fbf4" stroke="#7a9a6d" stroke-width="1.5"/><text text-anchor="middle" dominant-baseline="middle" font-size="13" font-weight="700" fill="#232323">因前 CP 争吵</text></g>
<g transform="translate(-15 -311)"><rect x="-54" y="-17" width="108" height="34" rx="6" fill="#f8fbf4" stroke="#7a9a6d" stroke-width="1.5"/><text text-anchor="middle" dominant-baseline="middle" font-size="13" font-weight="700" fill="#232323">说出想法</text></g>
<g transform="translate(-15 -262)"><rect x="-54" y="-17" width="108" height="34" rx="6" fill="#f8fbf4" stroke="#7a9a6d" stroke-width="1.5"/><text text-anchor="middle" dominant-baseline="middle" font-size="13" font-weight="700" fill="#232323">计划让她成为芬德拉</text></g>
<g transform="translate(-15 -213)"><rect x="-54" y="-17" width="108" height="34" rx="6" fill="#f8fbf4" stroke="#7a9a6d" stroke-width="1.5"/><text text-anchor="middle" dominant-baseline="middle" font-size="13" font-weight="700" fill="#232323">和好</text></g>
<g transform="translate(-15 -171)"><rect x="-54" y="-17" width="108" height="34" rx="6" fill="#f8fbf4" stroke="#7a9a6d" stroke-width="1.5"/><text text-anchor="middle" dominant-baseline="middle" font-size="13" font-weight="700" fill="#232323">唱豆蔻年华</text></g>
<g transform="translate(727 -389)"><rect x="-54" y="-17" width="108" height="34" rx="6" fill="#f8fbf4" stroke="#7a9a6d" stroke-width="1.5"/><text text-anchor="middle" dominant-baseline="middle" font-size="13" font-weight="700" fill="#232323">赠予</text></g>
<g transform="translate(905 -494)"><rect x="-54" y="-17" width="108" height="34" rx="6" fill="#f8fbf4" stroke="#7a9a6d" stroke-width="1.5"/><text text-anchor="middle" dominant-baseline="middle" font-size="13" font-weight="700" fill="#232323">海风中失落的血色馈赠</text></g>
<g transform="translate(905 -445)"><rect x="-54" y="-17" width="108" height="34" rx="6" fill="#f8fbf4" stroke="#7a9a6d" stroke-width="1.5"/><text text-anchor="middle" dominant-baseline="middle" font-size="13" font-weight="700" fill="#232323">秋</text></g>
<g transform="translate(905 -403)"><rect x="-54" y="-17" width="108" height="34" rx="6" fill="#f8fbf4" stroke="#7a9a6d" stroke-width="1.5"/><text text-anchor="middle" dominant-baseline="middle" font-size="13" font-weight="700" fill="#232323">来自我心</text></g>
<g transform="translate(905 -361)"><rect x="-54" y="-17" width="108" height="34" rx="6" fill="#f8fbf4" stroke="#7a9a6d" stroke-width="1.5"/><text text-anchor="middle" dominant-baseline="middle" font-size="13" font-weight="700" fill="#232323">一首首歌</text></g>
<g transform="translate(905 -319)"><rect x="-54" y="-17" width="108" height="34" rx="6" fill="#f8fbf4" stroke="#7a9a6d" stroke-width="1.5"/><text text-anchor="middle" dominant-baseline="middle" font-size="13" font-weight="700" fill="#232323">一段段朗读</text></g>
<g transform="translate(237 -500)"><rect x="-54" y="-17" width="108" height="34" rx="6" fill="#f8fbf4" stroke="#7a9a6d" stroke-width="1.5"/><text text-anchor="middle" dominant-baseline="middle" font-size="13" font-weight="700" fill="#232323">现在</text></g>
<g transform="translate(59 -605)"><rect x="-54" y="-17" width="108" height="34" rx="6" fill="#f8fbf4" stroke="#7a9a6d" stroke-width="1.5"/><text text-anchor="middle" dominant-baseline="middle" font-size="13" font-weight="700" fill="#232323">吵过很多架</text></g>
<g transform="translate(59 -521)"><rect x="-54" y="-17" width="108" height="34" rx="6" fill="#f8fbf4" stroke="#7a9a6d" stroke-width="1.5"/><text text-anchor="middle" dominant-baseline="middle" font-size="13" font-weight="700" fill="#232323">依然特别爱她</text></g>
<g transform="translate(59 -437)"><rect x="-54" y="-17" width="108" height="34" rx="6" fill="#f8fbf4" stroke="#7a9a6d" stroke-width="1.5"/><text text-anchor="middle" dominant-baseline="middle" font-size="13" font-weight="700" fill="#232323">她满心都是我</text></g>
<g transform="translate(59 -395)"><rect x="-54" y="-17" width="108" height="34" rx="6" fill="#f8fbf4" stroke="#7a9a6d" stroke-width="1.5"/><text text-anchor="middle" dominant-baseline="middle" font-size="13" font-weight="700" fill="#232323">我们还在一起生长</text></g>
<g transform="translate(551.651648353978 621.7959636416969)"><rect x="-54" y="-17" width="108" height="34" rx="6" fill="#f8fbf4" stroke="#7a9a6d" stroke-width="1.5"/><text text-anchor="middle" dominant-baseline="middle" font-size="13" font-weight="700" fill="#232323">游戏缘起</text></g>
<g transform="translate(801.651648353978 540.7959636416969)"><rect x="-54" y="-17" width="108" height="34" rx="6" fill="#f8fbf4" stroke="#7a9a6d" stroke-width="1.5"/><text text-anchor="middle" dominant-baseline="middle" font-size="13" font-weight="700" fill="#232323">派派</text></g>
<g transform="translate(801.651648353978 594.7959636416969)"><rect x="-54" y="-17" width="108" height="34" rx="6" fill="#f8fbf4" stroke="#7a9a6d" stroke-width="1.5"/><text text-anchor="middle" dominant-baseline="middle" font-size="13" font-weight="700" fill="#232323">友谊之舟机制</text></g>
<g transform="translate(801.651648353978 648.7959636416969)"><rect x="-54" y="-17" width="108" height="34" rx="6" fill="#f8fbf4" stroke="#7a9a6d" stroke-width="1.5"/><text text-anchor="middle" dominant-baseline="middle" font-size="13" font-weight="700" fill="#232323">神秘人事件</text></g>
<g transform="translate(801.651648353978 702.7959636416969)"><rect x="-54" y="-17" width="108" height="34" rx="6" fill="#f8fbf4" stroke="#7a9a6d" stroke-width="1.5"/><text text-anchor="middle" dominant-baseline="middle" font-size="13" font-weight="700" fill="#232323">不同联盟</text></g>
<g transform="translate(213.61363558934977 491.68416076895005)"><rect x="-54" y="-17" width="108" height="34" rx="6" fill="#f8fbf4" stroke="#7a9a6d" stroke-width="1.5"/><text text-anchor="middle" dominant-baseline="middle" font-size="13" font-weight="700" fill="#232323">她的样子</text></g>
<g transform="translate(-36.38636441065023 463)"><rect x="-54" y="-17" width="108" height="34" rx="6" fill="#f8fbf4" stroke="#7a9a6d" stroke-width="1.5"/><text text-anchor="middle" dominant-baseline="middle" font-size="13" font-weight="700" fill="#232323">活泼</text></g>
<g transform="translate(-36.38636441065023 517)"><rect x="-54" y="-17" width="108" height="34" rx="6" fill="#f8fbf4" stroke="#7a9a6d" stroke-width="1.5"/><text text-anchor="middle" dominant-baseline="middle" font-size="13" font-weight="700" fill="#232323">吵吵闹闹</text></g>
<g transform="translate(-36.38636441065023 571)"><rect x="-54" y="-17" width="108" height="34" rx="6" fill="#f8fbf4" stroke="#7a9a6d" stroke-width="1.5"/><text text-anchor="middle" dominant-baseline="middle" font-size="13" font-weight="700" fill="#232323">像百灵鸟</text></g>
<g transform="translate(-36.38636441065023 625)"><rect x="-54" y="-17" width="108" height="34" rx="6" fill="#f8fbf4" stroke="#7a9a6d" stroke-width="1.5"/><text text-anchor="middle" dominant-baseline="middle" font-size="13" font-weight="700" fill="#232323">愿意分享</text></g>
<g transform="translate(1047.7733888993366 818.495448921213)"><rect x="-54" y="-17" width="108" height="34" rx="6" fill="#f8fbf4" stroke="#7a9a6d" stroke-width="1.5"/><text text-anchor="middle" dominant-baseline="middle" font-size="13" font-weight="700" fill="#232323">我的感受</text></g>
<g transform="translate(1297.7733888993366 737.495448921213)"><rect x="-54" y="-17" width="108" height="34" rx="6" fill="#f8fbf4" stroke="#7a9a6d" stroke-width="1.5"/><text text-anchor="middle" dominant-baseline="middle" font-size="13" font-weight="700" fill="#232323">耐心解释</text></g>
<g transform="translate(1297.7733888993366 791.495448921213)"><rect x="-54" y="-17" width="108" height="34" rx="6" fill="#f8fbf4" stroke="#7a9a6d" stroke-width="1.5"/><text text-anchor="middle" dominant-baseline="middle" font-size="13" font-weight="700" fill="#232323">慢慢喜欢</text></g>
<g transform="translate(1297.7733888993366 845.495448921213)"><rect x="-54" y="-17" width="108" height="34" rx="6" fill="#f8fbf4" stroke="#7a9a6d" stroke-width="1.5"/><text text-anchor="middle" dominant-baseline="middle" font-size="13" font-weight="700" fill="#232323">旅游途中想她</text></g>
<g transform="translate(1297.7733888993366 899.495448921213)"><rect x="-54" y="-17" width="108" height="34" rx="6" fill="#f8fbf4" stroke="#7a9a6d" stroke-width="1.5"/><text text-anchor="middle" dominant-baseline="middle" font-size="13" font-weight="700" fill="#232323">想和她一起玩</text></g>
<g transform="translate(-314.56480451855964 496.32824913349)"><rect x="-54" y="-17" width="108" height="34" rx="6" fill="#f8fbf4" stroke="#7a9a6d" stroke-width="1.5"/><text text-anchor="middle" dominant-baseline="middle" font-size="13" font-weight="700" fill="#232323">我们的象征</text></g>
<g transform="translate(-564.5648045185596 463)"><rect x="-54" y="-17" width="108" height="34" rx="6" fill="#f8fbf4" stroke="#7a9a6d" stroke-width="1.5"/><text text-anchor="middle" dominant-baseline="middle" font-size="13" font-weight="700" fill="#232323">盛夏</text></g>
<g transform="translate(-564.5648045185596 517)"><rect x="-54" y="-17" width="108" height="34" rx="6" fill="#f8fbf4" stroke="#7a9a6d" stroke-width="1.5"/><text text-anchor="middle" dominant-baseline="middle" font-size="13" font-weight="700" fill="#232323">芬德拉</text></g>
<g transform="translate(-564.5648045185596 571)"><rect x="-54" y="-17" width="108" height="34" rx="6" fill="#f8fbf4" stroke="#7a9a6d" stroke-width="1.5"/><text text-anchor="middle" dominant-baseline="middle" font-size="13" font-weight="700" fill="#232323">豆蔻年华</text></g>
<g transform="translate(-564.5648045185596 625)"><rect x="-54" y="-17" width="108" height="34" rx="6" fill="#f8fbf4" stroke="#7a9a6d" stroke-width="1.5"/><text text-anchor="middle" dominant-baseline="middle" font-size="13" font-weight="700" fill="#232323">来自我心</text></g>
<g transform="translate(1054.793498325398 495.2307956661598)"><rect x="-54" y="-17" width="108" height="34" rx="6" fill="#f8fbf4" stroke="#7a9a6d" stroke-width="1.5"/><text text-anchor="middle" dominant-baseline="middle" font-size="13" font-weight="700" fill="#232323">冲突与确认</text></g>
<g transform="translate(1304.793498325398 463)"><rect x="-54" y="-17" width="108" height="34" rx="6" fill="#f8fbf4" stroke="#7a9a6d" stroke-width="1.5"/><text text-anchor="middle" dominant-baseline="middle" font-size="13" font-weight="700" fill="#232323">前 CP</text></g>
<g transform="translate(1304.793498325398 517)"><rect x="-54" y="-17" width="108" height="34" rx="6" fill="#f8fbf4" stroke="#7a9a6d" stroke-width="1.5"/><text text-anchor="middle" dominant-baseline="middle" font-size="13" font-weight="700" fill="#232323">争吵</text></g>
<g transform="translate(1304.793498325398 571)"><rect x="-54" y="-17" width="108" height="34" rx="6" fill="#f8fbf4" stroke="#7a9a6d" stroke-width="1.5"/><text text-anchor="middle" dominant-baseline="middle" font-size="13" font-weight="700" fill="#232323">和好</text></g>
<g transform="translate(1304.793498325398 625)"><rect x="-54" y="-17" width="108" height="34" rx="6" fill="#f8fbf4" stroke="#7a9a6d" stroke-width="1.5"/><text text-anchor="middle" dominant-baseline="middle" font-size="13" font-weight="700" fill="#232323">说出计划</text></g>
<g transform="translate(1304.793498325398 679)"><rect x="-54" y="-17" width="108" height="34" rx="6" fill="#f8fbf4" stroke="#7a9a6d" stroke-width="1.5"/><text text-anchor="middle" dominant-baseline="middle" font-size="13" font-weight="700" fill="#232323">更确定彼此</text></g>
<g transform="translate(-564.5648045185596 679)"><rect x="-54" y="-17" width="108" height="34" rx="6" fill="#ffffff" stroke="#7a9a6d" stroke-width="1.5"/><text text-anchor="middle" dominant-baseline="middle" font-size="13" font-weight="700" fill="#232323">神秘嘉宾</text></g>
<g transform="translate(905 -277)"><rect x="-54" y="-17" width="108" height="34" rx="6" fill="#ffffff" stroke="#7a9a6d" stroke-width="1.5"/><text text-anchor="middle" dominant-baseline="middle" font-size="13" font-weight="700" fill="#232323">分享照片</text></g>
<g transform="translate(-119 -563)"><rect x="-54" y="-17" width="108" height="34" rx="6" fill="#94e3fe" stroke="#7a9a6d" stroke-width="1.5"/><text text-anchor="middle" dominant-baseline="middle" font-size="13" font-weight="700" fill="#232323">盛夏</text></g>
<g transform="translate(-119 -521)"><rect x="-54" y="-17" width="108" height="34" rx="6" fill="#e392fe" stroke="#ffa57d" stroke-width="1.5"/><text text-anchor="middle" dominant-baseline="middle" font-size="13" font-weight="700" fill="#232323">❤️</text></g>
<g transform="translate(-119 -479)"><rect x="-54" y="-17" width="108" height="34" rx="6" fill="#94e3fe" stroke="#7a9a6d" stroke-width="1.5"/><text text-anchor="middle" dominant-baseline="middle" font-size="13" font-weight="700" fill="#232323">芬德拉</text></g>
<g transform="translate(665 -550)"><rect x="-54" y="-17" width="108" height="34" rx="6" fill="#ffffff" stroke="#7a9a6d" stroke-width="1.5"/><text text-anchor="middle" dominant-baseline="middle" font-size="13" font-weight="700" fill="#232323">右树枝</text></g>
<g transform="translate(843 -550)"><rect x="-54" y="-17" width="108" height="34" rx="6" fill="#b18cfe" stroke="#b92d5d" stroke-width="1.5"/><text text-anchor="middle" dominant-baseline="middle" font-size="13" font-weight="700" fill="#232323">2026-06-30
game over</text></g>
</svg>
