<svg xmlns="http://www.w3.org/2000/svg" viewBox="-738.6 -742 2217.4 1802.5" width="2217.4" height="1802.5">
  <rect x="-738.6" y="-742" width="2217.4" height="1802.5" fill="#fffcf6"/>
  <text x="-714.6" y="-706" font-size="18" font-weight="700" fill="#2f241b">sxfdl.nt</text>
  <line x1="-738.6" y1="390" x2="1478.8000000000002" y2="390" stroke="#d8cab7" stroke-dasharray="6 6"/>
  <path d="M 450 227 L 634 185" fill="none" stroke="#6d6d6d" stroke-width="1.4"/>
<path d="M 742 185 L 777 185 L 777 101 L 812 101" fill="none" stroke="#6d6d6d" stroke-width="1.4"/>
<path d="M 742 185 L 777 185 L 777 143 L 812 143" fill="none" stroke="#6d6d6d" stroke-width="1.4"/>
<path d="M 742 185 L 777 185 L 777 185 L 812 185" fill="none" stroke="#6d6d6d" stroke-width="1.4"/>
<path d="M 742 185 L 777 185 L 777 227 L 812 227" fill="none" stroke="#6d6d6d" stroke-width="1.4"/>
<path d="M 742 185 L 777 185 L 777 269 L 812 269" fill="none" stroke="#6d6d6d" stroke-width="1.4"/>
<path d="M 450 228 L 266 186" fill="none" stroke="#6d6d6d" stroke-width="1.4"/>
<path d="M 158 186 L 123 186 L 123 81 L 88 81" fill="none" stroke="#6d6d6d" stroke-width="1.4"/>
<path d="M 158 186 L 123 186 L 123 123 L 88 123" fill="none" stroke="#6d6d6d" stroke-width="1.4"/>
<path d="M 158 186 L 123 186 L 123 165 L 88 165" fill="none" stroke="#6d6d6d" stroke-width="1.4"/>
<path d="M 158 186 L 123 186 L 123 207 L 88 207" fill="none" stroke="#6d6d6d" stroke-width="1.4"/>
<path d="M 158 186 L 123 186 L 123 249 L 88 249" fill="none" stroke="#6d6d6d" stroke-width="1.4"/>
<path d="M 158 186 L 123 186 L 123 291 L 88 291" fill="none" stroke="#6d6d6d" stroke-width="1.4"/>
<path d="M 450 38 L 634 -4" fill="none" stroke="#6d6d6d" stroke-width="1.4"/>
<path d="M 742 -4 L 777 -4 L 777 -67 L 812 -67" fill="none" stroke="#6d6d6d" stroke-width="1.4"/>
<path d="M 742 -4 L 777 -4 L 777 -25 L 812 -25" fill="none" stroke="#6d6d6d" stroke-width="1.4"/>
<path d="M 742 -4 L 777 -4 L 777 17 L 812 17" fill="none" stroke="#6d6d6d" stroke-width="1.4"/>
<path d="M 742 -4 L 777 -4 L 777 59 L 812 59" fill="none" stroke="#6d6d6d" stroke-width="1.4"/>
<path d="M 450 -3 L 266 -45" fill="none" stroke="#6d6d6d" stroke-width="1.4"/>
<path d="M 158 -45 L 123 -45 L 123 -129 L 88 -129" fill="none" stroke="#6d6d6d" stroke-width="1.4"/>
<path d="M 158 -45 L 123 -45 L 123 -87 L 88 -87" fill="none" stroke="#6d6d6d" stroke-width="1.4"/>
<path d="M 158 -45 L 123 -45 L 123 -45 L 88 -45" fill="none" stroke="#6d6d6d" stroke-width="1.4"/>
<path d="M 158 -45 L 123 -45 L 123 -3 L 88 -3" fill="none" stroke="#6d6d6d" stroke-width="1.4"/>
<path d="M 158 -45 L 123 -45 L 123 39 L 88 39" fill="none" stroke="#6d6d6d" stroke-width="1.4"/>
<path d="M 450 -130 L 634 -172" fill="none" stroke="#6d6d6d" stroke-width="1.4"/>
<path d="M 742 -172 L 777 -172 L 777 -235 L 812 -235" fill="none" stroke="#6d6d6d" stroke-width="1.4"/>
<path d="M 742 -172 L 777 -172 L 777 -193 L 812 -193" fill="none" stroke="#6d6d6d" stroke-width="1.4"/>
<path d="M 742 -172 L 777 -172 L 777 -151 L 812 -151" fill="none" stroke="#6d6d6d" stroke-width="1.4"/>
<path d="M 742 -172 L 777 -172 L 777 -109 L 812 -109" fill="none" stroke="#6d6d6d" stroke-width="1.4"/>
<path d="M 450 -220 L 266 -262" fill="none" stroke="#6d6d6d" stroke-width="1.4"/>
<path d="M 158 -262 L 123 -262 L 123 -353 L 88 -353" fill="none" stroke="#6d6d6d" stroke-width="1.4"/>
<path d="M 158 -262 L 123 -262 L 123 -311 L 88 -311" fill="none" stroke="#6d6d6d" stroke-width="1.4"/>
<path d="M 158 -262 L 123 -262 L 123 -262 L 88 -262" fill="none" stroke="#6d6d6d" stroke-width="1.4"/>
<path d="M 158 -262 L 123 -262 L 123 -213 L 88 -213" fill="none" stroke="#6d6d6d" stroke-width="1.4"/>
<path d="M 158 -262 L 123 -262 L 123 -171 L 88 -171" fill="none" stroke="#6d6d6d" stroke-width="1.4"/>
<path d="M 450 -347 L 634 -389" fill="none" stroke="#6d6d6d" stroke-width="1.4"/>
<path d="M 742 -389 L 777 -389 L 777 -494 L 812 -494" fill="none" stroke="#6d6d6d" stroke-width="1.4"/>
<path d="M 742 -389 L 777 -389 L 777 -445 L 812 -445" fill="none" stroke="#6d6d6d" stroke-width="1.4"/>
<path d="M 742 -389 L 777 -389 L 777 -403 L 812 -403" fill="none" stroke="#6d6d6d" stroke-width="1.4"/>
<path d="M 742 -389 L 777 -389 L 777 -361 L 812 -361" fill="none" stroke="#6d6d6d" stroke-width="1.4"/>
<path d="M 742 -389 L 777 -389 L 777 -319 L 812 -319" fill="none" stroke="#6d6d6d" stroke-width="1.4"/>
<path d="M 450 -458 L 266 -500" fill="none" stroke="#6d6d6d" stroke-width="1.4"/>
<path d="M 158 -500 L 123 -500 L 123 -605 L 88 -605" fill="none" stroke="#6d6d6d" stroke-width="1.4"/>
<path d="M 158 -500 L 123 -500 L 123 -521 L 88 -521" fill="none" stroke="#6d6d6d" stroke-width="1.4"/>
<path d="M 158 -500 L 123 -500 L 123 -437 L 88 -437" fill="none" stroke="#6d6d6d" stroke-width="1.4"/>
<path d="M 158 -500 L 123 -500 L 123 -395 L 88 -395" fill="none" stroke="#6d6d6d" stroke-width="1.4"/>
<path d="M 454 407 C 457.1721318683182 527.2857396393503, 421.651648353978 548.7653360035199, 493.651648353978 621.7959636416969" fill="none" stroke="#6d6d6d" stroke-width="1.4"/>
<path d="M 605.651648353978 621.7959636416969 L 676.651648353978 621.7959636416969 L 676.651648353978 516.7959636416969 L 747.651648353978 516.7959636416969" fill="none" stroke="#6d6d6d" stroke-width="1.4"/>
<path d="M 605.651648353978 621.7959636416969 L 676.651648353978 621.7959636416969 L 676.651648353978 586.7959636416969 L 747.651648353978 586.7959636416969" fill="none" stroke="#6d6d6d" stroke-width="1.4"/>
<path d="M 605.651648353978 621.7959636416969 L 676.651648353978 621.7959636416969 L 676.651648353978 656.7959636416969 L 747.651648353978 656.7959636416969" fill="none" stroke="#6d6d6d" stroke-width="1.4"/>
<path d="M 605.651648353978 621.7959636416969 L 676.651648353978 621.7959636416969 L 676.651648353978 726.7959636416969 L 747.651648353978 726.7959636416969" fill="none" stroke="#6d6d6d" stroke-width="1.4"/>
<path d="M 442 395 C 428.36909084714796 449.14313003061204, 343.61363558934977 458.811546107507, 271.61363558934977 491.68416076895005" fill="none" stroke="#6d6d6d" stroke-width="1.4"/>
<path d="M 159.61363558934977 491.68416076895005 L 88.61363558934977 491.68416076895005 L 88.61363558934977 468 L 17.61363558934977 468" fill="none" stroke="#6d6d6d" stroke-width="1.4"/>
<path d="M 159.61363558934977 491.68416076895005 L 88.61363558934977 491.68416076895005 L 88.61363558934977 538 L 17.61363558934977 538" fill="none" stroke="#6d6d6d" stroke-width="1.4"/>
<path d="M 159.61363558934977 491.68416076895005 L 88.61363558934977 491.68416076895005 L 88.61363558934977 608 L 17.61363558934977 608" fill="none" stroke="#6d6d6d" stroke-width="1.4"/>
<path d="M 159.61363558934977 491.68416076895005 L 88.61363558934977 491.68416076895005 L 88.61363558934977 678 L 17.61363558934977 678" fill="none" stroke="#6d6d6d" stroke-width="1.4"/>
<path d="M 458 395 C 478 632.1574513958793, 809.7733888993366 674.5069962880006, 989.7733888993366 818.495448921213" fill="none" stroke="#6d6d6d" stroke-width="1.4"/>
<path d="M 1101.7733888993366 818.495448921213 L 1172.7733888993366 818.495448921213 L 1172.7733888993366 713.495448921213 L 1243.7733888993366 713.495448921213" fill="none" stroke="#6d6d6d" stroke-width="1.4"/>
<path d="M 1101.7733888993366 818.495448921213 L 1172.7733888993366 818.495448921213 L 1172.7733888993366 783.495448921213 L 1243.7733888993366 783.495448921213" fill="none" stroke="#6d6d6d" stroke-width="1.4"/>
<path d="M 1101.7733888993366 818.495448921213 L 1172.7733888993366 818.495448921213 L 1172.7733888993366 853.495448921213 L 1243.7733888993366 853.495448921213" fill="none" stroke="#6d6d6d" stroke-width="1.4"/>
<path d="M 1101.7733888993366 818.495448921213 L 1172.7733888993366 818.495448921213 L 1172.7733888993366 923.495448921213 L 1243.7733888993366 923.495448921213" fill="none" stroke="#6d6d6d" stroke-width="1.4"/>
<path d="M 445 390 C 425 449.5438195147544, -76.56480451855964 460.1766444281034, -256.56480451855964 496.32824913349" fill="none" stroke="#6d6d6d" stroke-width="1.4"/>
<path d="M -368.56480451855964 496.32824913349 L -439.56480451855964 496.32824913349 L -439.56480451855964 468 L -510.56480451855964 468" fill="none" stroke="#6d6d6d" stroke-width="1.4"/>
<path d="M -368.56480451855964 496.32824913349 L -439.56480451855964 496.32824913349 L -439.56480451855964 538 L -510.56480451855964 538" fill="none" stroke="#6d6d6d" stroke-width="1.4"/>
<path d="M -368.56480451855964 496.32824913349 L -439.56480451855964 496.32824913349 L -439.56480451855964 608 L -510.56480451855964 608" fill="none" stroke="#6d6d6d" stroke-width="1.4"/>
<path d="M -368.56480451855964 496.32824913349 L -439.56480451855964 496.32824913349 L -439.56480451855964 678 L -510.56480451855964 678" fill="none" stroke="#6d6d6d" stroke-width="1.4"/>
<path d="M 455 390 C 475 448.9292455730495, 816.7934983253981 459.45232513966545, 996.7934983253981 495.2307956661598" fill="none" stroke="#6d6d6d" stroke-width="1.4"/>
<path d="M 1108.793498325398 495.2307956661598 L 1179.793498325398 495.2307956661598 L 1179.793498325398 468 L 1250.793498325398 468" fill="none" stroke="#6d6d6d" stroke-width="1.4"/>
<path d="M 1108.793498325398 495.2307956661598 L 1179.793498325398 495.2307956661598 L 1179.793498325398 538 L 1250.793498325398 538" fill="none" stroke="#6d6d6d" stroke-width="1.4"/>
<path d="M 1108.793498325398 495.2307956661598 L 1179.793498325398 495.2307956661598 L 1179.793498325398 608 L 1250.793498325398 608" fill="none" stroke="#6d6d6d" stroke-width="1.4"/>
<path d="M 1108.793498325398 495.2307956661598 L 1179.793498325398 495.2307956661598 L 1179.793498325398 678 L 1250.793498325398 678" fill="none" stroke="#6d6d6d" stroke-width="1.4"/>
<path d="M 1108.793498325398 495.2307956661598 L 1179.793498325398 495.2307956661598 L 1179.793498325398 748 L 1250.793498325398 748" fill="none" stroke="#6d6d6d" stroke-width="1.4"/>
<path d="M -368.56480451855964 496.32824913349 L -439.56480451855964 496.32824913349 L -439.56480451855964 748 L -510.56480451855964 748" fill="none" stroke="#6d6d6d" stroke-width="1.4"/>
<path d="M 742 -389 L 777 -389 L 777 -277 L 812 -277" fill="none" stroke="#6d6d6d" stroke-width="1.4"/>
<path d="M -20 -521 L -55 -521 L -55 -563 L -90 -563" fill="none" stroke="#6d6d6d" stroke-width="1.4"/>
<path d="M -20 -521 L -55 -521 L -55 -521 L -90 -521" fill="none" stroke="#6d6d6d" stroke-width="1.4"/>
<path d="M -20 -521 L -55 -521 L -55 -479 L -90 -479" fill="none" stroke="#6d6d6d" stroke-width="1.4"/>
  <path d="M 450 -486 C 449 -412, 452 292, 450 420" fill="none" stroke="#705e51" stroke-width="8" stroke-linecap="round" opacity="0.84"/><path d="M 450 410 C 432 417, 408 420, 374 424" fill="none" stroke="#705e51" stroke-width="5.2" stroke-linecap="round" opacity="0.62"/><path d="M 450 410 C 468 417, 492 420, 526 424" fill="none" stroke="#705e51" stroke-width="5.2" stroke-linecap="round" opacity="0.62"/><path d="M 450 399 C 444 408, 442 415, 450 424 C 458 415, 456 408, 450 399" fill="rgba(112, 94, 81, 0.28)" stroke="none"/>
<g transform="translate(688 185)"><rect x="-54" y="-17" width="108" height="34" rx="6" fill="#f8fbf4" stroke="#7a9a6d" stroke-width="1.5"/><text text-anchor="middle" dominant-baseline="middle" font-size="13" font-weight="700" fill="#232323">相遇</text></g>
<g transform="translate(866 101)"><rect x="-54" y="-17" width="108" height="34" rx="6" fill="#f8fbf4" stroke="#7a9a6d" stroke-width="1.5"/><text text-anchor="middle" dominant-baseline="middle" font-size="13" font-weight="700" fill="#232323">派派</text></g>
<g transform="translate(866 143)"><rect x="-54" y="-17" width="108" height="34" rx="6" fill="#f8fbf4" stroke="#7a9a6d" stroke-width="1.5"/><text text-anchor="middle" dominant-baseline="middle" font-size="13" font-weight="700" fill="#232323">友谊之舟</text></g>
<g transform="translate(866 185)"><rect x="-54" y="-17" width="108" height="34" rx="6" fill="#f8fbf4" stroke="#7a9a6d" stroke-width="1.5"/><text text-anchor="middle" dominant-baseline="middle" font-size="13" font-weight="700" fill="#232323">神秘人</text></g>
<g transform="translate(866 227)"><rect x="-54" y="-17" width="108" height="34" rx="6" fill="#f8fbf4" stroke="#7a9a6d" stroke-width="1.5"/><text text-anchor="middle" dominant-baseline="middle" font-size="13" font-weight="700" fill="#232323">加好友声讨</text></g>
<g transform="translate(866 269)"><rect x="-54" y="-17" width="108" height="34" rx="6" fill="#f8fbf4" stroke="#7a9a6d" stroke-width="1.5"/><text text-anchor="middle" dominant-baseline="middle" font-size="13" font-weight="700" fill="#232323">没有争吵的开场</text></g>
<g transform="translate(212 186)"><rect x="-54" y="-17" width="108" height="34" rx="6" fill="#f8fbf4" stroke="#7a9a6d" stroke-width="1.5"/><text text-anchor="middle" dominant-baseline="middle" font-size="13" font-weight="700" fill="#232323">靠近</text></g>
<g transform="translate(34 81)"><rect x="-54" y="-17" width="108" height="34" rx="6" fill="#f8fbf4" stroke="#7a9a6d" stroke-width="1.5"/><text text-anchor="middle" dominant-baseline="middle" font-size="13" font-weight="700" fill="#232323">讲清规则</text></g>
<g transform="translate(34 123)"><rect x="-54" y="-17" width="108" height="34" rx="6" fill="#f8fbf4" stroke="#7a9a6d" stroke-width="1.5"/><text text-anchor="middle" dominant-baseline="middle" font-size="13" font-weight="700" fill="#232323">越聊越多</text></g>
<g transform="translate(34 165)"><rect x="-54" y="-17" width="108" height="34" rx="6" fill="#f8fbf4" stroke="#7a9a6d" stroke-width="1.5"/><text text-anchor="middle" dominant-baseline="middle" font-size="13" font-weight="700" fill="#232323">加微信</text></g>
<g transform="translate(34 207)"><rect x="-54" y="-17" width="108" height="34" rx="6" fill="#f8fbf4" stroke="#7a9a6d" stroke-width="1.5"/><text text-anchor="middle" dominant-baseline="middle" font-size="13" font-weight="700" fill="#232323">吵吵闹闹</text></g>
<g transform="translate(34 249)"><rect x="-54" y="-17" width="108" height="34" rx="6" fill="#f8fbf4" stroke="#7a9a6d" stroke-width="1.5"/><text text-anchor="middle" dominant-baseline="middle" font-size="13" font-weight="700" fill="#232323">像百灵鸟</text></g>
<g transform="translate(34 291)"><rect x="-54" y="-17" width="108" height="34" rx="6" fill="#f8fbf4" stroke="#7a9a6d" stroke-width="1.5"/><text text-anchor="middle" dominant-baseline="middle" font-size="13" font-weight="700" fill="#232323">分享越来越多</text></g>
<g transform="translate(688 -4)"><rect x="-54" y="-17" width="108" height="34" rx="6" fill="#f8fbf4" stroke="#7a9a6d" stroke-width="1.5"/><text text-anchor="middle" dominant-baseline="middle" font-size="13" font-weight="700" fill="#232323">心动</text></g>
<g transform="translate(866 -67)"><rect x="-54" y="-17" width="108" height="34" rx="6" fill="#f8fbf4" stroke="#7a9a6d" stroke-width="1.5"/><text text-anchor="middle" dominant-baseline="middle" font-size="13" font-weight="700" fill="#232323">慢慢喜欢</text></g>
<g transform="translate(866 -25)"><rect x="-54" y="-17" width="108" height="34" rx="6" fill="#f8fbf4" stroke="#7a9a6d" stroke-width="1.5"/><text text-anchor="middle" dominant-baseline="middle" font-size="13" font-weight="700" fill="#232323">想一起玩</text></g>
<g transform="translate(866 17)"><rect x="-54" y="-17" width="108" height="34" rx="6" fill="#f8fbf4" stroke="#7a9a6d" stroke-width="1.5"/><text text-anchor="middle" dominant-baseline="middle" font-size="13" font-weight="700" fill="#232323">东盟与西盟</text></g>
<g transform="translate(866 59)"><rect x="-54" y="-17" width="108" height="34" rx="6" fill="#f8fbf4" stroke="#7a9a6d" stroke-width="1.5"/><text text-anchor="middle" dominant-baseline="middle" font-size="13" font-weight="700" fill="#232323">期待她来到身边</text></g>
<g transform="translate(212 -45)"><rect x="-54" y="-17" width="108" height="34" rx="6" fill="#f8fbf4" stroke="#7a9a6d" stroke-width="1.5"/><text text-anchor="middle" dominant-baseline="middle" font-size="13" font-weight="700" fill="#232323">命名</text></g>
<g transform="translate(34 -129)"><rect x="-54" y="-17" width="108" height="34" rx="6" fill="#f8fbf4" stroke="#7a9a6d" stroke-width="1.5"/><text text-anchor="middle" dominant-baseline="middle" font-size="13" font-weight="700" fill="#232323">盛夏</text></g>
<g transform="translate(34 -87)"><rect x="-54" y="-17" width="108" height="34" rx="6" fill="#f8fbf4" stroke="#7a9a6d" stroke-width="1.5"/><text text-anchor="middle" dominant-baseline="middle" font-size="13" font-weight="700" fill="#232323">芬德拉</text></g>
<g transform="translate(34 -45)"><rect x="-54" y="-17" width="108" height="34" rx="6" fill="#f8fbf4" stroke="#7a9a6d" stroke-width="1.5"/><text text-anchor="middle" dominant-baseline="middle" font-size="13" font-weight="700" fill="#232323">短剧里的名字</text></g>
<g transform="translate(34 -3)"><rect x="-54" y="-17" width="108" height="34" rx="6" fill="#f8fbf4" stroke="#7a9a6d" stroke-width="1.5"/><text text-anchor="middle" dominant-baseline="middle" font-size="13" font-weight="700" fill="#232323">真诚相爱</text></g>
<g transform="translate(34 39)"><rect x="-54" y="-17" width="108" height="34" rx="6" fill="#f8fbf4" stroke="#7a9a6d" stroke-width="1.5"/><text text-anchor="middle" dominant-baseline="middle" font-size="13" font-weight="700" fill="#232323">彼此独立</text></g>
<g transform="translate(688 -172)"><rect x="-54" y="-17" width="108" height="34" rx="6" fill="#f8fbf4" stroke="#7a9a6d" stroke-width="1.5"/><text text-anchor="middle" dominant-baseline="middle" font-size="13" font-weight="700" fill="#232323">思念</text></g>
<g transform="translate(866 -235)"><rect x="-54" y="-17" width="108" height="34" rx="6" fill="#f8fbf4" stroke="#7a9a6d" stroke-width="1.5"/><text text-anchor="middle" dominant-baseline="middle" font-size="13" font-weight="700" fill="#232323">春节旅行</text></g>
<g transform="translate(866 -193)"><rect x="-54" y="-17" width="108" height="34" rx="6" fill="#f8fbf4" stroke="#7a9a6d" stroke-width="1.5"/><text text-anchor="middle" dominant-baseline="middle" font-size="13" font-weight="700" fill="#232323">旅游间歇</text></g>
<g transform="translate(866 -151)"><rect x="-54" y="-17" width="108" height="34" rx="6" fill="#f8fbf4" stroke="#7a9a6d" stroke-width="1.5"/><text text-anchor="middle" dominant-baseline="middle" font-size="13" font-weight="700" fill="#232323">豆蔻年华</text></g>
<g transform="translate(866 -109)"><rect x="-54" y="-17" width="108" height="34" rx="6" fill="#f8fbf4" stroke="#7a9a6d" stroke-width="1.5"/><text text-anchor="middle" dominant-baseline="middle" font-size="13" font-weight="700" fill="#232323">三百多遍</text></g>
<g transform="translate(212 -262)"><rect x="-54" y="-17" width="108" height="34" rx="6" fill="#f8fbf4" stroke="#7a9a6d" stroke-width="1.5"/><text text-anchor="middle" dominant-baseline="middle" font-size="13" font-weight="700" fill="#232323">告白</text></g>
<g transform="translate(34 -353)"><rect x="-54" y="-17" width="108" height="34" rx="6" fill="#f8fbf4" stroke="#7a9a6d" stroke-width="1.5"/><text text-anchor="middle" dominant-baseline="middle" font-size="13" font-weight="700" fill="#232323">因前 CP 争吵</text></g>
<g transform="translate(34 -311)"><rect x="-54" y="-17" width="108" height="34" rx="6" fill="#f8fbf4" stroke="#7a9a6d" stroke-width="1.5"/><text text-anchor="middle" dominant-baseline="middle" font-size="13" font-weight="700" fill="#232323">说出想法</text></g>
<g transform="translate(34 -262)"><rect x="-54" y="-17" width="108" height="34" rx="6" fill="#f8fbf4" stroke="#7a9a6d" stroke-width="1.5"/><text text-anchor="middle" dominant-baseline="middle" font-size="13" font-weight="700" fill="#232323">计划让她成为芬德拉</text></g>
<g transform="translate(34 -213)"><rect x="-54" y="-17" width="108" height="34" rx="6" fill="#f8fbf4" stroke="#7a9a6d" stroke-width="1.5"/><text text-anchor="middle" dominant-baseline="middle" font-size="13" font-weight="700" fill="#232323">和好</text></g>
<g transform="translate(34 -171)"><rect x="-54" y="-17" width="108" height="34" rx="6" fill="#f8fbf4" stroke="#7a9a6d" stroke-width="1.5"/><text text-anchor="middle" dominant-baseline="middle" font-size="13" font-weight="700" fill="#232323">唱豆蔻年华</text></g>
<g transform="translate(688 -389)"><rect x="-54" y="-17" width="108" height="34" rx="6" fill="#f8fbf4" stroke="#7a9a6d" stroke-width="1.5"/><text text-anchor="middle" dominant-baseline="middle" font-size="13" font-weight="700" fill="#232323">赠予</text></g>
<g transform="translate(866 -494)"><rect x="-54" y="-17" width="108" height="34" rx="6" fill="#f8fbf4" stroke="#7a9a6d" stroke-width="1.5"/><text text-anchor="middle" dominant-baseline="middle" font-size="13" font-weight="700" fill="#232323">海风中失落的血色馈赠</text></g>
<g transform="translate(866 -445)"><rect x="-54" y="-17" width="108" height="34" rx="6" fill="#f8fbf4" stroke="#7a9a6d" stroke-width="1.5"/><text text-anchor="middle" dominant-baseline="middle" font-size="13" font-weight="700" fill="#232323">秋</text></g>
<g transform="translate(866 -403)"><rect x="-54" y="-17" width="108" height="34" rx="6" fill="#f8fbf4" stroke="#7a9a6d" stroke-width="1.5"/><text text-anchor="middle" dominant-baseline="middle" font-size="13" font-weight="700" fill="#232323">来自我心</text></g>
<g transform="translate(866 -361)"><rect x="-54" y="-17" width="108" height="34" rx="6" fill="#f8fbf4" stroke="#7a9a6d" stroke-width="1.5"/><text text-anchor="middle" dominant-baseline="middle" font-size="13" font-weight="700" fill="#232323">一首首歌</text></g>
<g transform="translate(866 -319)"><rect x="-54" y="-17" width="108" height="34" rx="6" fill="#f8fbf4" stroke="#7a9a6d" stroke-width="1.5"/><text text-anchor="middle" dominant-baseline="middle" font-size="13" font-weight="700" fill="#232323">一段段朗读</text></g>
<g transform="translate(212 -500)"><rect x="-54" y="-17" width="108" height="34" rx="6" fill="#f8fbf4" stroke="#7a9a6d" stroke-width="1.5"/><text text-anchor="middle" dominant-baseline="middle" font-size="13" font-weight="700" fill="#232323">现在</text></g>
<g transform="translate(34 -605)"><rect x="-54" y="-17" width="108" height="34" rx="6" fill="#f8fbf4" stroke="#7a9a6d" stroke-width="1.5"/><text text-anchor="middle" dominant-baseline="middle" font-size="13" font-weight="700" fill="#232323">吵过很多架</text></g>
<g transform="translate(34 -521)"><rect x="-54" y="-17" width="108" height="34" rx="6" fill="#f8fbf4" stroke="#7a9a6d" stroke-width="1.5"/><text text-anchor="middle" dominant-baseline="middle" font-size="13" font-weight="700" fill="#232323">依然特别爱她</text></g>
<g transform="translate(34 -437)"><rect x="-54" y="-17" width="108" height="34" rx="6" fill="#f8fbf4" stroke="#7a9a6d" stroke-width="1.5"/><text text-anchor="middle" dominant-baseline="middle" font-size="13" font-weight="700" fill="#232323">她满心都是我</text></g>
<g transform="translate(34 -395)"><rect x="-54" y="-17" width="108" height="34" rx="6" fill="#f8fbf4" stroke="#7a9a6d" stroke-width="1.5"/><text text-anchor="middle" dominant-baseline="middle" font-size="13" font-weight="700" fill="#232323">我们还在一起生长</text></g>
<g transform="translate(551.651648353978 621.7959636416969)"><rect x="-54" y="-17" width="108" height="34" rx="6" fill="#f8fbf4" stroke="#7a9a6d" stroke-width="1.5"/><text text-anchor="middle" dominant-baseline="middle" font-size="13" font-weight="700" fill="#232323">游戏缘起</text></g>
<g transform="translate(801.651648353978 516.7959636416969)"><rect x="-54" y="-17" width="108" height="34" rx="6" fill="#f8fbf4" stroke="#7a9a6d" stroke-width="1.5"/><text text-anchor="middle" dominant-baseline="middle" font-size="13" font-weight="700" fill="#232323">派派</text></g>
<g transform="translate(801.651648353978 586.7959636416969)"><rect x="-54" y="-17" width="108" height="34" rx="6" fill="#f8fbf4" stroke="#7a9a6d" stroke-width="1.5"/><text text-anchor="middle" dominant-baseline="middle" font-size="13" font-weight="700" fill="#232323">友谊之舟机制</text></g>
<g transform="translate(801.651648353978 656.7959636416969)"><rect x="-54" y="-17" width="108" height="34" rx="6" fill="#f8fbf4" stroke="#7a9a6d" stroke-width="1.5"/><text text-anchor="middle" dominant-baseline="middle" font-size="13" font-weight="700" fill="#232323">神秘人事件</text></g>
<g transform="translate(801.651648353978 726.7959636416969)"><rect x="-54" y="-17" width="108" height="34" rx="6" fill="#f8fbf4" stroke="#7a9a6d" stroke-width="1.5"/><text text-anchor="middle" dominant-baseline="middle" font-size="13" font-weight="700" fill="#232323">不同联盟</text></g>
<g transform="translate(213.61363558934977 491.68416076895005)"><rect x="-54" y="-17" width="108" height="34" rx="6" fill="#f8fbf4" stroke="#7a9a6d" stroke-width="1.5"/><text text-anchor="middle" dominant-baseline="middle" font-size="13" font-weight="700" fill="#232323">她的样子</text></g>
<g transform="translate(-36.38636441065023 468)"><rect x="-54" y="-17" width="108" height="34" rx="6" fill="#f8fbf4" stroke="#7a9a6d" stroke-width="1.5"/><text text-anchor="middle" dominant-baseline="middle" font-size="13" font-weight="700" fill="#232323">活泼</text></g>
<g transform="translate(-36.38636441065023 538)"><rect x="-54" y="-17" width="108" height="34" rx="6" fill="#f8fbf4" stroke="#7a9a6d" stroke-width="1.5"/><text text-anchor="middle" dominant-baseline="middle" font-size="13" font-weight="700" fill="#232323">吵吵闹闹</text></g>
<g transform="translate(-36.38636441065023 608)"><rect x="-54" y="-17" width="108" height="34" rx="6" fill="#f8fbf4" stroke="#7a9a6d" stroke-width="1.5"/><text text-anchor="middle" dominant-baseline="middle" font-size="13" font-weight="700" fill="#232323">像百灵鸟</text></g>
<g transform="translate(-36.38636441065023 678)"><rect x="-54" y="-17" width="108" height="34" rx="6" fill="#f8fbf4" stroke="#7a9a6d" stroke-width="1.5"/><text text-anchor="middle" dominant-baseline="middle" font-size="13" font-weight="700" fill="#232323">愿意分享</text></g>
<g transform="translate(1047.7733888993366 818.495448921213)"><rect x="-54" y="-17" width="108" height="34" rx="6" fill="#f8fbf4" stroke="#7a9a6d" stroke-width="1.5"/><text text-anchor="middle" dominant-baseline="middle" font-size="13" font-weight="700" fill="#232323">我的感受</text></g>
<g transform="translate(1297.7733888993366 713.495448921213)"><rect x="-54" y="-17" width="108" height="34" rx="6" fill="#f8fbf4" stroke="#7a9a6d" stroke-width="1.5"/><text text-anchor="middle" dominant-baseline="middle" font-size="13" font-weight="700" fill="#232323">耐心解释</text></g>
<g transform="translate(1297.7733888993366 783.495448921213)"><rect x="-54" y="-17" width="108" height="34" rx="6" fill="#f8fbf4" stroke="#7a9a6d" stroke-width="1.5"/><text text-anchor="middle" dominant-baseline="middle" font-size="13" font-weight="700" fill="#232323">慢慢喜欢</text></g>
<g transform="translate(1297.7733888993366 853.495448921213)"><rect x="-54" y="-17" width="108" height="34" rx="6" fill="#f8fbf4" stroke="#7a9a6d" stroke-width="1.5"/><text text-anchor="middle" dominant-baseline="middle" font-size="13" font-weight="700" fill="#232323">旅游途中想她</text></g>
<g transform="translate(1297.7733888993366 923.495448921213)"><rect x="-54" y="-17" width="108" height="34" rx="6" fill="#f8fbf4" stroke="#7a9a6d" stroke-width="1.5"/><text text-anchor="middle" dominant-baseline="middle" font-size="13" font-weight="700" fill="#232323">想和她一起玩</text></g>
<g transform="translate(-314.56480451855964 496.32824913349)"><rect x="-54" y="-17" width="108" height="34" rx="6" fill="#f8fbf4" stroke="#7a9a6d" stroke-width="1.5"/><text text-anchor="middle" dominant-baseline="middle" font-size="13" font-weight="700" fill="#232323">我们的象征</text></g>
<g transform="translate(-564.5648045185596 468)"><rect x="-54" y="-17" width="108" height="34" rx="6" fill="#f8fbf4" stroke="#7a9a6d" stroke-width="1.5"/><text text-anchor="middle" dominant-baseline="middle" font-size="13" font-weight="700" fill="#232323">盛夏</text></g>
<g transform="translate(-564.5648045185596 538)"><rect x="-54" y="-17" width="108" height="34" rx="6" fill="#f8fbf4" stroke="#7a9a6d" stroke-width="1.5"/><text text-anchor="middle" dominant-baseline="middle" font-size="13" font-weight="700" fill="#232323">芬德拉</text></g>
<g transform="translate(-564.5648045185596 608)"><rect x="-54" y="-17" width="108" height="34" rx="6" fill="#f8fbf4" stroke="#7a9a6d" stroke-width="1.5"/><text text-anchor="middle" dominant-baseline="middle" font-size="13" font-weight="700" fill="#232323">豆蔻年华</text></g>
<g transform="translate(-564.5648045185596 678)"><rect x="-54" y="-17" width="108" height="34" rx="6" fill="#f8fbf4" stroke="#7a9a6d" stroke-width="1.5"/><text text-anchor="middle" dominant-baseline="middle" font-size="13" font-weight="700" fill="#232323">来自我心</text></g>
<g transform="translate(1054.793498325398 495.2307956661598)"><rect x="-54" y="-17" width="108" height="34" rx="6" fill="#f8fbf4" stroke="#7a9a6d" stroke-width="1.5"/><text text-anchor="middle" dominant-baseline="middle" font-size="13" font-weight="700" fill="#232323">冲突与确认</text></g>
<g transform="translate(1304.793498325398 468)"><rect x="-54" y="-17" width="108" height="34" rx="6" fill="#f8fbf4" stroke="#7a9a6d" stroke-width="1.5"/><text text-anchor="middle" dominant-baseline="middle" font-size="13" font-weight="700" fill="#232323">前 CP</text></g>
<g transform="translate(1304.793498325398 538)"><rect x="-54" y="-17" width="108" height="34" rx="6" fill="#f8fbf4" stroke="#7a9a6d" stroke-width="1.5"/><text text-anchor="middle" dominant-baseline="middle" font-size="13" font-weight="700" fill="#232323">争吵</text></g>
<g transform="translate(1304.793498325398 608)"><rect x="-54" y="-17" width="108" height="34" rx="6" fill="#f8fbf4" stroke="#7a9a6d" stroke-width="1.5"/><text text-anchor="middle" dominant-baseline="middle" font-size="13" font-weight="700" fill="#232323">和好</text></g>
<g transform="translate(1304.793498325398 678)"><rect x="-54" y="-17" width="108" height="34" rx="6" fill="#f8fbf4" stroke="#7a9a6d" stroke-width="1.5"/><text text-anchor="middle" dominant-baseline="middle" font-size="13" font-weight="700" fill="#232323">说出计划</text></g>
<g transform="translate(1304.793498325398 748)"><rect x="-54" y="-17" width="108" height="34" rx="6" fill="#f8fbf4" stroke="#7a9a6d" stroke-width="1.5"/><text text-anchor="middle" dominant-baseline="middle" font-size="13" font-weight="700" fill="#232323">更确定彼此</text></g>
<g transform="translate(-564.5648045185596 748)"><rect x="-54" y="-17" width="108" height="34" rx="6" fill="#ffffff" stroke="#7a9a6d" stroke-width="1.5"/><text text-anchor="middle" dominant-baseline="middle" font-size="13" font-weight="700" fill="#232323">神秘嘉宾</text></g>
<g transform="translate(866 -277)"><rect x="-54" y="-17" width="108" height="34" rx="6" fill="#ffffff" stroke="#7a9a6d" stroke-width="1.5"/><text text-anchor="middle" dominant-baseline="middle" font-size="13" font-weight="700" fill="#232323">分享照片</text></g>
<g transform="translate(-144 -563)"><rect x="-54" y="-17" width="108" height="34" rx="6" fill="#94e3fe" stroke="#7a9a6d" stroke-width="1.5"/><text text-anchor="middle" dominant-baseline="middle" font-size="13" font-weight="700" fill="#232323">盛夏</text></g>
<g transform="translate(-144 -521)"><rect x="-54" y="-17" width="108" height="34" rx="6" fill="#e392fe" stroke="#ffa57d" stroke-width="1.5"/><text text-anchor="middle" dominant-baseline="middle" font-size="13" font-weight="700" fill="#232323">❤️</text></g>
<g transform="translate(-144 -479)"><rect x="-54" y="-17" width="108" height="34" rx="6" fill="#94e3fe" stroke="#7a9a6d" stroke-width="1.5"/><text text-anchor="middle" dominant-baseline="middle" font-size="13" font-weight="700" fill="#232323">芬德拉</text></g>
</svg>
