<svg xmlns="http://www.w3.org/2000/svg" viewBox="-476.5 -120 1603 795" width="1603" height="795">
  <rect x="-476.5" y="-120" width="1603" height="795" fill="#fffcf6"/>
  <text x="-452.5" y="-84" font-size="18" font-weight="700" fill="#2f241b">橙汁儿.nt</text>
  <line x1="-476.5" y1="390" x2="1126.5" y2="390" stroke="#d8cab7" stroke-dasharray="6 6"/>
  <path d="M 455 390 C 470.16295201467614 421.36, 564.9314021064018 426.96, 644.5369001834514 446" fill="none" stroke="#6d6d6d" stroke-width="1.4"/>
<path d="M 756.5369001834514 446 L 827.5369001834514 446 L 827.5369001834514 468 L 898.5369001834514 468" fill="none" stroke="#6d6d6d" stroke-width="1.4"/>
<path d="M 756.5369001834514 446 L 827.5369001834514 446 L 827.5369001834514 538 L 898.5369001834514 538" fill="none" stroke="#6d6d6d" stroke-width="1.4"/>
<path d="M 445 390 C 429.83704798532386 421.36, 335.06859789359817 426.96, 255.46309981654858 446" fill="none" stroke="#6d6d6d" stroke-width="1.4"/>
<path d="M 143.46309981654858 446 L 72.46309981654858 446 L 72.46309981654858 468 L 1.4630998165485778 468" fill="none" stroke="#6d6d6d" stroke-width="1.4"/>
<path d="M -106.53690018345142 468 L -177.5369001834514 468 L -177.5369001834514 468 L -248.5369001834514 468" fill="none" stroke="#6d6d6d" stroke-width="1.4"/>
<path d="M 450 328 L 266 286" fill="none" stroke="#6d6d6d" stroke-width="1.4"/>
<path d="M 158 286 L 123 286 L 123 286 L 88 286" fill="none" stroke="#6d6d6d" stroke-width="1.4"/>
  <path d="M 450 300 C 449 374, 452 292, 450 420" fill="none" stroke="#705e51" stroke-width="8" stroke-linecap="round" opacity="0.84"/><path d="M 450 410 C 432 417, 408 420, 374 424" fill="none" stroke="#705e51" stroke-width="5.2" stroke-linecap="round" opacity="0.62"/><path d="M 450 410 C 468 417, 492 420, 526 424" fill="none" stroke="#705e51" stroke-width="5.2" stroke-linecap="round" opacity="0.62"/><path d="M 450 399 C 444 408, 442 415, 450 424 C 458 415, 456 408, 450 399" fill="rgba(112, 94, 81, 0.28)" stroke="none"/>
<g transform="translate(702.5369001834514 446)"><rect x="-54" y="-17" width="108" height="34" rx="6" fill="#ffffff" stroke="#9a7b4f" stroke-width="1.5"/><text text-anchor="middle" dominant-baseline="middle" font-size="13" font-weight="700" fill="#232323">右主根</text></g>
<g transform="translate(952.5369001834514 468)"><rect x="-54" y="-17" width="108" height="34" rx="6" fill="#ffffff" stroke="#9a7b4f" stroke-width="1.5"/><text text-anchor="middle" dominant-baseline="middle" font-size="13" font-weight="700" fill="#232323">子根系</text></g>
<g transform="translate(952.5369001834514 538)"><rect x="-54" y="-17" width="108" height="34" rx="6" fill="#ffffff" stroke="#9a7b4f" stroke-width="1.5"/><text text-anchor="middle" dominant-baseline="middle" font-size="13" font-weight="700" fill="#232323">子根系</text></g>
<g transform="translate(197.46309981654858 446)"><rect x="-54" y="-17" width="108" height="34" rx="6" fill="#00fdff" stroke="#9a7b4f" stroke-width="1.5"/><text text-anchor="middle" dominant-baseline="middle" font-size="13" font-weight="700" fill="#232323">七里香</text></g>
<g transform="translate(-52.53690018345142 468)"><rect x="-54" y="-17" width="108" height="34" rx="6" fill="#ffffff" stroke="#9a7b4f" stroke-width="1.5"/><text text-anchor="middle" dominant-baseline="middle" font-size="13" font-weight="700" fill="#232323">子根系</text></g>
<g transform="translate(-302.5369001834514 468)"><rect x="-54" y="-17" width="108" height="34" rx="6" fill="#ffffff" stroke="#9a7b4f" stroke-width="1.5"/><text text-anchor="middle" dominant-baseline="middle" font-size="13" font-weight="700" fill="#232323">子根系</text></g>
<g transform="translate(212 286)"><rect x="-54" y="-17" width="108" height="34" rx="6" fill="#00fdff" stroke="#d9a441" stroke-width="1.5"/><text text-anchor="middle" dominant-baseline="middle" font-size="13" font-weight="700" fill="#232323">七里香</text></g>
<g transform="translate(34 286)"><rect x="-54" y="-17" width="108" height="34" rx="6" fill="#ffffff" stroke="#7fb069" stroke-width="1.5"/><text text-anchor="middle" dominant-baseline="middle" font-size="13" font-weight="700" fill="#232323">叶子</text></g>
</svg>
